<svg width="277" height="487" viewBox="0 0 277 487" fill="none" xmlns="http://www.w3.org/2000/svg">
<g clip-path="url(#clip0_11_491)">
<path d="M276.222 0H0V486.615H276.222V0Z" fill="white" stroke="#333333" stroke-width="1.01378"/>
<path d="M276.222 0H0V20.2756H276.222V0Z" fill="#333333"/>
<path d="M75.6083 14V5.79758H77.3425V12.5702H80.8589V14H75.6083ZM82.0074 14V5.79758H87.5344V7.2274H83.7416V9.18188H87.2501V10.6117H83.7416V12.5702H87.5504V14H82.0074ZM90.395 5.79758L92.3776 12.0295H92.4537L94.4402 5.79758H96.3626L93.535 14H91.3002L88.4686 5.79758H90.395ZM97.3499 14V5.79758H102.877V7.2274H99.0841V9.18188H102.593V10.6117H99.0841V12.5702H102.893V14H97.3499ZM104.256 14V5.79758H105.99V12.5702H109.506V14H104.256ZM116.786 5.79758V14H115.051V7.44367H115.003L113.125 8.62117V7.08322L115.155 5.79758H116.786ZM125.194 9.22193V10.5757H121.453V9.22193H125.194ZM130.704 14H128.846L131.677 5.79758H133.912L136.74 14H134.882L132.827 7.67196H132.763L130.704 14ZM130.588 10.7759H134.978V12.1296H130.588V10.7759ZM140.582 7.84819V9.12982H136.877V7.84819H140.582ZM137.718 6.37432H139.424V12.1096C139.424 12.2671 139.448 12.39 139.496 12.4781C139.544 12.5635 139.611 12.6236 139.697 12.6583C139.785 12.693 139.886 12.7104 140.001 12.7104C140.081 12.7104 140.161 12.7037 140.241 12.6903C140.321 12.6743 140.383 12.6623 140.426 12.6543L140.694 13.9239C140.608 13.9506 140.488 13.9813 140.333 14.016C140.179 14.0534 139.99 14.0761 139.769 14.0841C139.358 14.1001 138.997 14.0454 138.687 13.9199C138.38 13.7944 138.141 13.5995 137.97 13.3352C137.8 13.0708 137.715 12.7371 137.718 12.3339V6.37432ZM144.965 7.84819V9.12982H141.261V7.84819H144.965ZM142.102 6.37432H143.808V12.1096C143.808 12.2671 143.832 12.39 143.88 12.4781C143.928 12.5635 143.995 12.6236 144.08 12.6583C144.168 12.693 144.27 12.7104 144.385 12.7104C144.465 12.7104 144.545 12.7037 144.625 12.6903C144.705 12.6743 144.766 12.6623 144.809 12.6543L145.077 13.9239C144.992 13.9506 144.872 13.9813 144.717 14.016C144.562 14.0534 144.374 14.0761 144.152 14.0841C143.741 14.1001 143.381 14.0454 143.071 13.9199C142.764 13.7944 142.525 13.5995 142.354 13.3352C142.183 13.0708 142.099 12.7371 142.102 12.3339V6.37432ZM146.077 14V7.84819H147.731V8.92155H147.795C147.907 8.53973 148.095 8.25137 148.36 8.05645C148.624 7.85887 148.928 7.76008 149.273 7.76008C149.358 7.76008 149.45 7.76542 149.549 7.7761C149.648 7.78678 149.735 7.80146 149.809 7.82015V9.33407C149.729 9.31004 149.619 9.28868 149.477 9.26999C149.336 9.2513 149.206 9.24196 149.089 9.24196C148.838 9.24196 148.613 9.29669 148.416 9.40617C148.221 9.51297 148.066 9.66249 147.951 9.85474C147.839 10.047 147.783 10.2686 147.783 10.5196V14H146.077ZM152.27 14.1161C151.877 14.1161 151.527 14.0481 151.22 13.9119C150.913 13.773 150.67 13.5688 150.491 13.2991C150.315 13.0268 150.227 12.6877 150.227 12.2818C150.227 11.9401 150.29 11.653 150.415 11.4207C150.541 11.1884 150.712 11.0015 150.928 10.86C151.144 10.7185 151.39 10.6117 151.665 10.5396C151.943 10.4675 152.234 10.4168 152.538 10.3874C152.896 10.35 153.184 10.3153 153.403 10.2833C153.622 10.2486 153.781 10.1978 153.88 10.1311C153.978 10.0643 154.028 9.96554 154.028 9.83471V9.81068C154.028 9.55702 153.948 9.36078 153.788 9.22193C153.63 9.08309 153.406 9.01367 153.115 9.01367C152.808 9.01367 152.563 9.08175 152.382 9.21793C152.2 9.35143 152.08 9.51964 152.021 9.72257L150.443 9.59441C150.523 9.2206 150.681 8.89752 150.916 8.62517C151.151 8.35016 151.454 8.13922 151.825 7.99237C152.199 7.84285 152.631 7.76809 153.123 7.76809C153.464 7.76809 153.792 7.80814 154.104 7.88824C154.419 7.96834 154.698 8.0925 154.941 8.26071C155.187 8.42893 155.38 8.6452 155.522 8.90954C155.663 9.1712 155.734 9.48493 155.734 9.85073V14H154.116V13.1469H154.068C153.969 13.3392 153.837 13.5087 153.671 13.6556C153.506 13.7997 153.307 13.9132 153.075 13.996C152.842 14.0761 152.574 14.1161 152.27 14.1161ZM152.758 12.9387C153.009 12.9387 153.231 12.8893 153.423 12.7905C153.615 12.689 153.766 12.5528 153.876 12.3819C153.985 12.2111 154.04 12.0175 154.04 11.8012V11.1484C153.986 11.1831 153.913 11.2151 153.82 11.2445C153.729 11.2712 153.626 11.2966 153.511 11.3206C153.396 11.342 153.282 11.362 153.167 11.3807C153.052 11.3967 152.948 11.4114 152.854 11.4247C152.654 11.4541 152.479 11.5008 152.33 11.5649C152.18 11.629 152.064 11.7158 151.981 11.8252C151.898 11.932 151.857 12.0655 151.857 12.2257C151.857 12.458 151.941 12.6356 152.109 12.7584C152.28 12.8786 152.497 12.9387 152.758 12.9387ZM159.837 14.1202C159.207 14.1202 158.665 13.9866 158.211 13.7196C157.76 13.45 157.413 13.0762 157.17 12.5982C156.93 12.1203 156.809 11.5702 156.809 10.9481C156.809 10.318 156.931 9.76529 157.174 9.29002C157.419 8.81208 157.768 8.43961 158.219 8.1726C158.67 7.90292 159.207 7.76809 159.829 7.76809C160.366 7.76809 160.836 7.86554 161.239 8.06046C161.642 8.25537 161.961 8.52905 162.196 8.8815C162.431 9.23395 162.561 9.64781 162.585 10.1231H160.975C160.929 9.81602 160.809 9.56904 160.614 9.38214C160.422 9.19256 160.17 9.09777 159.857 9.09777C159.593 9.09777 159.362 9.16987 159.164 9.31405C158.969 9.45556 158.817 9.66249 158.708 9.93484C158.598 10.2072 158.544 10.5369 158.544 10.9241C158.544 11.3166 158.597 11.6503 158.704 11.9254C158.813 12.2004 158.967 12.41 159.164 12.5542C159.362 12.6983 159.593 12.7704 159.857 12.7704C160.052 12.7704 160.227 12.7304 160.382 12.6503C160.539 12.5702 160.669 12.454 160.77 12.3018C160.875 12.147 160.943 11.9614 160.975 11.7451H162.585C162.558 12.2151 162.43 12.6289 162.2 12.9867C161.973 13.3418 161.66 13.6195 161.259 13.8198C160.859 14.02 160.385 14.1202 159.837 14.1202ZM166.949 7.84819V9.12982H163.245V7.84819H166.949ZM164.086 6.37432H165.792V12.1096C165.792 12.2671 165.816 12.39 165.864 12.4781C165.912 12.5635 165.979 12.6236 166.064 12.6583C166.152 12.693 166.254 12.7104 166.369 12.7104C166.449 12.7104 166.529 12.7037 166.609 12.6903C166.689 12.6743 166.75 12.6623 166.793 12.6543L167.061 13.9239C166.976 13.9506 166.856 13.9813 166.701 14.016C166.546 14.0534 166.358 14.0761 166.136 14.0841C165.725 14.1001 165.365 14.0454 165.055 13.9199C164.748 13.7944 164.509 13.5995 164.338 13.3352C164.167 13.0708 164.083 12.7371 164.086 12.3339V6.37432ZM170.671 14V7.84819H172.297V8.93357H172.369C172.497 8.57311 172.711 8.28875 173.01 8.08048C173.309 7.87222 173.667 7.76809 174.083 7.76809C174.505 7.76809 174.864 7.87355 175.161 8.08449C175.457 8.29275 175.655 8.57578 175.753 8.93357H175.818C175.943 8.58112 176.17 8.29943 176.498 8.08849C176.829 7.87489 177.221 7.76809 177.672 7.76809C178.246 7.76809 178.712 7.95099 179.07 8.31678C179.43 8.67991 179.61 9.19523 179.61 9.86275V14H177.908V10.1992C177.908 9.85741 177.817 9.60108 177.636 9.4302C177.454 9.25931 177.227 9.17387 176.955 9.17387C176.645 9.17387 176.404 9.27266 176.23 9.47025C176.056 9.66516 175.97 9.92282 175.97 10.2432V14H174.316V10.1631C174.316 9.86141 174.229 9.62111 174.055 9.44221C173.884 9.26332 173.659 9.17387 173.378 9.17387C173.189 9.17387 173.018 9.22193 172.866 9.31805C172.716 9.41151 172.597 9.54367 172.509 9.71456C172.421 9.88277 172.377 10.0804 172.377 10.3073V14H170.671ZM183.738 14.1202C183.115 14.1202 182.577 13.988 182.124 13.7236C181.672 13.4566 181.324 13.0855 181.078 12.6102C180.833 12.1323 180.71 11.5783 180.71 10.9481C180.71 10.3127 180.833 9.75728 181.078 9.28201C181.324 8.80407 181.672 8.43293 182.124 8.16859C182.577 7.90159 183.115 7.76809 183.738 7.76809C184.36 7.76809 184.896 7.90159 185.348 8.16859C185.802 8.43293 186.151 8.80407 186.397 9.28201C186.643 9.75728 186.765 10.3127 186.765 10.9481C186.765 11.5783 186.643 12.1323 186.397 12.6102C186.151 13.0855 185.802 13.4566 185.348 13.7236C184.896 13.988 184.36 14.1202 183.738 14.1202ZM183.746 12.7985C184.029 12.7985 184.265 12.7184 184.454 12.5582C184.644 12.3953 184.787 12.1737 184.883 11.8933C184.982 11.613 185.031 11.2939 185.031 10.9361C185.031 10.5783 184.982 10.2592 184.883 9.97889C184.787 9.69854 184.644 9.47692 184.454 9.31405C184.265 9.15118 184.029 9.06974 183.746 9.06974C183.46 9.06974 183.22 9.15118 183.025 9.31405C182.832 9.47692 182.687 9.69854 182.588 9.97889C182.492 10.2592 182.444 10.5783 182.444 10.9361C182.444 11.2939 182.492 11.613 182.588 11.8933C182.687 12.1737 182.832 12.3953 183.025 12.5582C183.22 12.7184 183.46 12.7985 183.746 12.7985ZM190.142 14.1001C189.674 14.1001 189.251 13.98 188.872 13.7397C188.496 13.4967 188.197 13.1402 187.975 12.6703C187.756 12.1977 187.647 11.6183 187.647 10.9321C187.647 10.2272 187.76 9.64113 187.987 9.17387C188.214 8.70394 188.516 8.35283 188.892 8.12053C189.271 7.88557 189.686 7.76809 190.138 7.76809C190.482 7.76809 190.769 7.82683 190.999 7.94431C191.231 8.05912 191.418 8.20331 191.56 8.37686C191.704 8.54774 191.813 8.71596 191.888 8.8815H191.94V5.79758H193.642V14H191.96V13.0147H191.888C191.808 13.1856 191.694 13.3552 191.547 13.5234C191.403 13.6889 191.215 13.8264 190.983 13.9359C190.753 14.0454 190.473 14.1001 190.142 14.1001ZM190.682 12.7424C190.957 12.7424 191.19 12.6676 191.379 12.5181C191.572 12.3659 191.718 12.1537 191.82 11.8813C191.924 11.609 191.976 11.2899 191.976 10.9241C191.976 10.5583 191.925 10.2406 191.824 9.97088C191.722 9.70121 191.576 9.49294 191.383 9.34609C191.191 9.19924 190.957 9.12581 190.682 9.12581C190.402 9.12581 190.166 9.20191 189.973 9.3541C189.781 9.50629 189.636 9.71723 189.537 9.9869C189.438 10.2566 189.389 10.569 189.389 10.9241C189.389 11.2819 189.438 11.5983 189.537 11.8733C189.638 12.1456 189.784 12.3592 189.973 12.5141C190.166 12.6663 190.402 12.7424 190.682 12.7424ZM197.848 14.1202C197.216 14.1202 196.671 13.992 196.214 13.7357C195.761 13.4767 195.411 13.1109 195.165 12.6383C194.919 12.163 194.797 11.601 194.797 10.9521C194.797 10.3193 194.919 9.76395 195.165 9.28601C195.411 8.80807 195.757 8.4356 196.202 8.16859C196.651 7.90159 197.177 7.76809 197.78 7.76809C198.186 7.76809 198.564 7.8335 198.914 7.96434C199.266 8.0925 199.573 8.28608 199.835 8.54507C200.099 8.80407 200.305 9.12982 200.452 9.52231C200.599 9.91214 200.672 10.3687 200.672 10.8921V11.3606H195.477V10.3033H199.066C199.066 10.0577 199.013 9.84005 198.906 9.65048C198.799 9.4609 198.651 9.31271 198.461 9.20591C198.274 9.09644 198.057 9.0417 197.808 9.0417C197.549 9.0417 197.32 9.10178 197.12 9.22193C196.922 9.33941 196.767 9.49828 196.655 9.69854C196.543 9.89612 196.485 10.1164 196.483 10.3594V11.3647C196.483 11.669 196.539 11.932 196.651 12.1537C196.766 12.3753 196.927 12.5462 197.136 12.6663C197.344 12.7865 197.591 12.8465 197.877 12.8465C198.066 12.8465 198.24 12.8198 198.397 12.7664C198.555 12.713 198.69 12.6329 198.802 12.5261C198.914 12.4193 198.999 12.2885 199.058 12.1336L200.636 12.2378C200.556 12.6169 200.392 12.948 200.143 13.231C199.898 13.5114 199.58 13.7303 199.19 13.8879C198.803 14.0427 198.356 14.1202 197.848 14.1202Z" fill="#FFF6F6"/>
<path d="M263.305 28.8887H12.6592V469.884H263.305V28.8887Z" fill="#FAFAFA" stroke="#666666" stroke-width="0.760336"/>
<path d="M109.176 257.078C109.144 256.755 109.006 256.504 108.763 256.325C108.52 256.147 108.19 256.057 107.774 256.057C107.491 256.057 107.252 256.097 107.057 256.177C106.862 256.255 106.713 256.363 106.608 256.502C106.507 256.641 106.456 256.798 106.456 256.974C106.451 257.121 106.482 257.249 106.548 257.359C106.618 257.468 106.713 257.563 106.833 257.643C106.953 257.721 107.092 257.789 107.249 257.847C107.407 257.904 107.575 257.952 107.754 257.992L108.491 258.168C108.849 258.248 109.177 258.355 109.476 258.488C109.775 258.622 110.034 258.786 110.253 258.981C110.472 259.176 110.642 259.405 110.762 259.67C110.884 259.934 110.947 260.237 110.95 260.579C110.947 261.081 110.819 261.516 110.565 261.885C110.314 262.25 109.951 262.535 109.476 262.738C109.003 262.938 108.433 263.038 107.766 263.038C107.104 263.038 106.527 262.937 106.036 262.734C105.547 262.531 105.165 262.23 104.89 261.832C104.618 261.432 104.475 260.937 104.462 260.347H106.14C106.158 260.622 106.237 260.851 106.376 261.035C106.518 261.217 106.706 261.355 106.941 261.448C107.178 261.539 107.447 261.584 107.746 261.584C108.04 261.584 108.295 261.541 108.511 261.456C108.73 261.371 108.899 261.252 109.019 261.1C109.14 260.947 109.2 260.772 109.2 260.575C109.2 260.391 109.145 260.236 109.035 260.11C108.929 259.985 108.771 259.878 108.563 259.79C108.357 259.702 108.105 259.622 107.806 259.55L106.913 259.325C106.221 259.157 105.675 258.894 105.275 258.536C104.874 258.179 104.675 257.697 104.678 257.09C104.675 256.594 104.807 256.16 105.074 255.789C105.344 255.418 105.714 255.128 106.184 254.92C106.654 254.711 107.188 254.607 107.786 254.607C108.395 254.607 108.926 254.711 109.38 254.92C109.836 255.128 110.192 255.418 110.445 255.789C110.699 256.16 110.83 256.59 110.838 257.078H109.176ZM112.116 262.922V254.719H113.851V261.492H117.367V262.922H112.116ZM120.25 254.719V262.922H118.516V254.719H120.25ZM124.584 262.922H121.677V254.719H124.608C125.433 254.719 126.144 254.884 126.739 255.212C127.334 255.538 127.792 256.006 128.113 256.618C128.436 257.229 128.597 257.961 128.597 258.813C128.597 259.667 128.436 260.401 128.113 261.015C127.792 261.63 127.332 262.101 126.731 262.429C126.133 262.758 125.417 262.922 124.584 262.922ZM123.411 261.436H124.512C125.025 261.436 125.456 261.345 125.806 261.164C126.158 260.979 126.423 260.695 126.599 260.311C126.778 259.923 126.867 259.424 126.867 258.813C126.867 258.207 126.778 257.711 126.599 257.327C126.423 256.942 126.16 256.659 125.81 256.478C125.46 256.296 125.029 256.205 124.516 256.205H123.411V261.436ZM129.882 262.922V254.719H135.409V256.149H131.616V258.104H135.125V259.534H131.616V261.492H135.425V262.922H129.882ZM141.237 257.078C141.205 256.755 141.068 256.504 140.825 256.325C140.582 256.147 140.252 256.057 139.836 256.057C139.553 256.057 139.314 256.097 139.119 256.177C138.924 256.255 138.774 256.363 138.67 256.502C138.569 256.641 138.518 256.798 138.518 256.974C138.513 257.121 138.543 257.249 138.61 257.359C138.679 257.468 138.774 257.563 138.894 257.643C139.015 257.721 139.153 257.789 139.311 257.847C139.468 257.904 139.637 257.952 139.816 257.992L140.553 258.168C140.91 258.248 141.239 258.355 141.538 258.488C141.837 258.622 142.096 258.786 142.315 258.981C142.534 259.176 142.703 259.405 142.823 259.67C142.946 259.934 143.009 260.237 143.012 260.579C143.009 261.081 142.881 261.516 142.627 261.885C142.376 262.25 142.013 262.535 141.538 262.738C141.065 262.938 140.495 263.038 139.828 263.038C139.165 263.038 138.589 262.937 138.097 262.734C137.609 262.531 137.227 262.23 136.952 261.832C136.68 261.432 136.537 260.937 136.523 260.347H138.202C138.22 260.622 138.299 260.851 138.438 261.035C138.579 261.217 138.768 261.355 139.003 261.448C139.24 261.539 139.509 261.584 139.808 261.584C140.101 261.584 140.356 261.541 140.573 261.456C140.791 261.371 140.961 261.252 141.081 261.1C141.201 260.947 141.261 260.772 141.261 260.575C141.261 260.391 141.207 260.236 141.097 260.11C140.99 259.985 140.833 259.878 140.625 259.79C140.419 259.702 140.167 259.622 139.868 259.55L138.975 259.325C138.283 259.157 137.737 258.894 137.336 258.536C136.936 258.179 136.737 257.697 136.74 257.09C136.737 256.594 136.869 256.16 137.136 255.789C137.406 255.418 137.776 255.128 138.246 254.92C138.716 254.711 139.25 254.607 139.848 254.607C140.456 254.607 140.988 254.711 141.442 254.92C141.898 255.128 142.253 255.418 142.507 255.789C142.761 256.16 142.891 256.59 142.899 257.078H141.237ZM144.178 262.922V254.719H145.912V258.104H149.433V254.719H151.163V262.922H149.433V259.534H145.912V262.922H144.178ZM160.13 258.821C160.13 259.715 159.961 260.476 159.622 261.104C159.285 261.731 158.826 262.21 158.244 262.541C157.665 262.87 157.013 263.034 156.289 263.034C155.561 263.034 154.906 262.868 154.327 262.537C153.748 262.206 153.29 261.727 152.953 261.1C152.617 260.472 152.449 259.712 152.449 258.821C152.449 257.926 152.617 257.165 152.953 256.538C153.29 255.91 153.748 255.432 154.327 255.104C154.906 254.773 155.561 254.607 156.289 254.607C157.013 254.607 157.665 254.773 158.244 255.104C158.826 255.432 159.285 255.91 159.622 256.538C159.961 257.165 160.13 257.926 160.13 258.821ZM158.372 258.821C158.372 258.241 158.285 257.753 158.112 257.355C157.941 256.957 157.699 256.655 157.387 256.45C157.074 256.244 156.709 256.141 156.289 256.141C155.87 256.141 155.504 256.244 155.192 256.45C154.88 256.655 154.637 256.957 154.463 257.355C154.292 257.753 154.207 258.241 154.207 258.821C154.207 259.4 154.292 259.889 154.463 260.287C154.637 260.684 154.88 260.986 155.192 261.192C155.504 261.397 155.87 261.5 156.289 261.5C156.709 261.5 157.074 261.397 157.387 261.192C157.699 260.986 157.941 260.684 158.112 260.287C158.285 259.889 158.372 259.4 158.372 258.821ZM162.953 262.922L160.606 254.719H162.5L163.858 260.419H163.926L165.424 254.719H167.046L168.54 260.431H168.612L169.97 254.719H171.864L169.517 262.922H167.827L166.265 257.559H166.201L164.643 262.922H162.953Z" fill="black"/>
<path d="M97.0746 275.594V267.391H100.311C100.933 267.391 101.463 267.51 101.901 267.748C102.339 267.983 102.672 268.31 102.902 268.729C103.134 269.146 103.25 269.626 103.25 270.171C103.25 270.716 103.133 271.196 102.898 271.613C102.663 272.029 102.323 272.354 101.877 272.586C101.433 272.818 100.897 272.934 100.267 272.934H98.2041V271.545H99.9863C100.32 271.545 100.595 271.487 100.811 271.372C101.03 271.255 101.193 271.093 101.3 270.888C101.409 270.68 101.464 270.441 101.464 270.171C101.464 269.899 101.409 269.661 101.3 269.458C101.193 269.252 101.03 269.093 100.811 268.981C100.592 268.867 100.315 268.809 99.9783 268.809H98.8088V275.594H97.0746ZM104.377 275.594V267.391H106.111V274.164H109.628V275.594H104.377ZM112.399 275.594H110.541L113.372 267.391H115.607L118.435 275.594H116.576L114.522 269.266H114.458L112.399 275.594ZM112.283 272.37H116.673V273.723H112.283V272.37ZM126.274 270.263H124.519C124.487 270.036 124.422 269.834 124.323 269.658C124.224 269.479 124.098 269.327 123.943 269.202C123.788 269.076 123.609 268.98 123.406 268.913C123.206 268.847 122.988 268.813 122.753 268.813C122.329 268.813 121.959 268.919 121.644 269.13C121.329 269.338 121.084 269.642 120.911 270.043C120.737 270.441 120.651 270.924 120.651 271.493C120.651 272.077 120.737 272.569 120.911 272.966C121.087 273.364 121.333 273.665 121.648 273.868C121.963 274.07 122.327 274.172 122.741 274.172C122.974 274.172 123.188 274.141 123.386 274.08C123.586 274.018 123.764 273.929 123.919 273.811C124.074 273.691 124.202 273.546 124.303 273.375C124.407 273.204 124.479 273.009 124.519 272.79L126.274 272.798C126.228 273.175 126.115 273.538 125.933 273.888C125.754 274.235 125.513 274.546 125.208 274.821C124.907 275.093 124.546 275.309 124.127 275.47C123.71 275.627 123.239 275.706 122.713 275.706C121.982 275.706 121.327 275.54 120.751 275.209C120.177 274.878 119.723 274.399 119.389 273.771C119.058 273.144 118.892 272.384 118.892 271.493C118.892 270.598 119.061 269.837 119.397 269.21C119.733 268.582 120.19 268.104 120.767 267.776C121.343 267.445 121.992 267.279 122.713 267.279C123.188 267.279 123.629 267.346 124.035 267.479C124.443 267.613 124.805 267.808 125.12 268.064C125.435 268.318 125.692 268.629 125.889 268.997C126.089 269.366 126.218 269.788 126.274 270.263ZM127.517 275.594V267.391H133.044V268.821H129.251V270.776H132.76V272.205H129.251V274.164H133.06V275.594H127.517ZM134.423 275.594V267.391H136.157V270.776H139.678V267.391H141.408V275.594H139.678V272.205H136.157V275.594H134.423ZM150.375 271.493C150.375 272.387 150.206 273.148 149.867 273.775C149.53 274.403 149.071 274.882 148.489 275.213C147.91 275.542 147.258 275.706 146.534 275.706C145.806 275.706 145.151 275.54 144.572 275.209C143.993 274.878 143.535 274.399 143.198 273.771C142.862 273.144 142.694 272.384 142.694 271.493C142.694 270.598 142.862 269.837 143.198 269.21C143.535 268.582 143.993 268.104 144.572 267.776C145.151 267.445 145.806 267.279 146.534 267.279C147.258 267.279 147.91 267.445 148.489 267.776C149.071 268.104 149.53 268.582 149.867 269.21C150.206 269.837 150.375 270.598 150.375 271.493ZM148.617 271.493C148.617 270.913 148.53 270.425 148.357 270.027C148.186 269.629 147.944 269.327 147.632 269.122C147.319 268.916 146.954 268.813 146.534 268.813C146.115 268.813 145.749 268.916 145.437 269.122C145.125 269.327 144.882 269.629 144.708 270.027C144.537 270.425 144.452 270.913 144.452 271.493C144.452 272.072 144.537 272.561 144.708 272.958C144.882 273.356 145.125 273.658 145.437 273.864C145.749 274.069 146.115 274.172 146.534 274.172C146.954 274.172 147.319 274.069 147.632 273.864C147.944 273.658 148.186 273.356 148.357 272.958C148.53 272.561 148.617 272.072 148.617 271.493ZM151.66 275.594V267.391H153.394V274.164H156.911V275.594H151.66ZM160.967 275.594H158.059V267.391H160.991C161.816 267.391 162.526 267.556 163.121 267.884C163.717 268.21 164.175 268.678 164.495 269.29C164.818 269.901 164.98 270.633 164.98 271.485C164.98 272.339 164.818 273.073 164.495 273.687C164.175 274.301 163.714 274.773 163.113 275.101C162.515 275.43 161.8 275.594 160.967 275.594ZM159.793 274.108H160.895C161.407 274.108 161.839 274.017 162.188 273.836C162.541 273.651 162.805 273.367 162.981 272.982C163.16 272.595 163.25 272.096 163.25 271.485C163.25 270.878 163.16 270.383 162.981 269.999C162.805 269.614 162.542 269.331 162.192 269.15C161.843 268.968 161.411 268.877 160.899 268.877H159.793V274.108ZM166.264 275.594V267.391H171.792V268.821H167.999V270.776H171.507V272.205H167.999V274.164H171.808V275.594H166.264ZM173.17 275.594V267.391H176.406C177.026 267.391 177.554 267.502 177.992 267.724C178.433 267.943 178.768 268.254 178.998 268.657C179.23 269.057 179.346 269.529 179.346 270.071C179.346 270.615 179.229 271.084 178.994 271.477C178.759 271.866 178.418 272.165 177.972 272.374C177.529 272.582 176.992 272.686 176.362 272.686H174.196V271.292H176.082C176.413 271.292 176.688 271.247 176.907 271.156C177.126 271.065 177.289 270.929 177.396 270.748C177.505 270.566 177.56 270.34 177.56 270.071C177.56 269.798 177.505 269.569 177.396 269.382C177.289 269.195 177.125 269.053 176.903 268.957C176.684 268.859 176.408 268.809 176.074 268.809H174.904V275.594H173.17ZM177.6 271.861L179.638 275.594H177.724L175.73 271.861H177.6Z" fill="black"/>
<path d="M38.6701 290.502C38.6701 289.509 38.8022 288.595 39.0666 287.759C39.3336 286.923 39.7408 286.149 40.2881 285.436H41.9182C41.7099 285.7 41.5163 286.023 41.3375 286.405C41.1586 286.784 41.0024 287.201 40.8689 287.655C40.7354 288.109 40.6312 288.579 40.5565 289.064C40.4817 289.548 40.4443 290.027 40.4443 290.502C40.4443 291.135 40.5084 291.775 40.6366 292.421C40.7674 293.064 40.9436 293.662 41.1652 294.215C41.3895 294.768 41.6405 295.22 41.9182 295.573H40.2881C39.7408 294.86 39.3336 294.086 39.0666 293.25C38.8022 292.414 38.6701 291.498 38.6701 290.502ZM42.9405 294.604V286.401H46.1766C46.7961 286.401 47.3247 286.512 47.7626 286.734C48.2032 286.952 48.5383 287.264 48.7679 287.667C49.0002 288.067 49.1163 288.538 49.1163 289.081C49.1163 289.625 48.9989 290.094 48.7639 290.486C48.5289 290.876 48.1885 291.175 47.7426 291.383C47.2994 291.592 46.7627 291.696 46.1325 291.696H43.9658V290.302H45.8522C46.1833 290.302 46.4583 290.257 46.6772 290.166C46.8962 290.075 47.0591 289.939 47.1659 289.757C47.2753 289.576 47.3301 289.35 47.3301 289.081C47.3301 288.808 47.2753 288.579 47.1659 288.392C47.0591 288.205 46.8948 288.063 46.6732 287.967C46.4543 287.868 46.1779 287.819 45.8442 287.819H44.6747V294.604H42.9405ZM47.3701 290.871L49.4087 294.604H47.4943L45.4997 290.871H47.3701ZM52.9903 294.724C52.3681 294.724 51.8301 294.592 51.3762 294.327C50.925 294.06 50.5765 293.689 50.3309 293.214C50.0852 292.736 49.9624 292.182 49.9624 291.552C49.9624 290.916 50.0852 290.361 50.3309 289.886C50.5765 289.408 50.925 289.036 51.3762 288.772C51.8301 288.505 52.3681 288.372 52.9903 288.372C53.6124 288.372 54.1491 288.505 54.6003 288.772C55.0542 289.036 55.404 289.408 55.6496 289.886C55.8953 290.361 56.0181 290.916 56.0181 291.552C56.0181 292.182 55.8953 292.736 55.6496 293.214C55.404 293.689 55.0542 294.06 54.6003 294.327C54.1491 294.592 53.6124 294.724 52.9903 294.724ZM52.9983 293.402C53.2813 293.402 53.5176 293.322 53.7072 293.162C53.8967 292.999 54.0396 292.777 54.1357 292.497C54.2345 292.216 54.2839 291.897 54.2839 291.54C54.2839 291.182 54.2345 290.863 54.1357 290.582C54.0396 290.302 53.8967 290.08 53.7072 289.918C53.5176 289.755 53.2813 289.673 52.9983 289.673C52.7126 289.673 52.4723 289.755 52.2773 289.918C52.0851 290.08 51.9396 290.302 51.8408 290.582C51.7447 290.863 51.6966 291.182 51.6966 291.54C51.6966 291.897 51.7447 292.216 51.8408 292.497C51.9396 292.777 52.0851 292.999 52.2773 293.162C52.4723 293.322 52.7126 293.402 52.9983 293.402ZM60.3997 288.452V289.733H56.695V288.452H60.3997ZM57.536 286.978H59.2422V292.713C59.2422 292.871 59.2662 292.993 59.3143 293.082C59.3623 293.167 59.4291 293.227 59.5145 293.262C59.6026 293.297 59.7041 293.314 59.8189 293.314C59.899 293.314 59.9791 293.307 60.0592 293.294C60.1393 293.278 60.2007 293.266 60.2435 293.258L60.5118 294.527C60.4264 294.554 60.3062 294.585 60.1513 294.62C59.9965 294.657 59.8082 294.68 59.5866 294.688C59.1754 294.704 58.815 294.649 58.5053 294.523C58.1982 294.398 57.9592 294.203 57.7883 293.939C57.6175 293.674 57.5334 293.341 57.536 292.937V286.978ZM63.2653 294.72C62.8728 294.72 62.523 294.652 62.216 294.515C61.9089 294.377 61.6659 294.172 61.487 293.903C61.3108 293.63 61.2227 293.291 61.2227 292.885C61.2227 292.544 61.2855 292.257 61.4109 292.024C61.5364 291.792 61.7073 291.605 61.9236 291.464C62.1399 291.322 62.3855 291.215 62.6605 291.143C62.9382 291.071 63.2293 291.02 63.5336 290.991C63.8914 290.954 64.1798 290.919 64.3987 290.887C64.6177 290.852 64.7766 290.801 64.8753 290.735C64.9741 290.668 65.0235 290.569 65.0235 290.438V290.414C65.0235 290.161 64.9434 289.964 64.7832 289.825C64.6257 289.687 64.4014 289.617 64.1104 289.617C63.8033 289.617 63.559 289.685 63.3774 289.821C63.1959 289.955 63.0757 290.123 63.017 290.326L61.439 290.198C61.5191 289.824 61.6766 289.501 61.9116 289.229C62.1465 288.954 62.4496 288.743 62.8207 288.596C63.1945 288.446 63.6271 288.372 64.1184 288.372C64.4602 288.372 64.7872 288.412 65.0996 288.492C65.4147 288.572 65.6937 288.696 65.9367 288.864C66.1823 289.032 66.3759 289.249 66.5174 289.513C66.6589 289.775 66.7297 290.088 66.7297 290.454V294.604H65.1116V293.75H65.0636C64.9648 293.943 64.8326 294.112 64.6671 294.259C64.5015 294.403 64.3026 294.517 64.0703 294.6C63.838 294.68 63.5697 294.72 63.2653 294.72ZM63.7539 293.542C64.0049 293.542 64.2265 293.493 64.4188 293.394C64.611 293.293 64.7619 293.156 64.8713 292.985C64.9808 292.815 65.0355 292.621 65.0355 292.405V291.752C64.9821 291.787 64.9087 291.819 64.8153 291.848C64.7245 291.875 64.6217 291.9 64.5069 291.924C64.3921 291.945 64.2773 291.965 64.1624 291.984C64.0476 292 63.9435 292.015 63.85 292.028C63.6498 292.058 63.4749 292.104 63.3254 292.168C63.1759 292.233 63.0597 292.319 62.9769 292.429C62.8942 292.536 62.8528 292.669 62.8528 292.829C62.8528 293.062 62.9369 293.239 63.1051 293.362C63.276 293.482 63.4923 293.542 63.7539 293.542ZM71.3255 288.452V289.733H67.6208V288.452H71.3255ZM68.4619 286.978H70.1681V292.713C70.1681 292.871 70.1921 292.993 70.2402 293.082C70.2882 293.167 70.355 293.227 70.4404 293.262C70.5285 293.297 70.63 293.314 70.7448 293.314C70.8249 293.314 70.905 293.307 70.9851 293.294C71.0652 293.278 71.1266 293.266 71.1693 293.258L71.4377 294.527C71.3522 294.554 71.2321 294.585 71.0772 294.62C70.9224 294.657 70.7341 294.68 70.5125 294.688C70.1013 294.704 69.7409 294.649 69.4311 294.523C69.1241 294.398 68.8851 294.203 68.7142 293.939C68.5433 293.674 68.4592 293.341 68.4619 292.937V286.978ZM72.4369 294.604V288.452H74.1431V294.604H72.4369ZM73.294 287.659C73.0404 287.659 72.8228 287.575 72.6412 287.406C72.4623 287.235 72.3729 287.031 72.3729 286.794C72.3729 286.559 72.4623 286.357 72.6412 286.189C72.8228 286.018 73.0404 285.933 73.294 285.933C73.5477 285.933 73.764 286.018 73.9429 286.189C74.1244 286.357 74.2152 286.559 74.2152 286.794C74.2152 287.031 74.1244 287.235 73.9429 287.406C73.764 287.575 73.5477 287.659 73.294 287.659ZM77.216 291.047V294.604H75.5099V288.452H77.1359V289.537H77.208C77.3442 289.179 77.5725 288.896 77.8929 288.688C78.2133 288.477 78.6018 288.372 79.0584 288.372C79.4856 288.372 79.858 288.465 80.1758 288.652C80.4935 288.839 80.7405 289.106 80.9167 289.453C81.0929 289.797 81.1811 290.209 81.1811 290.687V294.604H79.4749V290.991C79.4776 290.614 79.3814 290.321 79.1865 290.11C78.9916 289.896 78.7233 289.789 78.3815 289.789C78.1519 289.789 77.9489 289.839 77.7727 289.938C77.5992 290.036 77.463 290.181 77.3642 290.37C77.2681 290.557 77.2187 290.783 77.216 291.047ZM85.2973 297.039C84.7446 297.039 84.2706 296.963 83.8755 296.81C83.483 296.661 83.1706 296.457 82.9383 296.198C82.706 295.939 82.5551 295.648 82.4857 295.324L84.0637 295.112C84.1118 295.235 84.1879 295.35 84.292 295.457C84.3961 295.563 84.5336 295.649 84.7045 295.713C84.8781 295.78 85.089 295.813 85.3373 295.813C85.7085 295.813 86.0142 295.722 86.2545 295.541C86.4975 295.362 86.619 295.061 86.619 294.64V293.514H86.5469C86.4721 293.685 86.36 293.847 86.2104 293.999C86.0609 294.151 85.8687 294.275 85.6337 294.371C85.3987 294.467 85.1184 294.515 84.7926 294.515C84.3307 294.515 83.9102 294.409 83.531 294.195C83.1546 293.979 82.8542 293.649 82.6299 293.206C82.4083 292.76 82.2975 292.196 82.2975 291.516C82.2975 290.819 82.4109 290.237 82.6379 289.769C82.8649 289.302 83.1666 288.952 83.5431 288.72C83.9222 288.488 84.3374 288.372 84.7886 288.372C85.1331 288.372 85.4214 288.43 85.6537 288.548C85.886 288.663 86.0729 288.807 86.2144 288.98C86.3586 289.151 86.4694 289.319 86.5469 289.485H86.6109V288.452H88.3051V294.664C88.3051 295.187 88.1769 295.625 87.9206 295.977C87.6643 296.33 87.3092 296.594 86.8553 296.77C86.404 296.949 85.8847 297.039 85.2973 297.039ZM85.3333 293.234C85.6083 293.234 85.8406 293.166 86.0302 293.03C86.2225 292.891 86.3693 292.693 86.4708 292.437C86.5749 292.178 86.627 291.868 86.627 291.508C86.627 291.147 86.5762 290.835 86.4748 290.57C86.3733 290.303 86.2265 290.096 86.0342 289.95C85.842 289.803 85.6083 289.729 85.3333 289.729C85.053 289.729 84.8167 289.805 84.6244 289.958C84.4322 290.107 84.2867 290.315 84.1879 290.582C84.0891 290.849 84.0397 291.158 84.0397 291.508C84.0397 291.863 84.0891 292.17 84.1879 292.429C84.2893 292.685 84.4349 292.884 84.6244 293.026C84.8167 293.164 85.053 293.234 85.3333 293.234ZM97.3916 290.206L95.8297 290.302C95.803 290.169 95.7455 290.048 95.6574 289.942C95.5693 289.832 95.4532 289.745 95.309 289.681C95.1675 289.615 94.9979 289.581 94.8003 289.581C94.536 289.581 94.3131 289.637 94.1315 289.749C93.9499 289.859 93.8592 290.006 93.8592 290.19C93.8592 290.337 93.9179 290.461 94.0354 290.562C94.1529 290.664 94.3544 290.745 94.6401 290.807L95.7536 291.031C96.3517 291.154 96.7976 291.351 97.0913 291.624C97.385 291.896 97.5318 292.254 97.5318 292.697C97.5318 293.1 97.413 293.454 97.1754 293.758C96.9404 294.063 96.6173 294.3 96.2061 294.471C95.7976 294.64 95.3263 294.724 94.7923 294.724C93.978 294.724 93.3291 294.554 92.8459 294.215C92.3653 293.873 92.0836 293.409 92.0008 292.821L93.6789 292.733C93.7297 292.981 93.8525 293.171 94.0474 293.302C94.2423 293.43 94.492 293.494 94.7963 293.494C95.0954 293.494 95.3357 293.437 95.5173 293.322C95.7015 293.204 95.7949 293.054 95.7976 292.869C95.7949 292.714 95.7295 292.588 95.6014 292.489C95.4732 292.387 95.2756 292.31 95.0086 292.257L93.9433 292.044C93.3425 291.924 92.8953 291.716 92.6016 291.419C92.3105 291.123 92.165 290.745 92.165 290.286C92.165 289.891 92.2718 289.55 92.4854 289.265C92.7017 288.979 93.0047 288.759 93.3946 288.604C93.7871 288.449 94.2463 288.372 94.7723 288.372C95.5493 288.372 96.1607 288.536 96.6066 288.864C97.0552 289.193 97.3169 289.64 97.3916 290.206ZM100.312 286.401V294.604H98.6062V286.401H100.312ZM101.679 294.604V288.452H103.385V294.604H101.679ZM102.536 287.659C102.283 287.659 102.065 287.575 101.883 287.406C101.704 287.235 101.615 287.031 101.615 286.794C101.615 286.559 101.704 286.357 101.883 286.189C102.065 286.018 102.283 285.933 102.536 285.933C102.79 285.933 103.006 286.018 103.185 286.189C103.367 286.357 103.457 286.559 103.457 286.794C103.457 287.031 103.367 287.235 103.185 287.406C103.006 287.575 102.79 287.659 102.536 287.659ZM107.019 294.704C106.552 294.704 106.128 294.583 105.749 294.343C105.373 294.1 105.074 293.744 104.852 293.274C104.633 292.801 104.524 292.222 104.524 291.536C104.524 290.831 104.637 290.245 104.864 289.777C105.091 289.307 105.393 288.956 105.769 288.724C106.148 288.489 106.564 288.372 107.015 288.372C107.359 288.372 107.646 288.43 107.876 288.548C108.108 288.663 108.295 288.807 108.437 288.98C108.581 289.151 108.69 289.319 108.765 289.485H108.817V286.401H110.519V294.604H108.837V293.618H108.765C108.685 293.789 108.572 293.959 108.425 294.127C108.28 294.292 108.092 294.43 107.86 294.539C107.63 294.649 107.35 294.704 107.019 294.704ZM107.56 293.346C107.835 293.346 108.067 293.271 108.256 293.122C108.449 292.969 108.596 292.757 108.697 292.485C108.801 292.212 108.853 291.893 108.853 291.528C108.853 291.162 108.802 290.844 108.701 290.574C108.6 290.305 108.453 290.096 108.26 289.95C108.068 289.803 107.835 289.729 107.56 289.729C107.279 289.729 107.043 289.805 106.851 289.958C106.658 290.11 106.513 290.321 106.414 290.59C106.315 290.86 106.266 291.172 106.266 291.528C106.266 291.885 106.315 292.202 106.414 292.477C106.516 292.749 106.661 292.963 106.851 293.118C107.043 293.27 107.279 293.346 107.56 293.346ZM114.726 294.724C114.093 294.724 113.548 294.596 113.092 294.339C112.638 294.08 112.288 293.714 112.042 293.242C111.797 292.767 111.674 292.204 111.674 291.556C111.674 290.923 111.797 290.367 112.042 289.89C112.288 289.412 112.634 289.039 113.08 288.772C113.528 288.505 114.054 288.372 114.658 288.372C115.063 288.372 115.441 288.437 115.791 288.568C116.143 288.696 116.451 288.89 116.712 289.149C116.977 289.408 117.182 289.733 117.329 290.126C117.476 290.516 117.549 290.972 117.549 291.496V291.964H112.355V290.907H115.943C115.943 290.661 115.89 290.444 115.783 290.254C115.676 290.064 115.528 289.916 115.338 289.809C115.152 289.7 114.934 289.645 114.686 289.645C114.427 289.645 114.197 289.705 113.997 289.825C113.799 289.943 113.644 290.102 113.532 290.302C113.42 290.5 113.363 290.72 113.36 290.963V291.968C113.36 292.273 113.416 292.536 113.528 292.757C113.643 292.979 113.804 293.15 114.013 293.27C114.221 293.39 114.468 293.45 114.754 293.45C114.943 293.45 115.117 293.423 115.274 293.37C115.432 293.317 115.567 293.236 115.679 293.13C115.791 293.023 115.876 292.892 115.935 292.737L117.513 292.841C117.433 293.22 117.269 293.552 117.021 293.835C116.775 294.115 116.457 294.334 116.067 294.491C115.68 294.646 115.233 294.724 114.726 294.724ZM123.781 290.206L122.219 290.302C122.192 290.169 122.135 290.048 122.047 289.942C121.959 289.832 121.843 289.745 121.699 289.681C121.557 289.615 121.387 289.581 121.19 289.581C120.926 289.581 120.703 289.637 120.521 289.749C120.339 289.859 120.249 290.006 120.249 290.19C120.249 290.337 120.307 290.461 120.425 290.562C120.542 290.664 120.744 290.745 121.03 290.807L122.143 291.031C122.741 291.154 123.187 291.351 123.481 291.624C123.774 291.896 123.921 292.254 123.921 292.697C123.921 293.1 123.803 293.454 123.565 293.758C123.33 294.063 123.007 294.3 122.596 294.471C122.187 294.64 121.716 294.724 121.182 294.724C120.367 294.724 119.719 294.554 119.235 294.215C118.755 293.873 118.473 293.409 118.39 292.821L120.068 292.733C120.119 292.981 120.242 293.171 120.437 293.302C120.632 293.43 120.881 293.494 121.186 293.494C121.485 293.494 121.725 293.437 121.907 293.322C122.091 293.204 122.184 293.054 122.187 292.869C122.184 292.714 122.119 292.588 121.991 292.489C121.863 292.387 121.665 292.31 121.398 292.257L120.333 292.044C119.732 291.924 119.285 291.716 118.991 291.419C118.7 291.123 118.555 290.745 118.555 290.286C118.555 289.891 118.661 289.55 118.875 289.265C119.091 288.979 119.394 288.759 119.784 288.604C120.177 288.449 120.636 288.372 121.162 288.372C121.939 288.372 122.55 288.536 122.996 288.864C123.445 289.193 123.706 289.64 123.781 290.206ZM130.386 294.724C129.755 294.724 129.213 294.59 128.759 294.323C128.308 294.053 127.961 293.68 127.718 293.202C127.478 292.724 127.358 292.174 127.358 291.552C127.358 290.922 127.479 290.369 127.722 289.894C127.968 289.416 128.316 289.043 128.767 288.776C129.219 288.506 129.755 288.372 130.378 288.372C130.914 288.372 131.384 288.469 131.787 288.664C132.19 288.859 132.51 289.133 132.745 289.485C132.979 289.837 133.109 290.251 133.133 290.727H131.523C131.478 290.42 131.357 290.173 131.163 289.986C130.97 289.796 130.718 289.701 130.406 289.701C130.141 289.701 129.91 289.773 129.713 289.918C129.518 290.059 129.366 290.266 129.256 290.538C129.147 290.811 129.092 291.14 129.092 291.528C129.092 291.92 129.145 292.254 129.252 292.529C129.362 292.804 129.515 293.013 129.713 293.158C129.91 293.302 130.141 293.374 130.406 293.374C130.6 293.374 130.775 293.334 130.93 293.254C131.088 293.174 131.217 293.058 131.319 292.905C131.423 292.75 131.491 292.565 131.523 292.349H133.133C133.106 292.819 132.978 293.232 132.749 293.59C132.522 293.945 132.208 294.223 131.807 294.423C131.407 294.624 130.933 294.724 130.386 294.724ZM135.279 296.91C135.062 296.91 134.86 296.893 134.67 296.858C134.483 296.826 134.328 296.785 134.205 296.734L134.59 295.461C134.79 295.522 134.97 295.555 135.131 295.561C135.293 295.566 135.434 295.529 135.551 295.449C135.671 295.368 135.769 295.232 135.843 295.04L135.944 294.78L133.737 288.452H135.531L136.805 292.969H136.869L138.154 288.452H139.961L137.57 295.268C137.455 295.599 137.299 295.888 137.101 296.133C136.906 296.382 136.659 296.573 136.36 296.706C136.061 296.842 135.701 296.91 135.279 296.91ZM143.415 294.724C142.785 294.724 142.243 294.59 141.789 294.323C141.338 294.053 140.991 293.68 140.748 293.202C140.507 292.724 140.387 292.174 140.387 291.552C140.387 290.922 140.509 290.369 140.752 289.894C140.997 289.416 141.346 289.043 141.797 288.776C142.248 288.506 142.785 288.372 143.407 288.372C143.944 288.372 144.414 288.469 144.817 288.664C145.22 288.859 145.539 289.133 145.774 289.485C146.009 289.837 146.139 290.251 146.163 290.727H144.553C144.507 290.42 144.387 290.173 144.192 289.986C144 289.796 143.748 289.701 143.435 289.701C143.171 289.701 142.94 289.773 142.742 289.918C142.547 290.059 142.395 290.266 142.286 290.538C142.176 290.811 142.121 291.14 142.121 291.528C142.121 291.92 142.175 292.254 142.282 292.529C142.391 292.804 142.545 293.013 142.742 293.158C142.94 293.302 143.171 293.374 143.435 293.374C143.63 293.374 143.805 293.334 143.96 293.254C144.117 293.174 144.247 293.058 144.348 292.905C144.452 292.75 144.52 292.565 144.553 292.349H146.163C146.136 292.819 146.008 293.232 145.778 293.59C145.551 293.945 145.237 294.223 144.837 294.423C144.436 294.624 143.962 294.724 143.415 294.724ZM148.961 286.401V294.604H147.255V286.401H148.961ZM153.131 294.724C152.499 294.724 151.954 294.596 151.497 294.339C151.043 294.08 150.694 293.714 150.448 293.242C150.202 292.767 150.08 292.204 150.08 291.556C150.08 290.923 150.202 290.367 150.448 289.89C150.694 289.412 151.039 289.039 151.485 288.772C151.934 288.505 152.46 288.372 153.063 288.372C153.469 288.372 153.847 288.437 154.197 288.568C154.549 288.696 154.856 288.89 155.118 289.149C155.382 289.408 155.588 289.733 155.735 290.126C155.882 290.516 155.955 290.972 155.955 291.496V291.964H150.76V290.907H154.349C154.349 290.661 154.296 290.444 154.189 290.254C154.082 290.064 153.934 289.916 153.744 289.809C153.557 289.7 153.34 289.645 153.091 289.645C152.832 289.645 152.603 289.705 152.402 289.825C152.205 289.943 152.05 290.102 151.938 290.302C151.826 290.5 151.768 290.72 151.766 290.963V291.968C151.766 292.273 151.822 292.536 151.934 292.757C152.049 292.979 152.21 293.15 152.419 293.27C152.627 293.39 152.874 293.45 153.159 293.45C153.349 293.45 153.523 293.423 153.68 293.37C153.838 293.317 153.972 293.236 154.085 293.13C154.197 293.023 154.282 292.892 154.341 292.737L155.919 292.841C155.839 293.22 155.675 293.552 155.426 293.835C155.181 294.115 154.863 294.334 154.473 294.491C154.086 294.646 153.639 294.724 153.131 294.724ZM161.433 294.72C161.04 294.72 160.691 294.652 160.384 294.515C160.077 294.377 159.834 294.172 159.655 293.903C159.478 293.63 159.39 293.291 159.39 292.885C159.39 292.544 159.453 292.257 159.579 292.024C159.704 291.792 159.875 291.605 160.091 291.464C160.308 291.322 160.553 291.215 160.828 291.143C161.106 291.071 161.397 291.02 161.701 290.991C162.059 290.954 162.347 290.919 162.566 290.887C162.785 290.852 162.944 290.801 163.043 290.735C163.142 290.668 163.191 290.569 163.191 290.438V290.414C163.191 290.161 163.111 289.964 162.951 289.825C162.793 289.687 162.569 289.617 162.278 289.617C161.971 289.617 161.727 289.685 161.545 289.821C161.364 289.955 161.243 290.123 161.185 290.326L159.607 290.198C159.687 289.824 159.844 289.501 160.079 289.229C160.314 288.954 160.617 288.743 160.988 288.596C161.362 288.446 161.795 288.372 162.286 288.372C162.628 288.372 162.955 288.412 163.267 288.492C163.582 288.572 163.861 288.696 164.104 288.864C164.35 289.032 164.544 289.249 164.685 289.513C164.827 289.775 164.897 290.088 164.897 290.454V294.604H163.279V293.75H163.231C163.132 293.943 163 294.112 162.835 294.259C162.669 294.403 162.47 294.517 162.238 294.6C162.006 294.68 161.737 294.72 161.433 294.72ZM161.922 293.542C162.173 293.542 162.394 293.493 162.586 293.394C162.779 293.293 162.93 293.156 163.039 292.985C163.148 292.815 163.203 292.621 163.203 292.405V291.752C163.15 291.787 163.076 291.819 162.983 291.848C162.892 291.875 162.789 291.9 162.675 291.924C162.56 291.945 162.445 291.965 162.33 291.984C162.215 292 162.111 292.015 162.018 292.028C161.817 292.058 161.643 292.104 161.493 292.168C161.344 292.233 161.227 292.319 161.145 292.429C161.062 292.536 161.02 292.669 161.02 292.829C161.02 293.062 161.105 293.239 161.273 293.362C161.444 293.482 161.66 293.542 161.922 293.542ZM170.166 291.984V288.452H171.872V294.604H170.234V293.486H170.17C170.031 293.847 169.8 294.136 169.477 294.355C169.157 294.574 168.766 294.684 168.304 294.684C167.892 294.684 167.531 294.59 167.218 294.403C166.906 294.216 166.662 293.951 166.485 293.606C166.312 293.262 166.224 292.849 166.221 292.369V288.452H167.927V292.064C167.93 292.427 168.027 292.714 168.22 292.925C168.412 293.136 168.669 293.242 168.993 293.242C169.198 293.242 169.39 293.195 169.569 293.102C169.748 293.005 169.892 292.864 170.002 292.677C170.114 292.49 170.169 292.259 170.166 291.984ZM176.509 288.452V289.733H172.804V288.452H176.509ZM173.645 286.978H175.352V292.713C175.352 292.871 175.376 292.993 175.424 293.082C175.472 293.167 175.539 293.227 175.624 293.262C175.712 293.297 175.814 293.314 175.928 293.314C176.008 293.314 176.089 293.307 176.169 293.294C176.249 293.278 176.31 293.266 176.353 293.258L176.621 294.527C176.536 294.554 176.416 294.585 176.261 294.62C176.106 294.657 175.918 294.68 175.696 294.688C175.285 294.704 174.924 294.649 174.615 294.523C174.308 294.398 174.069 294.203 173.898 293.939C173.727 293.674 173.643 293.341 173.645 292.937V286.978ZM180.334 294.724C179.712 294.724 179.174 294.592 178.72 294.327C178.269 294.06 177.92 293.689 177.675 293.214C177.429 292.736 177.306 292.182 177.306 291.552C177.306 290.916 177.429 290.361 177.675 289.886C177.92 289.408 178.269 289.036 178.72 288.772C179.174 288.505 179.712 288.372 180.334 288.372C180.956 288.372 181.493 288.505 181.944 288.772C182.398 289.036 182.748 289.408 182.993 289.886C183.239 290.361 183.362 290.916 183.362 291.552C183.362 292.182 183.239 292.736 182.993 293.214C182.748 293.689 182.398 294.06 181.944 294.327C181.493 294.592 180.956 294.724 180.334 294.724ZM180.342 293.402C180.625 293.402 180.861 293.322 181.051 293.162C181.24 292.999 181.383 292.777 181.479 292.497C181.578 292.216 181.628 291.897 181.628 291.54C181.628 291.182 181.578 290.863 181.479 290.582C181.383 290.302 181.24 290.08 181.051 289.918C180.861 289.755 180.625 289.673 180.342 289.673C180.056 289.673 179.816 289.755 179.621 289.918C179.429 290.08 179.283 290.302 179.185 290.582C179.088 290.863 179.04 291.182 179.04 291.54C179.04 291.897 179.088 292.216 179.185 292.497C179.283 292.777 179.429 292.999 179.621 293.162C179.816 293.322 180.056 293.402 180.342 293.402ZM184.471 294.604V288.452H186.097V289.537H186.169C186.298 289.177 186.511 288.892 186.81 288.684C187.109 288.476 187.467 288.372 187.884 288.372C188.305 288.372 188.665 288.477 188.961 288.688C189.257 288.896 189.455 289.179 189.554 289.537H189.618C189.743 289.185 189.97 288.903 190.299 288.692C190.63 288.478 191.021 288.372 191.472 288.372C192.046 288.372 192.512 288.555 192.87 288.92C193.23 289.283 193.411 289.799 193.411 290.466V294.604H191.708V290.803C191.708 290.461 191.618 290.205 191.436 290.034C191.254 289.863 191.028 289.777 190.755 289.777C190.445 289.777 190.204 289.876 190.03 290.074C189.857 290.269 189.77 290.526 189.77 290.847V294.604H188.116V290.767C188.116 290.465 188.029 290.225 187.856 290.046C187.685 289.867 187.459 289.777 187.179 289.777C186.989 289.777 186.818 289.825 186.666 289.922C186.516 290.015 186.398 290.147 186.31 290.318C186.221 290.486 186.177 290.684 186.177 290.911V294.604H184.471ZM196.513 294.72C196.12 294.72 195.77 294.652 195.463 294.515C195.156 294.377 194.913 294.172 194.734 293.903C194.558 293.63 194.47 293.291 194.47 292.885C194.47 292.544 194.533 292.257 194.658 292.024C194.784 291.792 194.955 291.605 195.171 291.464C195.387 291.322 195.633 291.215 195.908 291.143C196.185 291.071 196.476 291.02 196.781 290.991C197.139 290.954 197.427 290.919 197.646 290.887C197.865 290.852 198.024 290.801 198.123 290.735C198.221 290.668 198.271 290.569 198.271 290.438V290.414C198.271 290.161 198.191 289.964 198.03 289.825C197.873 289.687 197.649 289.617 197.358 289.617C197.051 289.617 196.806 289.685 196.625 289.821C196.443 289.955 196.323 290.123 196.264 290.326L194.686 290.198C194.766 289.824 194.924 289.501 195.159 289.229C195.394 288.954 195.697 288.743 196.068 288.596C196.442 288.446 196.874 288.372 197.366 288.372C197.707 288.372 198.034 288.412 198.347 288.492C198.662 288.572 198.941 288.696 199.184 288.864C199.43 289.032 199.623 289.249 199.765 289.513C199.906 289.775 199.977 290.088 199.977 290.454V294.604H198.359V293.75H198.311C198.212 293.943 198.08 294.112 197.914 294.259C197.749 294.403 197.55 294.517 197.318 294.6C197.085 294.68 196.817 294.72 196.513 294.72ZM197.001 293.542C197.252 293.542 197.474 293.493 197.666 293.394C197.858 293.293 198.009 293.156 198.119 292.985C198.228 292.815 198.283 292.621 198.283 292.405V291.752C198.229 291.787 198.156 291.819 198.062 291.848C197.972 291.875 197.869 291.9 197.754 291.924C197.639 291.945 197.524 291.965 197.41 291.984C197.295 292 197.191 292.015 197.097 292.028C196.897 292.058 196.722 292.104 196.573 292.168C196.423 292.233 196.307 292.319 196.224 292.429C196.141 292.536 196.1 292.669 196.1 292.829C196.1 293.062 196.184 293.239 196.352 293.362C196.523 293.482 196.739 293.542 197.001 293.542ZM204.573 288.452V289.733H200.868V288.452H204.573ZM201.709 286.978H203.415V292.713C203.415 292.871 203.439 292.993 203.487 293.082C203.535 293.167 203.602 293.227 203.688 293.262C203.776 293.297 203.877 293.314 203.992 293.314C204.072 293.314 204.152 293.307 204.232 293.294C204.312 293.278 204.374 293.266 204.417 293.258L204.685 294.527C204.599 294.554 204.479 294.585 204.324 294.62C204.17 294.657 203.981 294.68 203.76 294.688C203.349 294.704 202.988 294.649 202.678 294.523C202.371 294.398 202.132 294.203 201.961 293.939C201.791 293.674 201.706 293.341 201.709 292.937V286.978ZM205.684 294.604V288.452H207.39V294.604H205.684ZM206.541 287.659C206.288 287.659 206.07 287.575 205.888 287.406C205.71 287.235 205.62 287.031 205.62 286.794C205.62 286.559 205.71 286.357 205.888 286.189C206.07 286.018 206.288 285.933 206.541 285.933C206.795 285.933 207.011 286.018 207.19 286.189C207.372 286.357 207.462 286.559 207.462 286.794C207.462 287.031 207.372 287.235 207.19 287.406C207.011 287.575 206.795 287.659 206.541 287.659ZM211.537 294.724C210.906 294.724 210.364 294.59 209.911 294.323C209.459 294.053 209.112 293.68 208.869 293.202C208.629 292.724 208.509 292.174 208.509 291.552C208.509 290.922 208.63 290.369 208.873 289.894C209.119 289.416 209.467 289.043 209.919 288.776C210.37 288.506 210.906 288.372 211.529 288.372C212.065 288.372 212.535 288.469 212.938 288.664C213.342 288.859 213.661 289.133 213.896 289.485C214.131 289.837 214.26 290.251 214.284 290.727H212.674C212.629 290.42 212.508 290.173 212.314 289.986C212.121 289.796 211.869 289.701 211.557 289.701C211.292 289.701 211.061 289.773 210.864 289.918C210.669 290.059 210.517 290.266 210.407 290.538C210.298 290.811 210.243 291.14 210.243 291.528C210.243 291.92 210.296 292.254 210.403 292.529C210.513 292.804 210.666 293.013 210.864 293.158C211.061 293.302 211.292 293.374 211.557 293.374C211.752 293.374 211.926 293.334 212.081 293.254C212.239 293.174 212.368 293.058 212.47 292.905C212.574 292.75 212.642 292.565 212.674 292.349H214.284C214.257 292.819 214.129 293.232 213.9 293.59C213.673 293.945 213.359 294.223 212.958 294.423C212.558 294.624 212.084 294.724 211.537 294.724ZM217.131 294.72C216.738 294.72 216.388 294.652 216.081 294.515C215.774 294.377 215.531 294.172 215.352 293.903C215.176 293.63 215.088 293.291 215.088 292.885C215.088 292.544 215.151 292.257 215.276 292.024C215.402 291.792 215.573 291.605 215.789 291.464C216.005 291.322 216.251 291.215 216.526 291.143C216.804 291.071 217.095 291.02 217.399 290.991C217.757 290.954 218.045 290.919 218.264 290.887C218.483 290.852 218.642 290.801 218.741 290.735C218.84 290.668 218.889 290.569 218.889 290.438V290.414C218.889 290.161 218.809 289.964 218.649 289.825C218.491 289.687 218.267 289.617 217.976 289.617C217.669 289.617 217.424 289.685 217.243 289.821C217.061 289.955 216.941 290.123 216.882 290.326L215.304 290.198C215.384 289.824 215.542 289.501 215.777 289.229C216.012 288.954 216.315 288.743 216.686 288.596C217.06 288.446 217.492 288.372 217.984 288.372C218.326 288.372 218.653 288.412 218.965 288.492C219.28 288.572 219.559 288.696 219.802 288.864C220.048 289.032 220.241 289.249 220.383 289.513C220.524 289.775 220.595 290.088 220.595 290.454V294.604H218.977V293.75H218.929C218.83 293.943 218.698 294.112 218.532 294.259C218.367 294.403 218.168 294.517 217.936 294.6C217.703 294.68 217.435 294.72 217.131 294.72ZM217.619 293.542C217.87 293.542 218.092 293.493 218.284 293.394C218.476 293.293 218.627 293.156 218.737 292.985C218.846 292.815 218.901 292.621 218.901 292.405V291.752C218.848 291.787 218.774 291.819 218.681 291.848C218.59 291.875 218.487 291.9 218.372 291.924C218.257 291.945 218.143 291.965 218.028 291.984C217.913 292 217.809 292.015 217.715 292.028C217.515 292.058 217.34 292.104 217.191 292.168C217.041 292.233 216.925 292.319 216.842 292.429C216.76 292.536 216.718 292.669 216.718 292.829C216.718 293.062 216.802 293.239 216.97 293.362C217.141 293.482 217.358 293.542 217.619 293.542ZM223.625 286.401V294.604H221.919V286.401H223.625ZM226.698 286.401V294.604H224.992V286.401H226.698ZM229.118 296.91C228.902 296.91 228.699 296.893 228.509 296.858C228.322 296.826 228.167 296.785 228.045 296.734L228.429 295.461C228.629 295.522 228.81 295.555 228.97 295.561C229.133 295.566 229.273 295.529 229.39 295.449C229.51 295.368 229.608 295.232 229.683 295.04L229.783 294.78L227.576 288.452H229.37L230.644 292.969H230.708L231.994 288.452H233.8L231.409 295.268C231.294 295.599 231.138 295.888 230.94 296.133C230.745 296.382 230.498 296.573 230.199 296.706C229.9 296.842 229.54 296.91 229.118 296.91ZM237.549 291.315C237.549 292.311 237.415 293.227 237.148 294.063C236.884 294.899 236.478 295.673 235.931 296.386H234.3C234.509 296.121 234.702 295.798 234.881 295.417C235.06 295.035 235.216 294.618 235.35 294.167C235.483 293.713 235.587 293.243 235.662 292.757C235.737 292.271 235.774 291.791 235.774 291.315C235.774 290.683 235.709 290.044 235.578 289.401C235.45 288.755 235.274 288.157 235.049 287.607C234.828 287.054 234.578 286.601 234.3 286.249H235.931C236.478 286.962 236.884 287.736 237.148 288.572C237.415 289.408 237.549 290.322 237.549 291.315Z" fill="black"/>
<path d="M202.051 314.273H74.1709V334.549H202.051V314.273Z" stroke="#999999" stroke-width="0.253445" stroke-dasharray="1.27 1.27"/>
<path d="M93.1614 330.969L94.8396 320.832H97.9996L97.7873 322.106H96.2734L95.0238 329.692H96.5377L96.3214 330.969H93.1614ZM100.883 323.227L101.124 321.798H107.86L107.62 323.227H105.109L103.987 330H102.273L103.394 323.227H100.883ZM109.471 330.12C108.844 330.12 108.324 329.987 107.913 329.72C107.502 329.45 107.212 329.076 107.044 328.598C106.879 328.118 106.848 327.558 106.952 326.92C107.053 326.29 107.264 325.739 107.585 325.266C107.905 324.793 108.312 324.426 108.806 324.165C109.3 323.9 109.857 323.768 110.476 323.768C111.101 323.768 111.619 323.903 112.03 324.173C112.442 324.44 112.731 324.813 112.899 325.294C113.068 325.775 113.1 326.334 112.996 326.972C112.891 327.6 112.678 328.15 112.355 328.622C112.032 329.095 111.625 329.463 111.133 329.728C110.642 329.989 110.088 330.12 109.471 330.12ZM109.639 328.798C109.928 328.798 110.183 328.717 110.404 328.554C110.629 328.389 110.814 328.164 110.961 327.881C111.111 327.596 111.215 327.273 111.273 326.912C111.332 326.557 111.336 326.242 111.285 325.967C111.235 325.689 111.128 325.47 110.965 325.31C110.805 325.15 110.585 325.07 110.304 325.07C110.016 325.07 109.76 325.153 109.535 325.318C109.311 325.481 109.125 325.705 108.979 325.991C108.832 326.277 108.729 326.601 108.67 326.964C108.614 327.317 108.61 327.632 108.658 327.909C108.706 328.184 108.812 328.402 108.975 328.562C109.137 328.72 109.359 328.798 109.639 328.798ZM117.982 327.381L118.571 323.848H120.277L119.252 330H117.613L117.798 328.883H117.734C117.544 329.243 117.268 329.533 116.905 329.752C116.541 329.971 116.129 330.08 115.667 330.08C115.256 330.08 114.909 329.987 114.626 329.8C114.345 329.613 114.146 329.347 114.029 329.003C113.911 328.658 113.891 328.246 113.969 327.765L114.626 323.848H116.332L115.731 327.461C115.675 327.824 115.726 328.111 115.883 328.322C116.041 328.533 116.281 328.638 116.604 328.638C116.81 328.638 117.009 328.592 117.201 328.498C117.396 328.402 117.564 328.26 117.706 328.074C117.847 327.887 117.939 327.656 117.982 327.381ZM123.38 330.12C122.747 330.12 122.226 329.987 121.818 329.72C121.412 329.45 121.128 329.076 120.965 328.598C120.805 328.12 120.776 327.57 120.881 326.948C120.982 326.318 121.194 325.765 121.517 325.29C121.841 324.812 122.25 324.44 122.747 324.173C123.246 323.903 123.807 323.768 124.429 323.768C124.966 323.768 125.42 323.866 125.791 324.06C126.162 324.255 126.434 324.529 126.608 324.881C126.781 325.234 126.84 325.648 126.784 326.123H125.178C125.181 325.819 125.102 325.572 124.942 325.382C124.782 325.193 124.547 325.098 124.237 325.098C123.97 325.098 123.724 325.17 123.5 325.314C123.278 325.456 123.09 325.662 122.935 325.935C122.783 326.207 122.676 326.537 122.615 326.924C122.551 327.317 122.549 327.65 122.611 327.925C122.672 328.2 122.79 328.41 122.963 328.554C123.137 328.698 123.356 328.77 123.62 328.77C123.818 328.77 124.001 328.73 124.169 328.65C124.34 328.57 124.489 328.454 124.617 328.302C124.746 328.147 124.844 327.961 124.914 327.745H126.524C126.414 328.218 126.215 328.632 125.927 328.987C125.641 329.342 125.282 329.62 124.85 329.82C124.417 330.02 123.927 330.12 123.38 330.12ZM129.543 326.443L128.95 330H127.248L128.609 321.798H130.264L129.751 324.934H129.819C130.017 324.57 130.288 324.286 130.632 324.08C130.976 323.872 131.384 323.768 131.854 323.768C132.281 323.768 132.637 323.862 132.923 324.048C133.211 324.233 133.416 324.498 133.536 324.845C133.656 325.19 133.676 325.602 133.596 326.083L132.939 330H131.237L131.838 326.387C131.899 326.008 131.85 325.713 131.689 325.502C131.532 325.291 131.281 325.186 130.936 325.186C130.704 325.186 130.49 325.235 130.296 325.334C130.101 325.433 129.936 325.577 129.803 325.767C129.672 325.954 129.585 326.179 129.543 326.443ZM141.181 323.848L140.969 325.13H137.26L137.477 323.848H141.181ZM138.558 322.374H140.264L139.311 328.11C139.284 328.267 139.288 328.39 139.323 328.478C139.358 328.564 139.415 328.624 139.495 328.658C139.578 328.693 139.677 328.71 139.792 328.71C139.872 328.71 139.953 328.704 140.036 328.69C140.119 328.674 140.181 328.662 140.224 328.654L140.288 329.924C140.192 329.953 140.063 329.985 139.9 330.02C139.74 330.055 139.55 330.076 139.331 330.084C138.915 330.1 138.562 330.045 138.274 329.92C137.985 329.792 137.778 329.595 137.653 329.331C137.527 329.067 137.501 328.734 137.573 328.334L138.558 322.374ZM143.989 330.12C143.362 330.12 142.842 329.987 142.431 329.72C142.02 329.45 141.73 329.076 141.562 328.598C141.396 328.118 141.366 327.558 141.47 326.92C141.571 326.29 141.782 325.739 142.103 325.266C142.423 324.793 142.83 324.426 143.324 324.165C143.818 323.9 144.375 323.768 144.994 323.768C145.619 323.768 146.137 323.903 146.548 324.173C146.959 324.44 147.249 324.813 147.417 325.294C147.586 325.775 147.618 326.334 147.513 326.972C147.409 327.6 147.196 328.15 146.873 328.622C146.55 329.095 146.142 329.463 145.651 329.728C145.16 329.989 144.606 330.12 143.989 330.12ZM144.157 328.798C144.446 328.798 144.701 328.717 144.922 328.554C145.146 328.389 145.332 328.164 145.479 327.881C145.628 327.596 145.733 327.273 145.791 326.912C145.85 326.557 145.854 326.242 145.803 325.967C145.753 325.689 145.646 325.47 145.483 325.31C145.323 325.15 145.102 325.07 144.822 325.07C144.534 325.07 144.277 325.153 144.053 325.318C143.829 325.481 143.643 325.705 143.496 325.991C143.349 326.277 143.247 326.601 143.188 326.964C143.132 327.317 143.128 327.632 143.176 327.909C143.224 328.184 143.329 328.402 143.492 328.562C143.655 328.72 143.877 328.798 144.157 328.798ZM156.572 325.602L155.022 325.699C155.014 325.562 154.977 325.441 154.91 325.334C154.846 325.225 154.751 325.138 154.625 325.074C154.503 325.01 154.348 324.978 154.161 324.978C153.881 324.978 153.631 325.042 153.412 325.17C153.193 325.298 153.069 325.462 153.039 325.662C153.015 325.791 153.049 325.899 153.14 325.987C153.23 326.075 153.413 326.15 153.688 326.211L154.77 326.435C155.346 326.558 155.763 326.763 156.019 327.048C156.278 327.334 156.37 327.708 156.296 328.17C156.229 328.562 156.057 328.905 155.779 329.199C155.501 329.49 155.149 329.717 154.722 329.88C154.294 330.04 153.82 330.12 153.3 330.12C152.464 330.12 151.829 329.949 151.393 329.608C150.958 329.266 150.749 328.802 150.765 328.218L152.431 328.13C152.444 328.381 152.532 328.57 152.695 328.698C152.858 328.824 153.081 328.888 153.364 328.891C153.682 328.896 153.951 328.831 154.173 328.694C154.397 328.555 154.524 328.387 154.553 328.19C154.575 328.051 154.535 327.939 154.433 327.853C154.334 327.768 154.153 327.697 153.889 327.641L152.863 327.429C152.281 327.309 151.863 327.094 151.61 326.784C151.356 326.474 151.269 326.08 151.349 325.602C151.413 325.221 151.572 324.894 151.826 324.621C152.082 324.346 152.412 324.135 152.815 323.988C153.221 323.842 153.679 323.768 154.189 323.768C154.987 323.768 155.588 323.932 155.991 324.261C156.397 324.589 156.591 325.036 156.572 325.602ZM161.359 323.848L161.147 325.13H157.438L157.654 323.848H161.359ZM158.736 322.374H160.442L159.489 328.11C159.462 328.267 159.466 328.39 159.501 328.478C159.535 328.564 159.593 328.624 159.673 328.658C159.756 328.693 159.854 328.71 159.969 328.71C160.049 328.71 160.131 328.704 160.214 328.69C160.296 328.674 160.359 328.662 160.402 328.654L160.466 329.924C160.37 329.953 160.24 329.985 160.077 330.02C159.917 330.055 159.728 330.076 159.509 330.084C159.092 330.1 158.74 330.045 158.451 329.92C158.163 329.792 157.956 329.595 157.831 329.331C157.705 329.067 157.678 328.734 157.75 328.334L158.736 322.374ZM163.183 330.116C162.794 330.116 162.456 330.048 162.17 329.912C161.887 329.773 161.679 329.567 161.545 329.295C161.412 329.023 161.378 328.685 161.445 328.282C161.504 327.94 161.615 327.654 161.778 327.425C161.943 327.192 162.145 327.006 162.382 326.864C162.62 326.723 162.883 326.614 163.171 326.54C163.462 326.465 163.763 326.414 164.072 326.387C164.43 326.35 164.721 326.314 164.946 326.279C165.173 326.245 165.342 326.195 165.454 326.131C165.566 326.064 165.634 325.966 165.658 325.835V325.811C165.699 325.56 165.652 325.365 165.518 325.226C165.387 325.084 165.178 325.014 164.89 325.014C164.585 325.014 164.326 325.08 164.113 325.214C163.902 325.347 163.751 325.517 163.66 325.723L162.106 325.594C162.245 325.221 162.454 324.898 162.735 324.625C163.018 324.35 163.358 324.139 163.756 323.992C164.154 323.843 164.6 323.768 165.094 323.768C165.436 323.768 165.755 323.808 166.051 323.888C166.35 323.968 166.608 324.092 166.824 324.261C167.043 324.429 167.2 324.645 167.297 324.91C167.395 325.171 167.415 325.485 167.357 325.851L166.664 330H165.046L165.19 329.147H165.142C165.011 329.339 164.851 329.509 164.661 329.656C164.472 329.8 164.254 329.913 164.008 329.996C163.763 330.076 163.488 330.116 163.183 330.116ZM163.868 328.939C164.117 328.939 164.345 328.889 164.553 328.79C164.764 328.689 164.938 328.553 165.074 328.382C165.213 328.211 165.301 328.017 165.338 327.801L165.442 327.148C165.389 327.183 165.311 327.214 165.21 327.24C165.111 327.267 165.003 327.293 164.886 327.317C164.771 327.338 164.655 327.358 164.537 327.377C164.42 327.393 164.314 327.409 164.221 327.425C164.015 327.454 163.831 327.501 163.668 327.565C163.505 327.629 163.373 327.716 163.271 327.825C163.17 327.932 163.107 328.066 163.083 328.226C163.046 328.458 163.101 328.636 163.247 328.758C163.397 328.879 163.604 328.939 163.868 328.939ZM167.987 330L169.013 323.848H170.667L170.487 324.922H170.551C170.727 324.54 170.963 324.251 171.26 324.056C171.559 323.859 171.88 323.76 172.225 323.76C172.31 323.76 172.4 323.765 172.493 323.776C172.589 323.784 172.675 323.797 172.749 323.816L172.493 325.334C172.418 325.307 172.312 325.286 172.173 325.27C172.037 325.251 171.907 325.242 171.784 325.242C171.536 325.242 171.305 325.297 171.091 325.406C170.878 325.513 170.698 325.662 170.551 325.855C170.407 326.047 170.312 326.269 170.266 326.52L169.694 330H167.987ZM177.208 323.848L176.996 325.13H173.287L173.503 323.848H177.208ZM174.585 322.374H176.291L175.338 328.11C175.311 328.267 175.315 328.39 175.35 328.478C175.385 328.564 175.442 328.624 175.522 328.658C175.605 328.693 175.704 328.71 175.818 328.71C175.898 328.71 175.98 328.704 176.063 328.69C176.145 328.674 176.208 328.662 176.251 328.654L176.315 329.924C176.219 329.953 176.089 329.985 175.927 330.02C175.766 330.055 175.577 330.076 175.358 330.084C174.941 330.1 174.589 330.045 174.3 329.92C174.012 329.792 173.805 329.595 173.68 329.331C173.554 329.067 173.527 328.734 173.6 328.334L174.585 322.374ZM184.038 321.645L182.36 331.782H179.2L179.416 330.505H180.93L182.179 322.919H180.666L180.882 321.645H184.038Z" fill="black"/>
</g>
<defs>
<clipPath id="clip0_11_491">
<rect width="276.222" height="486.615" fill="white"/>
</clipPath>
</defs>
</svg>
