<svg width="241" height="206" viewBox="0 0 241 206" fill="none" xmlns="http://www.w3.org/2000/svg">
<g clip-path="url(#clip0_18_1334)">
<rect y="59.3418" width="129.39" height="145.706" fill="#565656"/>
<path d="M113.726 60.3457H88.4004V79.6206H113.726V60.3457Z" fill="#76F6E9" stroke="black" stroke-width="0.303335"/>
<path d="M98.7517 67.788H99.8734L101.058 70.6783H101.109L102.293 67.788H103.415V72.0898H102.533V69.2899H102.497L101.384 72.0688H100.783L99.6697 69.2794H99.6339V72.0898H98.7517V67.788Z" fill="black"/>
<path d="M113.88 85.9609H88.4004V107.101H113.88V85.9609Z" fill="#76F6E9" stroke="black" stroke-width="0.303335"/>
<path d="M99.439 98.127L98.2081 93.8251H99.2016L99.9137 96.8141H99.9494L100.735 93.8251H101.586L102.369 96.8204H102.407L103.119 93.8251H104.113L102.882 98.127H101.995L101.176 95.3144H101.143L100.325 98.127H99.439Z" fill="black"/>
<path d="M71.8542 120.334H33.1104V165.249H71.8542V120.334Z" fill="#FFF9E6" stroke="black" stroke-width="0.303335"/>
<path d="M45.1759 144.865V144.21L46.7071 142.792C46.8374 142.666 46.9466 142.553 47.0348 142.452C47.1244 142.351 47.1924 142.252 47.2386 142.156C47.2848 142.058 47.3079 141.952 47.3079 141.838C47.3079 141.712 47.2792 141.604 47.2218 141.513C47.1644 141.42 47.0859 141.35 46.9865 141.301C46.8871 141.25 46.7744 141.225 46.6483 141.225C46.5167 141.225 46.4019 141.252 46.3038 141.305C46.2058 141.358 46.1302 141.434 46.077 141.534C46.0238 141.633 45.9972 141.752 45.9972 141.889H45.1339C45.1339 141.607 45.1976 141.363 45.325 141.156C45.4524 140.948 45.631 140.788 45.8606 140.675C46.0903 140.561 46.355 140.505 46.6546 140.505C46.9627 140.505 47.2309 140.559 47.4591 140.668C47.6888 140.776 47.8673 140.926 47.9948 141.118C48.1222 141.31 48.1859 141.53 48.1859 141.777C48.1859 141.94 48.1537 142.1 48.0893 142.258C48.0263 142.417 47.9135 142.592 47.7511 142.786C47.5887 142.978 47.3597 143.208 47.0642 143.477L46.4362 144.092V144.122H48.2426V144.865H45.1759ZM50.5884 144.96C50.2271 144.958 49.9162 144.869 49.6557 144.693C49.3967 144.517 49.1971 144.261 49.0571 143.926C48.9185 143.592 48.8498 143.189 48.8512 142.719C48.8512 142.249 48.9206 141.85 49.0592 141.519C49.1992 141.189 49.3988 140.937 49.6578 140.765C49.9183 140.591 50.2285 140.505 50.5884 140.505C50.9483 140.505 51.2577 140.591 51.5168 140.765C51.7773 140.939 51.9775 141.191 52.1175 141.521C52.2576 141.85 52.3269 142.249 52.3255 142.719C52.3255 143.19 52.2555 143.594 52.1154 143.928C51.9768 144.263 51.778 144.519 51.5189 144.695C51.2598 144.872 50.9497 144.96 50.5884 144.96ZM50.5884 144.206C50.8348 144.206 51.0316 144.082 51.1786 143.834C51.3256 143.586 51.3985 143.214 51.3971 142.719C51.3971 142.392 51.3635 142.121 51.2962 141.904C51.2304 141.686 51.1366 141.523 51.0148 141.414C50.8943 141.305 50.7522 141.25 50.5884 141.25C50.3433 141.25 50.1473 141.373 50.0002 141.618C49.8532 141.863 49.779 142.23 49.7776 142.719C49.7776 143.049 49.8105 143.325 49.8763 143.546C49.9435 143.766 50.038 143.931 50.1599 144.042C50.2817 144.151 50.4245 144.206 50.5884 144.206ZM54.5788 144.924C54.2553 144.924 53.9676 144.872 53.7155 144.767C53.4648 144.66 53.2681 144.515 53.1253 144.332C52.9824 144.148 52.911 143.94 52.911 143.708C52.911 143.529 52.9516 143.364 53.0328 143.214C53.1155 143.063 53.2275 142.938 53.3689 142.838C53.5104 142.737 53.6686 142.673 53.8436 142.645V142.616C53.614 142.569 53.4277 142.458 53.2849 142.282C53.1421 142.104 53.0706 141.897 53.0706 141.662C53.0706 141.439 53.1358 141.241 53.266 141.068C53.3962 140.892 53.5748 140.755 53.8016 140.656C54.0299 140.555 54.2889 140.505 54.5788 140.505C54.8687 140.505 55.127 140.555 55.3539 140.656C55.5822 140.757 55.7614 140.895 55.8916 141.07C56.0219 141.243 56.0877 141.441 56.0891 141.662C56.0877 141.899 56.0149 142.105 55.8706 142.282C55.7264 142.458 55.5415 142.569 55.3161 142.616V142.645C55.4883 142.673 55.6445 142.737 55.7845 142.838C55.9259 142.938 56.038 143.063 56.1206 143.214C56.2046 143.364 56.2473 143.529 56.2487 143.708C56.2473 143.94 56.1752 144.148 56.0324 144.332C55.8895 144.515 55.6921 144.66 55.44 144.767C55.1894 144.872 54.9023 144.924 54.5788 144.924ZM54.5788 144.256C54.723 144.256 54.8491 144.23 54.9569 144.178C55.0647 144.125 55.1488 144.052 55.209 143.96C55.2706 143.866 55.3014 143.758 55.3014 143.636C55.3014 143.512 55.2699 143.402 55.2069 143.307C55.1439 143.21 55.0584 143.134 54.9506 143.08C54.8428 143.024 54.7188 142.996 54.5788 142.996C54.4402 142.996 54.3163 143.024 54.207 143.08C54.0978 143.134 54.0117 143.21 53.9487 143.307C53.887 143.402 53.8562 143.512 53.8562 143.636C53.8562 143.758 53.8863 143.866 53.9466 143.96C54.0068 144.052 54.0915 144.125 54.2007 144.178C54.3099 144.23 54.436 144.256 54.5788 144.256ZM54.5788 142.334C54.6992 142.334 54.8064 142.31 54.9002 142.261C54.994 142.212 55.0675 142.144 55.1207 142.057C55.174 141.97 55.2006 141.87 55.2006 141.756C55.2006 141.644 55.174 141.546 55.1207 141.462C55.0675 141.377 54.9947 141.31 54.9023 141.263C54.8099 141.214 54.702 141.189 54.5788 141.189C54.457 141.189 54.3492 141.214 54.2553 141.263C54.1615 141.31 54.088 141.377 54.0348 141.462C53.983 141.546 53.9571 141.644 53.9571 141.756C53.9571 141.87 53.9837 141.97 54.0369 142.057C54.0901 142.144 54.1636 142.212 54.2574 142.261C54.3513 142.31 54.4584 142.334 54.5788 142.334Z" fill="black"/>
<path d="M26.4022 60.3457H0V103.331H26.4022V60.3457Z" fill="#FFF9E6" stroke="black" stroke-width="0.303335"/>
<path d="M8.44722 82.0879V81.6678L9.42881 80.7589C9.51229 80.6781 9.58231 80.6054 9.63886 80.5408C9.69631 80.4762 9.73984 80.4129 9.76947 80.3509C9.79909 80.2881 9.8139 80.2203 9.8139 80.1476C9.8139 80.0668 9.7955 79.9973 9.75869 79.9389C9.72189 79.8797 9.67162 79.8343 9.60789 79.8029C9.54415 79.7706 9.47189 79.7544 9.3911 79.7544C9.30673 79.7544 9.23312 79.7715 9.17028 79.8056C9.10745 79.8397 9.05897 79.8886 9.02486 79.9524C8.99075 80.0161 8.9737 80.092 8.9737 80.1799H8.42029C8.42029 79.9995 8.46113 79.8429 8.54282 79.71C8.62451 79.5772 8.73896 79.4744 8.88617 79.4017C9.03339 79.3289 9.20305 79.2926 9.39514 79.2926C9.59263 79.2926 9.76453 79.3276 9.91085 79.3976C10.0581 79.4667 10.1725 79.5628 10.2542 79.6858C10.3359 79.8087 10.3767 79.9497 10.3767 80.1086C10.3767 80.2127 10.3561 80.3155 10.3148 80.4169C10.2744 80.5183 10.2021 80.631 10.098 80.7549C9.99388 80.8779 9.84711 81.0255 9.65771 81.1979L9.25511 81.5924V81.6112H10.4131V82.0879H8.44722ZM11.9168 82.1485C11.6852 82.1476 11.4859 82.0906 11.3189 81.9775C11.1529 81.8644 11.0249 81.7006 10.9352 81.486C10.8463 81.2715 10.8023 81.0134 10.8032 80.7118C10.8032 80.4111 10.8477 80.1548 10.9365 79.9429C11.0263 79.7311 11.1542 79.57 11.3203 79.4596C11.4872 79.3482 11.6861 79.2926 11.9168 79.2926C12.1475 79.2926 12.3458 79.3482 12.5119 79.4596C12.6789 79.5709 12.8072 79.7324 12.897 79.9443C12.9868 80.1552 13.0312 80.4111 13.0303 80.7118C13.0303 81.0143 12.9854 81.2728 12.8957 81.4874C12.8068 81.7019 12.6793 81.8657 12.5133 81.9788C12.3472 82.0919 12.1484 82.1485 11.9168 82.1485ZM11.9168 81.6651C12.0748 81.6651 12.2009 81.5857 12.2951 81.4268C12.3894 81.2679 12.4361 81.0296 12.4352 80.7118C12.4352 80.5026 12.4136 80.3285 12.3705 80.1894C12.3283 80.0502 12.2682 79.9456 12.1901 79.8756C12.1129 79.8056 12.0218 79.7706 11.9168 79.7706C11.7597 79.7706 11.634 79.8491 11.5398 80.0062C11.4455 80.1633 11.3979 80.3985 11.397 80.7118C11.397 80.9236 11.4181 81.1005 11.4603 81.2423C11.5034 81.3832 11.564 81.4892 11.6421 81.5601C11.7202 81.6301 11.8117 81.6651 11.9168 81.6651ZM14.4438 79.2926C14.5856 79.2926 14.7221 79.3164 14.8531 79.364C14.9851 79.4115 15.1027 79.4874 15.2059 79.5915C15.31 79.6956 15.3922 79.8339 15.4523 80.0062C15.5133 80.1777 15.5443 80.3882 15.5452 80.6377C15.5452 80.872 15.5187 81.0812 15.4658 81.2652C15.4137 81.4483 15.3387 81.6041 15.2409 81.7324C15.1431 81.8608 15.025 81.9586 14.8868 82.026C14.7485 82.0924 14.5941 82.1256 14.4236 82.1256C14.2396 82.1256 14.0771 82.0901 13.9362 82.0192C13.7952 81.9474 13.6817 81.85 13.5955 81.727C13.5102 81.6032 13.4586 81.464 13.4406 81.3096H14.0156C14.038 81.4102 14.0852 81.4883 14.157 81.5439C14.2288 81.5987 14.3177 81.626 14.4236 81.626C14.6031 81.626 14.7396 81.548 14.8329 81.3918C14.9263 81.2347 14.9734 81.0197 14.9743 80.7468H14.9554C14.9141 80.8276 14.8585 80.8972 14.7885 80.9555C14.7185 81.0129 14.6381 81.0574 14.5475 81.0888C14.4577 81.1202 14.3621 81.1359 14.2607 81.1359C14.0982 81.1359 13.9532 81.0978 13.8257 81.0215C13.6983 80.9452 13.5977 80.8402 13.5241 80.7064C13.4505 80.5726 13.4137 80.42 13.4137 80.2486C13.4128 80.0637 13.4555 79.899 13.5416 79.7544C13.6278 79.6099 13.7481 79.4968 13.9025 79.4151C14.0578 79.3325 14.2382 79.2917 14.4438 79.2926ZM14.4478 79.7504C14.3572 79.7504 14.2764 79.7719 14.2055 79.815C14.1354 79.8581 14.0798 79.916 14.0385 79.9887C13.9981 80.0614 13.9783 80.1427 13.9792 80.2324C13.9792 80.3231 13.999 80.4048 14.0385 80.4775C14.0789 80.5493 14.1336 80.6068 14.2028 80.6498C14.2728 80.692 14.3527 80.7131 14.4424 80.7131C14.5098 80.7131 14.5721 80.7006 14.6296 80.6754C14.687 80.6503 14.7369 80.6157 14.7791 80.5718C14.8221 80.5269 14.8558 80.4753 14.88 80.4169C14.9043 80.3586 14.9164 80.2966 14.9164 80.2311C14.9155 80.144 14.8949 80.0641 14.8545 79.9914C14.8141 79.9187 14.7584 79.8604 14.6875 79.8164C14.6166 79.7724 14.5367 79.7504 14.4478 79.7504Z" fill="black"/>
<path d="M88.1032 60.3457H27.1416V107.065H88.1032V60.3457Z" fill="#FFF9E6" stroke="black" stroke-width="0.303335"/>
<path d="M49.5372 85.6348V84.9794L51.0685 83.5616C51.1987 83.4355 51.3079 83.3221 51.3961 83.2213C51.4858 83.1205 51.5537 83.0217 51.5999 82.9251C51.6461 82.8271 51.6692 82.7214 51.6692 82.6079C51.6692 82.4819 51.6405 82.3734 51.5831 82.2823C51.5257 82.1899 51.4472 82.1192 51.3478 82.0702C51.2484 82.0198 51.1357 81.9946 51.0096 81.9946C50.878 81.9946 50.7632 82.0212 50.6652 82.0744C50.5671 82.1276 50.4915 82.2039 50.4383 82.3034C50.3851 82.4028 50.3585 82.5211 50.3585 82.6583H49.4952C49.4952 82.3769 49.5589 82.1325 49.6863 81.9253C49.8137 81.718 49.9923 81.5577 50.2219 81.4442C50.4516 81.3308 50.7163 81.2741 51.0159 81.2741C51.324 81.2741 51.5922 81.3287 51.8204 81.4379C52.0501 81.5458 52.2286 81.6956 52.3561 81.8875C52.4835 82.0793 52.5472 82.2992 52.5472 82.547C52.5472 82.7095 52.515 82.8698 52.4506 83.028C52.3876 83.1863 52.2748 83.362 52.1124 83.5553C51.95 83.7471 51.721 83.9775 51.4255 84.2463L50.7975 84.8618V84.8912H52.6039V85.6348H49.5372ZM54.9497 85.7293C54.5884 85.7279 54.2775 85.639 54.017 85.4625C53.758 85.2861 53.5584 85.0305 53.4184 84.6958C53.2798 84.3612 53.2111 83.9586 53.2125 83.488C53.2125 83.0189 53.2819 82.6191 53.4205 82.2886C53.5605 81.9582 53.7601 81.7068 54.0191 81.5346C54.2796 81.3609 54.5898 81.2741 54.9497 81.2741C55.3096 81.2741 55.619 81.3609 55.8781 81.5346C56.1386 81.7082 56.3388 81.9603 56.4788 82.2907C56.6189 82.6198 56.6882 83.0189 56.6868 83.488C56.6868 83.96 56.6168 84.3633 56.4767 84.6979C56.3381 85.0326 56.1393 85.2882 55.8802 85.4646C55.6211 85.6411 55.311 85.7293 54.9497 85.7293ZM54.9497 84.9752C55.1961 84.9752 55.3929 84.8513 55.5399 84.6034C55.687 84.3556 55.7598 83.9838 55.7584 83.488C55.7584 83.1618 55.7248 82.8901 55.6575 82.673C55.5917 82.456 55.4979 82.2929 55.3761 82.1836C55.2556 82.0744 55.1135 82.0198 54.9497 82.0198C54.7046 82.0198 54.5086 82.1423 54.3615 82.3874C54.2145 82.6324 54.1403 82.9993 54.1389 83.488C54.1389 83.8185 54.1718 84.0944 54.2376 84.3156C54.3048 84.5355 54.3993 84.7007 54.5212 84.8114C54.643 84.9206 54.7858 84.9752 54.9497 84.9752ZM57.3899 85.6348L59.1733 82.1059V82.0765H57.0959V81.3329H60.1143V82.087L58.3289 85.6348H57.3899Z" fill="black"/>
<path d="M113.878 120.312H72.667V165.227H113.878V120.312Z" fill="#FFF9E6" stroke="black" stroke-width="0.303335"/>
<path d="M87.7702 143.77V143.114L89.3015 141.696C89.4317 141.57 89.5409 141.457 89.6291 141.356C89.7188 141.255 89.7867 141.156 89.8329 141.06C89.8791 140.962 89.9022 140.856 89.9022 140.743C89.9022 140.617 89.8735 140.508 89.8161 140.417C89.7587 140.325 89.6803 140.254 89.5808 140.205C89.4814 140.155 89.3687 140.129 89.2426 140.129C89.111 140.129 88.9962 140.156 88.8982 140.209C88.8001 140.262 88.7245 140.339 88.6713 140.438C88.6181 140.538 88.5915 140.656 88.5915 140.793H87.7282C87.7282 140.512 87.7919 140.267 87.9193 140.06C88.0468 139.853 88.2253 139.692 88.455 139.579C88.6846 139.466 88.9493 139.409 89.2489 139.409C89.557 139.409 89.8252 139.463 90.0534 139.573C90.2831 139.681 90.4616 139.83 90.5891 140.022C90.7165 140.214 90.7802 140.434 90.7802 140.682C90.7802 140.844 90.748 141.005 90.6836 141.163C90.6206 141.321 90.5079 141.497 90.3454 141.69C90.183 141.882 89.954 142.112 89.6585 142.381L89.0305 142.997V143.026H90.8369V143.77H87.7702ZM93.1827 143.864C92.8214 143.863 92.5105 143.774 92.2501 143.597C91.991 143.421 91.7914 143.165 91.6514 142.831C91.5128 142.496 91.4442 142.093 91.4456 141.623C91.4456 141.154 91.5149 140.754 91.6535 140.423C91.7935 140.093 91.9931 139.842 92.2522 139.669C92.5126 139.496 92.8228 139.409 93.1827 139.409C93.5426 139.409 93.852 139.496 94.1111 139.669C94.3716 139.843 94.5718 140.095 94.7119 140.426C94.8519 140.755 94.9212 141.154 94.9198 141.623C94.9198 142.095 94.8498 142.498 94.7098 142.833C94.5711 143.167 94.3723 143.423 94.1132 143.599C93.8541 143.776 93.544 143.864 93.1827 143.864ZM93.1827 143.11C93.4291 143.11 93.6259 142.986 93.7729 142.738C93.92 142.49 93.9928 142.119 93.9914 141.623C93.9914 141.297 93.9578 141.025 93.8906 140.808C93.8247 140.591 93.7309 140.428 93.6091 140.318C93.4887 140.209 93.3465 140.155 93.1827 140.155C92.9376 140.155 92.7416 140.277 92.5945 140.522C92.4475 140.767 92.3733 141.134 92.3719 141.623C92.3719 141.953 92.4048 142.229 92.4706 142.45C92.5378 142.67 92.6324 142.836 92.7542 142.946C92.876 143.055 93.0188 143.11 93.1827 143.11ZM97.2193 143.828C96.9981 143.827 96.7845 143.79 96.5787 143.717C96.3742 143.644 96.1908 143.526 96.0284 143.362C95.8659 143.198 95.7371 142.981 95.6419 142.711C95.548 142.441 95.5011 142.109 95.5011 141.715C95.5025 141.354 95.5438 141.031 95.6251 140.747C95.7077 140.461 95.8253 140.219 95.9779 140.02C96.132 139.821 96.3161 139.67 96.5304 139.566C96.7446 139.461 96.9848 139.409 97.2509 139.409C97.5379 139.409 97.7914 139.465 98.0112 139.577C98.2311 139.688 98.4075 139.838 98.5406 140.029C98.675 140.219 98.7562 140.433 98.7842 140.669H97.8873C97.8523 140.519 97.7788 140.402 97.6668 140.316C97.5547 140.231 97.4161 140.188 97.2509 140.188C96.9708 140.188 96.7579 140.31 96.6123 140.554C96.4681 140.797 96.3945 141.128 96.3917 141.547H96.4211C96.4856 141.42 96.5724 141.311 96.6816 141.222C96.7922 141.131 96.9176 141.061 97.0576 141.014C97.199 140.965 97.3482 140.94 97.505 140.94C97.7599 140.94 97.9867 141 98.1856 141.121C98.3844 141.24 98.5413 141.404 98.6561 141.612C98.7709 141.821 98.8283 142.06 98.8283 142.329C98.8283 142.62 98.7604 142.879 98.6246 143.106C98.4902 143.333 98.3018 143.51 98.0595 143.639C97.8187 143.767 97.5386 143.83 97.2193 143.828ZM97.2151 143.114C97.3552 143.114 97.4805 143.081 97.5911 143.013C97.7018 142.946 97.7886 142.855 97.8516 142.74C97.9146 142.625 97.9461 142.497 97.9461 142.354C97.9461 142.211 97.9146 142.083 97.8516 141.969C97.79 141.856 97.7046 141.766 97.5953 141.698C97.4861 141.631 97.3615 141.598 97.2214 141.598C97.1164 141.598 97.0191 141.617 96.9295 141.656C96.8413 141.696 96.7635 141.75 96.6963 141.82C96.6305 141.89 96.5787 141.971 96.5409 142.064C96.5031 142.155 96.4842 142.252 96.4842 142.356C96.4842 142.495 96.5157 142.621 96.5787 142.736C96.6431 142.851 96.7299 142.943 96.8392 143.011C96.9498 143.08 97.0751 143.114 97.2151 143.114Z" fill="black"/>
<path d="M21.8512 104.428H0.0205078V118.772H21.8512V104.428Z" fill="#FFF9E6" stroke="black" stroke-width="0.303335"/>
<path d="M7.33737 113.584V113.095L8.48073 112.036C8.57797 111.942 8.65953 111.857 8.7254 111.782C8.79232 111.707 8.84303 111.633 8.87754 111.561C8.91204 111.488 8.92929 111.409 8.92929 111.324C8.92929 111.23 8.90786 111.149 8.86499 111.081C8.82212 111.012 8.76357 110.959 8.68933 110.922C8.61509 110.885 8.53092 110.866 8.43682 110.866C8.33853 110.866 8.25279 110.886 8.1796 110.926C8.10641 110.965 8.04995 111.022 8.01021 111.097C7.97048 111.171 7.95061 111.259 7.95061 111.362H7.306C7.306 111.151 7.35358 110.969 7.44873 110.814C7.54388 110.659 7.67719 110.54 7.84867 110.455C8.02015 110.37 8.21776 110.328 8.44152 110.328C8.67155 110.328 8.87179 110.369 9.04222 110.45C9.2137 110.531 9.34701 110.643 9.44216 110.786C9.53731 110.929 9.58488 111.093 9.58488 111.278C9.58488 111.4 9.56083 111.519 9.51274 111.638C9.46568 111.756 9.38151 111.887 9.26022 112.031C9.13894 112.175 8.96798 112.347 8.74736 112.547L8.27841 113.007V113.029H9.62723V113.584H7.33737ZM10.1193 113.584V113.095L11.2627 112.036C11.3599 111.942 11.4415 111.857 11.5073 111.782C11.5743 111.707 11.625 111.633 11.6595 111.561C11.694 111.488 11.7112 111.409 11.7112 111.324C11.7112 111.23 11.6898 111.149 11.6469 111.081C11.6041 111.012 11.5455 110.959 11.4713 110.922C11.397 110.885 11.3129 110.866 11.2188 110.866C11.1205 110.866 11.0347 110.886 10.9615 110.926C10.8884 110.965 10.8319 111.022 10.7922 111.097C10.7524 111.171 10.7326 111.259 10.7326 111.362H10.0879C10.0879 111.151 10.1355 110.969 10.2307 110.814C10.3258 110.659 10.4591 110.54 10.6306 110.455C10.8021 110.37 10.9997 110.328 11.2235 110.328C11.4535 110.328 11.6537 110.369 11.8242 110.45C11.9956 110.531 12.129 110.643 12.2241 110.786C12.3192 110.929 12.3668 111.093 12.3668 111.278C12.3668 111.4 12.3428 111.519 12.2947 111.638C12.2476 111.756 12.1635 111.887 12.0422 112.031C11.9209 112.175 11.7499 112.347 11.5293 112.547L11.0604 113.007V113.029H12.4092V113.584H10.1193ZM14.2987 110.372V113.584H13.6196V111.017H13.6008L12.8652 111.478V110.875L13.6604 110.372H14.2987Z" fill="black"/>
<path d="M21.8512 119.559H0.0205078V133.903H21.8512V119.559Z" fill="#FFF9E6" stroke="black" stroke-width="0.303335"/>
<path d="M7.21101 128.715V128.226L8.35437 127.167C8.45161 127.073 8.53316 126.988 8.59904 126.913C8.66595 126.837 8.71667 126.764 8.75117 126.692C8.78568 126.618 8.80293 126.539 8.80293 126.455C8.80293 126.361 8.78149 126.28 8.73862 126.212C8.69575 126.143 8.6372 126.09 8.56296 126.053C8.48873 126.016 8.40455 125.997 8.31045 125.997C8.21217 125.997 8.12643 126.017 8.05323 126.056C7.98004 126.096 7.92358 126.153 7.88385 126.227C7.84411 126.302 7.82425 126.39 7.82425 126.492H7.17964C7.17964 126.282 7.22721 126.1 7.32236 125.945C7.41751 125.79 7.55082 125.671 7.7223 125.586C7.89378 125.501 8.0914 125.459 8.31516 125.459C8.54519 125.459 8.74542 125.5 8.91585 125.581C9.08733 125.662 9.22064 125.774 9.31579 125.917C9.41094 126.06 9.45852 126.224 9.45852 126.409C9.45852 126.531 9.43447 126.65 9.38637 126.768C9.33932 126.887 9.25515 127.018 9.13386 127.162C9.01257 127.305 8.84161 127.477 8.62099 127.678L8.15204 128.138V128.16H9.50086V128.715H7.21101ZM9.99295 128.715V128.226L11.1363 127.167C11.2335 127.073 11.3151 126.988 11.381 126.913C11.4479 126.837 11.4986 126.764 11.5331 126.692C11.5676 126.618 11.5849 126.539 11.5849 126.455C11.5849 126.361 11.5634 126.28 11.5206 126.212C11.4777 126.143 11.4191 126.09 11.3449 126.053C11.2707 126.016 11.1865 125.997 11.0924 125.997C10.9941 125.997 10.9084 126.017 10.8352 126.056C10.762 126.096 10.7055 126.153 10.6658 126.227C10.6261 126.302 10.6062 126.39 10.6062 126.492H9.96158C9.96158 126.282 10.0092 126.1 10.1043 125.945C10.1995 125.79 10.3328 125.671 10.5042 125.586C10.6757 125.501 10.8733 125.459 11.0971 125.459C11.3271 125.459 11.5274 125.5 11.6978 125.581C11.8693 125.662 12.0026 125.774 12.0977 125.917C12.1929 126.06 12.2405 126.224 12.2405 126.409C12.2405 126.531 12.2164 126.65 12.1683 126.768C12.1213 126.887 12.0371 127.018 11.9158 127.162C11.7945 127.305 11.6236 127.477 11.4029 127.678L10.934 128.138V128.16H12.2828V128.715H9.99295ZM14.0343 128.785C13.7645 128.784 13.5324 128.718 13.3379 128.586C13.1445 128.454 12.9955 128.264 12.891 128.014C12.7874 127.764 12.7362 127.463 12.7372 127.112C12.7372 126.762 12.789 126.463 12.8925 126.216C12.9971 125.97 13.1461 125.782 13.3395 125.653C13.534 125.524 13.7656 125.459 14.0343 125.459C14.303 125.459 14.5341 125.524 14.7275 125.653C14.922 125.783 15.0715 125.971 15.1761 126.218C15.2807 126.464 15.3324 126.762 15.3314 127.112C15.3314 127.464 15.2791 127.765 15.1745 128.015C15.071 128.265 14.9225 128.456 14.7291 128.588C14.5357 128.72 14.3041 128.785 14.0343 128.785ZM14.0343 128.222C14.2183 128.222 14.3652 128.13 14.475 127.945C14.5848 127.76 14.6392 127.482 14.6381 127.112C14.6381 126.868 14.613 126.665 14.5629 126.503C14.5137 126.341 14.4437 126.22 14.3527 126.138C14.2628 126.056 14.1566 126.016 14.0343 126.016C13.8513 126.016 13.7049 126.107 13.5952 126.29C13.4854 126.473 13.43 126.747 13.4289 127.112C13.4289 127.359 13.4535 127.565 13.5026 127.73C13.5528 127.894 13.6234 128.017 13.7144 128.1C13.8053 128.182 13.912 128.222 14.0343 128.222Z" fill="black"/>
<path d="M21.8512 134.699H0.0205078V149.043H11.5H21.8512V134.699Z" fill="#4A90E2" stroke="black" stroke-width="0.303335"/>
<path d="M7.26963 143.865V143.376L8.41299 142.317C8.51023 142.223 8.59179 142.138 8.65766 142.063C8.72458 141.988 8.77529 141.914 8.8098 141.842C8.8443 141.769 8.86155 141.69 8.86155 141.605C8.86155 141.511 8.84012 141.43 8.79725 141.362C8.75438 141.293 8.69583 141.24 8.62159 141.204C8.54735 141.166 8.46318 141.147 8.36908 141.147C8.27079 141.147 8.18505 141.167 8.11186 141.207C8.03867 141.247 7.98221 141.304 7.94247 141.378C7.90274 141.452 7.88288 141.54 7.88288 141.643H7.23826C7.23826 141.433 7.28584 141.25 7.38099 141.095C7.47614 140.941 7.60945 140.821 7.78093 140.736C7.95241 140.652 8.15003 140.609 8.37378 140.609C8.60381 140.609 8.80405 140.65 8.97448 140.732C9.14596 140.812 9.27927 140.924 9.37442 141.067C9.46957 141.21 9.51714 141.375 9.51714 141.56C9.51714 141.681 9.4931 141.801 9.445 141.919C9.39795 142.037 9.31378 142.168 9.19249 142.313C9.0712 142.456 8.90024 142.628 8.67962 142.829L8.21067 143.288V143.31H9.55949V143.865H7.26963ZM11.449 140.653V143.865H10.7699V141.298H10.7511L10.0155 141.759V141.157L10.8107 140.653H11.449ZM13.3746 140.609C13.5398 140.609 13.6987 140.637 13.8514 140.692C14.0051 140.748 14.1421 140.836 14.2623 140.957C14.3836 141.079 14.4793 141.24 14.5493 141.44C14.6204 141.64 14.6565 141.885 14.6576 142.176C14.6576 142.449 14.6267 142.693 14.565 142.907C14.5044 143.12 14.4171 143.302 14.3031 143.451C14.1891 143.601 14.0516 143.715 13.8906 143.793C13.7296 143.87 13.5498 143.909 13.3511 143.909C13.1367 143.909 12.9475 143.868 12.7833 143.785C12.6192 143.702 12.4869 143.588 12.3865 143.445C12.2872 143.301 12.2271 143.139 12.2062 142.959H12.8759C12.902 143.076 12.9569 143.167 13.0405 143.232C13.1242 143.295 13.2277 143.327 13.3511 143.327C13.5602 143.327 13.7191 143.236 13.8279 143.054C13.9366 142.871 13.9915 142.621 13.9926 142.303H13.9706C13.9225 142.397 13.8577 142.478 13.7761 142.546C13.6946 142.613 13.601 142.665 13.4954 142.701C13.3908 142.738 13.2795 142.756 13.1613 142.756C12.9721 142.756 12.8032 142.712 12.6547 142.623C12.5062 142.534 12.3891 142.412 12.3034 142.256C12.2177 142.1 12.1748 141.923 12.1748 141.723C12.1737 141.507 12.2234 141.316 12.3238 141.147C12.4242 140.979 12.5643 140.847 12.7441 140.752C12.925 140.656 13.1352 140.608 13.3746 140.609ZM13.3793 141.142C13.2737 141.142 13.1796 141.168 13.097 141.218C13.0155 141.268 12.9506 141.335 12.9025 141.42C12.8555 141.505 12.8325 141.599 12.8335 141.704C12.8335 141.81 12.8565 141.905 12.9025 141.989C12.9496 142.073 13.0134 142.14 13.0939 142.19C13.1754 142.239 13.2685 142.264 13.373 142.264C13.4515 142.264 13.5241 142.249 13.5911 142.22C13.658 142.191 13.716 142.15 13.7651 142.099C13.8153 142.047 13.8545 141.987 13.8828 141.919C13.911 141.851 13.9251 141.779 13.9251 141.702C13.9241 141.601 13.9 141.508 13.853 141.423C13.8059 141.339 13.7411 141.271 13.6585 141.219C13.5759 141.168 13.4828 141.142 13.3793 141.142Z" fill="black"/>
<path d="M21.8512 149.975H0.0205078V164.319H21.8512V149.975Z" fill="#4A90E2" stroke="black" stroke-width="0.303335"/>
<path d="M7.26858 159.131V158.642L8.41194 157.583C8.50918 157.489 8.59074 157.404 8.65661 157.329C8.72353 157.253 8.77424 157.18 8.80875 157.108C8.84325 157.034 8.8605 156.955 8.8605 156.871C8.8605 156.777 8.83907 156.696 8.7962 156.628C8.75333 156.559 8.69478 156.506 8.62054 156.469C8.5463 156.432 8.46213 156.413 8.36803 156.413C8.26974 156.413 8.184 156.433 8.11081 156.472C8.03762 156.512 7.98116 156.569 7.94142 156.643C7.90169 156.718 7.88183 156.806 7.88183 156.908H7.23722C7.23722 156.698 7.28479 156.516 7.37994 156.361C7.47509 156.206 7.6084 156.087 7.77988 156.002C7.95136 155.917 8.14898 155.875 8.37273 155.875C8.60276 155.875 8.803 155.916 8.97343 155.997C9.14491 156.078 9.27822 156.19 9.37337 156.333C9.46852 156.476 9.51609 156.64 9.51609 156.825C9.51609 156.947 9.49205 157.066 9.44395 157.184C9.3969 157.303 9.31273 157.434 9.19144 157.578C9.07015 157.721 8.89919 157.893 8.67857 158.094L8.20962 158.554V158.576H9.55844V159.131H7.26858ZM11.448 155.919V159.131H10.7689V156.563H10.75L10.0145 157.025V156.422L10.8096 155.919H11.448ZM13.4096 159.175C13.1681 159.175 12.9532 159.136 12.765 159.057C12.5779 158.978 12.431 158.869 12.3243 158.732C12.2177 158.596 12.1643 158.44 12.1643 158.267C12.1643 158.133 12.1947 158.01 12.2553 157.898C12.317 157.785 12.4006 157.692 12.5062 157.617C12.6118 157.542 12.73 157.494 12.8607 157.473V157.451C12.6892 157.417 12.5502 157.333 12.4435 157.202C12.3369 157.069 12.2835 156.915 12.2835 156.739C12.2835 156.573 12.3321 156.425 12.4294 156.295C12.5266 156.165 12.6599 156.062 12.8293 155.988C12.9998 155.913 13.1932 155.875 13.4096 155.875C13.6261 155.875 13.819 155.913 13.9884 155.988C14.1588 156.063 14.2926 156.166 14.3899 156.297C14.4871 156.426 14.5363 156.574 14.5373 156.739C14.5363 156.916 14.4819 157.07 14.3742 157.202C14.2665 157.333 14.1285 157.417 13.9601 157.451V157.473C14.0888 157.494 14.2053 157.542 14.3099 157.617C14.4155 157.692 14.4991 157.785 14.5608 157.898C14.6236 158.01 14.6555 158.133 14.6565 158.267C14.6555 158.44 14.6016 158.596 14.495 158.732C14.3883 158.869 14.2409 158.978 14.0527 159.057C13.8655 159.136 13.6512 159.175 13.4096 159.175ZM13.4096 158.676C13.5173 158.676 13.6114 158.657 13.6919 158.618C13.7725 158.578 13.8352 158.524 13.8802 158.455C13.9262 158.385 13.9492 158.304 13.9492 158.213C13.9492 158.12 13.9256 158.038 13.8786 157.967C13.8315 157.895 13.7678 157.839 13.6872 157.798C13.6067 157.756 13.5142 157.735 13.4096 157.735C13.3061 157.735 13.2136 157.756 13.132 157.798C13.0505 157.839 12.9862 157.895 12.9391 157.967C12.8931 158.038 12.8701 158.12 12.8701 158.213C12.8701 158.304 12.8926 158.385 12.9375 158.455C12.9825 158.524 13.0458 158.578 13.1273 158.618C13.2089 158.657 13.303 158.676 13.4096 158.676ZM13.4096 157.241C13.4996 157.241 13.5795 157.223 13.6496 157.186C13.7197 157.149 13.7745 157.099 13.8143 157.034C13.854 156.969 13.8739 156.894 13.8739 156.81C13.8739 156.726 13.854 156.653 13.8143 156.59C13.7745 156.526 13.7202 156.477 13.6512 156.441C13.5822 156.404 13.5016 156.386 13.4096 156.386C13.3187 156.386 13.2382 156.404 13.1681 156.441C13.098 156.477 13.0432 156.526 13.0034 156.59C12.9647 156.653 12.9454 156.726 12.9454 156.81C12.9454 156.894 12.9653 156.969 13.005 157.034C13.0447 157.099 13.0996 157.149 13.1697 157.186C13.2397 157.223 13.3197 157.241 13.4096 157.241Z" fill="black"/>
<path d="M21.8512 165.221H0.0205078V179.565H21.8512V165.221Z" fill="#4A90E2" stroke="black" stroke-width="0.303335"/>
<path d="M7.41523 174.396V173.907L8.55859 172.848C8.65583 172.754 8.73739 172.67 8.80326 172.594C8.87018 172.519 8.92089 172.445 8.95539 172.373C8.9899 172.3 9.00715 172.221 9.00715 172.136C9.00715 172.042 8.98571 171.961 8.94285 171.893C8.89998 171.824 8.84142 171.772 8.76719 171.735C8.69295 171.697 8.60878 171.678 8.51467 171.678C8.41639 171.678 8.33065 171.698 8.25746 171.738C8.18426 171.778 8.1278 171.835 8.08807 171.909C8.04834 171.983 8.02847 172.072 8.02847 172.174H7.38386C7.38386 171.964 7.43143 171.781 7.52658 171.627C7.62173 171.472 7.75505 171.352 7.92653 171.268C8.098 171.183 8.29562 171.14 8.51938 171.14C8.74941 171.14 8.94964 171.181 9.12007 171.263C9.29155 171.343 9.42487 171.455 9.52002 171.598C9.61516 171.742 9.66274 171.906 9.66274 172.091C9.66274 172.212 9.63869 172.332 9.59059 172.45C9.54354 172.568 9.45937 172.699 9.33808 172.844C9.21679 172.987 9.04584 173.159 8.82522 173.36L8.35627 173.819V173.841H9.70509V174.396H7.41523ZM11.5946 171.184V174.396H10.9155V171.829H10.8967L10.1611 172.29V171.688L10.9563 171.184H11.5946ZM12.4851 174.396L13.8166 171.762V171.74H12.2655V171.184H14.5193V171.747L13.1861 174.396H12.4851Z" fill="black"/>
<path d="M114.086 204.348L114.073 176.916L101.589 176.936L101.602 204.368L114.086 204.348Z" fill="#FFF9E6" stroke="black" stroke-width="0.303335"/>
<path d="M105.398 191.171L105.393 190.816L106.209 190.021C106.278 189.95 106.336 189.887 106.383 189.831C106.431 189.775 106.467 189.72 106.491 189.667C106.515 189.613 106.527 189.555 106.526 189.494C106.524 189.426 106.508 189.367 106.476 189.319C106.444 189.27 106.401 189.233 106.347 189.209C106.293 189.183 106.231 189.171 106.163 189.174C106.092 189.176 106.03 189.192 105.977 189.223C105.925 189.254 105.885 189.296 105.857 189.351C105.829 189.406 105.815 189.47 105.817 189.545L105.349 189.56C105.347 189.408 105.379 189.274 105.446 189.16C105.513 189.045 105.609 188.955 105.732 188.89C105.855 188.824 105.998 188.789 106.16 188.783C106.327 188.778 106.473 188.803 106.597 188.858C106.722 188.912 106.82 188.99 106.891 189.091C106.962 189.193 106.998 189.311 107 189.445C107.002 189.533 106.986 189.621 106.952 189.707C106.919 189.794 106.86 189.891 106.774 189.999C106.688 190.106 106.566 190.235 106.408 190.385L106.074 190.73L106.074 190.746L107.052 190.713L107.058 191.116L105.398 191.171ZM108.39 188.741L108.428 191.071L107.936 191.087L107.905 189.225L107.892 189.226L107.364 189.578L107.357 189.141L107.927 188.757L108.39 188.741ZM109.956 188.689L109.994 191.019L109.502 191.035L109.472 189.173L109.458 189.174L108.93 189.526L108.923 189.089L109.494 188.705L109.956 188.689Z" fill="black"/>
<path d="M100.917 204.362L100.903 176.93L88.4188 176.951L88.4326 204.383L100.917 204.362Z" fill="#FFF9E6" stroke="black" stroke-width="0.303335"/>
<path d="M91.9853 191.113L91.9853 190.758L92.8146 189.99C92.8852 189.921 92.9443 189.86 92.9921 189.805C93.0407 189.751 93.0774 189.697 93.1025 189.645C93.1275 189.592 93.14 189.535 93.14 189.473C93.14 189.405 93.1245 189.346 93.0934 189.297C93.0623 189.247 93.0199 189.208 92.966 189.182C92.9122 189.155 92.8511 189.141 92.7829 189.141C92.7116 189.141 92.6494 189.156 92.5963 189.184C92.5432 189.213 92.5023 189.255 92.4735 189.308C92.4446 189.362 92.4302 189.426 92.4302 189.501L91.9627 189.501C91.9627 189.348 91.9972 189.216 92.0663 189.104C92.1353 188.992 92.232 188.905 92.3564 188.843C92.4807 188.782 92.6241 188.751 92.7863 188.751C92.9532 188.751 93.0984 188.78 93.222 188.839C93.3464 188.898 93.4431 188.979 93.5121 189.083C93.581 189.187 93.6155 189.306 93.6155 189.44C93.6155 189.528 93.5981 189.615 93.5632 189.7C93.529 189.786 93.468 189.881 93.38 189.986C93.292 190.09 93.168 190.215 93.008 190.36L92.6678 190.694L92.6678 190.71L93.6461 190.709L93.646 191.112L91.9853 191.113ZM95.0167 188.782L95.0165 191.111L94.5239 191.112L94.5241 189.25L94.5105 189.25L93.977 189.584L93.977 189.147L94.5538 188.782L95.0167 188.782ZM95.5702 191.111L95.5702 190.756L96.3995 189.988C96.4701 189.92 96.5292 189.858 96.577 189.804C96.6256 189.749 96.6623 189.696 96.6874 189.643C96.7124 189.59 96.7249 189.533 96.7249 189.472C96.7249 189.403 96.7094 189.345 96.6783 189.295C96.6472 189.245 96.6048 189.207 96.5509 189.18C96.4971 189.153 96.436 189.14 96.3678 189.14C96.2965 189.14 96.2343 189.154 96.1812 189.183C96.1281 189.212 96.0872 189.253 96.0584 189.307C96.0295 189.361 96.0151 189.425 96.0151 189.499L95.5476 189.499C95.5476 189.347 95.5821 189.215 95.6512 189.102C95.7202 188.99 95.8169 188.903 95.9413 188.842C96.0656 188.78 96.209 188.749 96.3712 188.749C96.5381 188.749 96.6833 188.779 96.8069 188.838C96.9313 188.896 97.028 188.977 97.0969 189.081C97.1659 189.185 97.2004 189.304 97.2004 189.438C97.2004 189.526 97.183 189.613 97.1481 189.699C97.1139 189.785 97.0529 189.88 96.9649 189.984C96.8769 190.088 96.7529 190.213 96.5929 190.359L96.2527 190.692L96.2527 190.708L97.231 190.708L97.2309 191.111L95.5702 191.111Z" fill="black"/>
<path d="M87.7484 204.399L87.7354 176.967L75.2508 176.987L75.2638 204.419L87.7484 204.399Z" fill="#FFF9E6" stroke="black" stroke-width="0.303335"/>
<path d="M78.7733 191.166L78.7706 190.811L79.5941 190.031C79.6641 189.961 79.7227 189.899 79.7701 189.844C79.8182 189.788 79.8546 189.734 79.8792 189.682C79.9039 189.628 79.9159 189.571 79.9155 189.509C79.915 189.441 79.899 189.383 79.8675 189.334C79.8361 189.284 79.7933 189.247 79.7393 189.221C79.6852 189.194 79.6241 189.182 79.5559 189.183C79.4846 189.184 79.4225 189.199 79.3697 189.229C79.3168 189.258 79.2762 189.3 79.2477 189.355C79.2193 189.409 79.2054 189.473 79.206 189.548L78.7385 189.555C78.7373 189.402 78.7709 189.27 78.839 189.156C78.9072 189.043 79.0032 188.955 79.1271 188.891C79.251 188.828 79.3941 188.795 79.5564 188.793C79.7232 188.79 79.8686 188.817 79.9926 188.874C80.1174 188.931 80.2147 189.011 80.2845 189.113C80.3543 189.216 80.3897 189.335 80.3907 189.469C80.3913 189.557 80.3745 189.644 80.3403 189.73C80.3068 189.816 80.2465 189.913 80.1593 190.019C80.0721 190.124 79.9491 190.251 79.7902 190.399L79.4526 190.737L79.4527 190.753L80.4309 190.738L80.4339 191.141L78.7733 191.166ZM81.7867 188.79L81.8042 191.119L81.3117 191.127L81.2977 189.265L81.2841 189.265L80.7532 189.608L80.7499 189.171L81.3238 188.797L81.7867 188.79ZM83.219 191.129C83.0492 191.132 82.8977 191.105 82.7646 191.049C82.6322 190.992 82.5273 190.912 82.4499 190.81C82.3733 190.707 82.3334 190.588 82.3301 190.452L82.826 190.445C82.8295 190.502 82.8484 190.551 82.8829 190.594C82.9181 190.636 82.9646 190.668 83.0224 190.691C83.0802 190.713 83.1451 190.724 83.2171 190.723C83.2922 190.722 83.3584 190.708 83.4159 190.68C83.4733 190.653 83.5181 190.615 83.5504 190.568C83.5827 190.52 83.5986 190.466 83.5981 190.404C83.5976 190.342 83.5798 190.287 83.5445 190.24C83.5101 190.192 83.4605 190.155 83.3958 190.129C83.3319 190.102 83.256 190.09 83.168 190.091L82.9508 190.095L82.9481 189.733L83.1653 189.73C83.2396 189.728 83.3051 189.715 83.3618 189.688C83.4193 189.661 83.4637 189.625 83.4952 189.579C83.5267 189.532 83.5423 189.478 83.5418 189.417C83.5414 189.358 83.5269 189.307 83.4986 189.264C83.4709 189.219 83.432 189.185 83.3818 189.161C83.3323 189.137 83.2746 189.125 83.2086 189.126C83.1419 189.127 83.0809 189.14 83.0258 189.165C82.9706 189.19 82.9265 189.224 82.8934 189.269C82.8604 189.313 82.843 189.365 82.8411 189.424L82.3691 189.431C82.3704 189.297 82.4078 189.178 82.4813 189.075C82.5549 188.971 82.6544 188.89 82.7798 188.83C82.906 188.77 83.0487 188.738 83.208 188.736C83.3687 188.733 83.5096 188.76 83.6306 188.817C83.7516 188.873 83.8458 188.951 83.9133 189.049C83.9815 189.147 84.0157 189.257 84.0159 189.38C84.0176 189.51 83.9778 189.62 83.8966 189.708C83.8161 189.797 83.7108 189.854 83.5805 189.879L83.5807 189.897C83.7522 189.917 83.883 189.974 83.9733 190.07C84.0642 190.165 84.1098 190.285 84.1102 190.429C84.1119 190.562 84.0745 190.681 83.9979 190.785C83.9221 190.889 83.817 190.972 83.6824 191.033C83.5479 191.095 83.3934 191.126 83.219 191.129Z" fill="black"/>
<path d="M74.5777 204.401L74.5645 176.969L62.0799 176.989L62.0931 204.421L74.5777 204.401Z" fill="#4A90E2" stroke="black" stroke-width="0.303335"/>
<path d="M65.5816 191.206L65.5779 190.851L66.399 190.066C66.4688 189.996 66.5273 189.933 66.5745 189.878C66.6224 189.822 66.6586 189.768 66.6831 189.715C66.7076 189.661 66.7195 189.604 66.7188 189.542C66.7181 189.474 66.702 189.416 66.6704 189.367C66.6388 189.318 66.5959 189.28 66.5418 189.255C66.4877 189.229 66.4265 189.216 66.3583 189.218C66.287 189.219 66.225 189.235 66.1722 189.265C66.1194 189.295 66.0789 189.337 66.0507 189.392C66.0224 189.446 66.0087 189.511 66.0095 189.585L65.5421 189.595C65.5405 189.442 65.5736 189.309 65.6414 189.196C65.7092 189.082 65.805 188.993 65.9287 188.929C66.0524 188.865 66.1954 188.831 66.3576 188.828C66.5244 188.824 66.6699 188.851 66.7941 188.907C66.9191 188.963 67.0166 189.042 67.0867 189.144C67.1567 189.247 67.1925 189.365 67.1939 189.499C67.1948 189.587 67.1783 189.674 67.1443 189.761C67.1111 189.847 67.051 189.944 66.9642 190.05C66.8773 190.156 66.7546 190.283 66.5962 190.432L66.2596 190.773L66.2598 190.789L67.2378 190.768L67.242 191.171L65.5816 191.206ZM68.5879 188.812L68.6121 191.141L68.1197 191.152L68.1003 189.29L68.0867 189.29L67.5568 189.636L67.5522 189.199L68.125 188.822L68.5879 188.812ZM69.1262 190.721L69.1221 190.333L70.0786 188.78L70.4129 188.773L70.4185 189.31L70.2206 189.314L69.6177 190.297L69.6179 190.315L70.9997 190.286L71.0038 190.681L69.1262 190.721ZM70.2484 191.106L70.2429 190.579L70.2502 190.407L70.2332 188.777L70.695 188.767L70.7192 191.096L70.2484 191.106Z" fill="black"/>
<path d="M61.2955 204.422L61.2822 176.99L48.7977 177.011L48.8109 204.443L61.2955 204.422Z" fill="#4A90E2" stroke="black" stroke-width="0.303335"/>
<path d="M52.3505 191.227L52.3459 190.872L53.1651 190.083C53.2347 190.013 53.2931 189.95 53.3401 189.894C53.3879 189.838 53.424 189.784 53.4484 189.731C53.4727 189.677 53.4845 189.62 53.4837 189.558C53.4828 189.49 53.4665 189.432 53.4348 189.383C53.4031 189.334 53.3601 189.297 53.306 189.272C53.2518 189.246 53.1906 189.234 53.1224 189.235C53.0511 189.237 52.9891 189.253 52.9364 189.283C52.8837 189.314 52.8433 189.356 52.8152 189.411C52.7871 189.465 52.7735 189.53 52.7745 189.604L52.3071 189.616C52.3051 189.464 52.3379 189.331 52.4055 189.217C52.473 189.103 52.5686 189.013 52.6921 188.949C52.8157 188.884 52.9586 188.849 53.1208 188.845C53.2876 188.841 53.4331 188.867 53.5575 188.922C53.6825 188.978 53.7802 189.056 53.8505 189.158C53.9209 189.26 53.9569 189.379 53.9586 189.513C53.9597 189.601 53.9434 189.688 53.9096 189.775C53.8766 189.861 53.8168 189.958 53.7302 190.065C53.6436 190.171 53.5212 190.299 53.3632 190.449L53.0274 190.791L53.0276 190.807L54.0056 190.781L54.0107 191.184L52.3505 191.227ZM55.3509 188.819L55.3807 191.148L54.8883 191.161L54.8645 189.299L54.8508 189.299L54.3218 189.648L54.3162 189.211L54.888 188.831L55.3509 188.819ZM56.7852 191.143C56.6245 191.147 56.4808 191.122 56.3542 191.066C56.2284 191.01 56.128 190.931 56.0532 190.829C55.9783 190.727 55.9385 190.609 55.9337 190.475L56.4113 190.462C56.4178 190.552 56.4566 190.625 56.5279 190.679C56.5991 190.733 56.6832 190.759 56.7803 190.757C56.8576 190.755 56.9256 190.736 56.9843 190.7C57.0437 190.664 57.0897 190.614 57.1223 190.552C57.1556 190.489 57.1718 190.417 57.1707 190.337C57.1697 190.255 57.1513 190.183 57.1157 190.122C57.0807 190.061 57.0327 190.013 56.9717 189.98C56.9106 189.947 56.841 189.931 56.7629 189.932C56.6946 189.934 56.6285 189.95 56.5644 189.979C56.5011 190.009 56.4519 190.049 56.4169 190.098L55.9781 190.031L56.0727 188.8L57.4964 188.763L57.5015 189.165L56.4838 189.192L56.431 189.777L56.4446 189.777C56.4848 189.718 56.546 189.668 56.6282 189.628C56.7103 189.588 56.8026 189.567 56.9049 189.564C57.0451 189.561 57.1707 189.59 57.2814 189.653C57.3922 189.717 57.4802 189.805 57.5453 189.918C57.6105 190.031 57.6436 190.162 57.6448 190.312C57.6475 190.469 57.6129 190.609 57.541 190.733C57.4697 190.856 57.369 190.955 57.2387 191.028C57.1092 191.1 56.9581 191.139 56.7852 191.143Z" fill="black"/>
<path d="M48.0045 204.442L47.9912 177.01L35.5067 177.03L35.52 204.462L48.0045 204.442Z" fill="#FFF9E6" stroke="black" stroke-width="0.303335"/>
<path d="M39.0381 191.233L39.0343 190.878L39.855 190.092C39.9248 190.022 39.9833 189.959 40.0305 189.903C40.0784 189.848 40.1146 189.793 40.139 189.741C40.1635 189.687 40.1754 189.629 40.1747 189.568C40.174 189.5 40.1578 189.441 40.1262 189.393C40.0946 189.343 40.0517 189.306 39.9976 189.281C39.9435 189.255 39.8823 189.242 39.814 189.244C39.7428 189.245 39.6808 189.261 39.628 189.291C39.5752 189.321 39.5347 189.363 39.5065 189.418C39.4783 189.472 39.4646 189.537 39.4654 189.611L38.998 189.621C38.9963 189.469 39.0294 189.336 39.0972 189.222C39.1649 189.108 39.2607 189.019 39.3844 188.955C39.508 188.891 39.651 188.857 39.8132 188.854C39.98 188.85 40.1255 188.876 40.2498 188.933C40.3747 188.988 40.4723 189.067 40.5424 189.17C40.6125 189.272 40.6483 189.39 40.6497 189.524C40.6507 189.612 40.6342 189.7 40.6002 189.786C40.567 189.873 40.507 189.969 40.4202 190.076C40.3334 190.182 40.2108 190.309 40.0524 190.458L39.7159 190.799L39.7161 190.815L40.6942 190.793L40.6985 191.196L39.0381 191.233ZM42.0435 188.836L42.0686 191.166L41.5762 191.176L41.5561 189.314L41.5424 189.315L41.0127 189.661L41.008 189.224L41.5806 188.846L42.0435 188.836ZM43.5164 191.165C43.3966 191.167 43.2808 191.15 43.1689 191.113C43.0578 191.076 42.9578 191.014 42.8688 190.927C42.7799 190.84 42.7089 190.724 42.6558 190.579C42.6034 190.434 42.5761 190.255 42.5738 190.042C42.5724 189.846 42.5929 189.671 42.6352 189.516C42.6783 189.36 42.7405 189.228 42.822 189.118C42.9043 189.009 43.0031 188.924 43.1185 188.866C43.2338 188.806 43.3636 188.775 43.5076 188.772C43.663 188.768 43.8006 188.796 43.9203 188.854C44.04 188.911 44.1364 188.99 44.2095 189.092C44.2834 189.193 44.3286 189.308 44.3452 189.436L43.8596 189.447C43.8397 189.366 43.7993 189.303 43.7381 189.258C43.6769 189.213 43.6016 189.192 43.5122 189.194C43.3605 189.197 43.246 189.266 43.1686 189.399C43.0919 189.533 43.0541 189.713 43.055 189.94L43.0709 189.94C43.105 189.87 43.1514 189.81 43.21 189.76C43.2694 189.71 43.3368 189.671 43.4124 189.643C43.4887 189.615 43.5693 189.6 43.6542 189.598C43.7922 189.595 43.9153 189.625 44.0237 189.688C44.1321 189.75 44.2179 189.837 44.2813 189.948C44.3447 190.06 44.3772 190.188 44.3788 190.334C44.3805 190.492 44.3452 190.633 44.273 190.757C44.2015 190.882 44.1006 190.98 43.9702 191.053C43.8405 191.125 43.6893 191.162 43.5164 191.165ZM43.5099 190.779C43.5858 190.777 43.6534 190.757 43.7129 190.72C43.7724 190.682 43.8189 190.632 43.8524 190.569C43.8858 190.506 43.9021 190.436 43.9013 190.358C43.9004 190.281 43.8826 190.212 43.8478 190.151C43.8138 190.09 43.767 190.043 43.7075 190.007C43.648 189.972 43.5803 189.956 43.5045 189.957C43.4476 189.959 43.3951 189.97 43.3468 189.993C43.2992 190.015 43.2575 190.045 43.2215 190.084C43.1863 190.123 43.1587 190.168 43.1387 190.218C43.1188 190.268 43.1091 190.321 43.1098 190.377C43.1106 190.452 43.1284 190.52 43.1631 190.582C43.1987 190.643 43.2462 190.692 43.3058 190.727C43.3661 190.763 43.4341 190.78 43.5099 190.779Z" fill="black"/>
<path d="M29.1093 180.719H0.0136719V204.45H29.1093V180.719Z" fill="#74D5F6" stroke="black" stroke-width="0.303335"/>
<line x1="9.85502" y1="182.373" x2="9.85502" y2="188.908" stroke="black" stroke-width="1.51668"/>
<line x1="16.2984" y1="182.373" x2="16.2984" y2="188.908" stroke="black" stroke-width="1.51668"/>
<line x1="19.9478" y1="182.373" x2="19.9478" y2="188.908" stroke="black" stroke-width="1.51668"/>
<line x1="23.0679" y1="182.373" x2="23.0679" y2="188.908" stroke="black" stroke-width="1.51668"/>
<line x1="26.8018" y1="192.985" x2="6.13541" y2="192.985" stroke="black" stroke-width="1.51668"/>
<line x1="13.1792" y1="182.373" x2="13.1792" y2="188.908" stroke="black" stroke-width="1.51668"/>
<line x1="10.0787" y1="195.57" x2="10.0787" y2="202.106" stroke="black" stroke-width="1.51668"/>
<line x1="16.562" y1="195.57" x2="16.562" y2="202.106" stroke="black" stroke-width="1.51668"/>
<line x1="20.2037" y1="195.57" x2="20.2037" y2="202.106" stroke="black" stroke-width="1.51668"/>
<line x1="23.3257" y1="195.57" x2="23.3257" y2="202.106" stroke="black" stroke-width="1.51668"/>
<line x1="13.4361" y1="195.57" x2="13.4361" y2="202.106" stroke="black" stroke-width="1.51668"/>
<path d="M6.10461 187.303C2.45953 190.731 4.15189 195.731 5.45371 197.802M5.45371 197.802H3.50098M5.45371 197.802V194.16" stroke="black" stroke-width="1.51668"/>
<rect x="114.623" width="126.407" height="147.107" fill="#565656"/>
<path d="M240.992 20.3359H220.744V34.6512H240.992V20.3359Z" fill="#FFF9E6" stroke="black" stroke-width="0.303335"/>
<path d="M228.811 25.2771V26.9316H228.461V25.6091H228.451L228.072 25.8466V25.5364L228.482 25.2771H228.811ZM229.853 26.968C229.714 26.9675 229.594 26.9333 229.494 26.8654C229.395 26.7975 229.318 26.6992 229.264 26.5705C229.211 26.4418 229.184 26.2869 229.185 26.106C229.185 25.9255 229.211 25.7718 229.265 25.6447C229.319 25.5176 229.395 25.4209 229.495 25.3546C229.595 25.2879 229.714 25.2545 229.853 25.2545C229.991 25.2545 230.11 25.2879 230.21 25.3546C230.31 25.4214 230.387 25.5184 230.441 25.6455C230.495 25.7721 230.522 25.9255 230.521 26.106C230.521 26.2875 230.494 26.4426 230.44 26.5713C230.387 26.7 230.31 26.7983 230.211 26.8662C230.111 26.9341 229.992 26.968 229.853 26.968ZM229.853 26.678C229.948 26.678 230.023 26.6303 230.08 26.535C230.136 26.4396 230.164 26.2966 230.164 26.106C230.164 25.9805 230.151 25.876 230.125 25.7925C230.1 25.709 230.064 25.6463 230.017 25.6043C229.971 25.5623 229.916 25.5413 229.853 25.5413C229.759 25.5413 229.683 25.5884 229.627 25.6826C229.57 25.7769 229.542 25.918 229.541 26.106C229.541 26.2331 229.554 26.3392 229.579 26.4243C229.605 26.5088 229.641 26.5724 229.688 26.6149C229.735 26.657 229.79 26.678 229.853 26.678ZM231.382 26.9543C231.261 26.9543 231.154 26.9335 231.06 26.8921C230.966 26.85 230.892 26.7924 230.837 26.7192C230.784 26.6454 230.756 26.5603 230.754 26.4639H231.106C231.109 26.5043 231.122 26.5398 231.146 26.5705C231.171 26.6007 231.204 26.6241 231.245 26.6408C231.286 26.6575 231.332 26.6658 231.383 26.6658C231.436 26.6658 231.483 26.6564 231.524 26.6376C231.565 26.6187 231.597 26.5926 231.62 26.5592C231.643 26.5258 231.655 26.4873 231.655 26.4437C231.655 26.3995 231.643 26.3605 231.618 26.3265C231.594 26.2921 231.559 26.2651 231.513 26.2457C231.468 26.2264 231.414 26.2167 231.351 26.2167H231.197V25.9598H231.351C231.404 25.9598 231.451 25.9506 231.491 25.9323C231.532 25.914 231.564 25.8887 231.586 25.8563C231.609 25.8235 231.62 25.7852 231.62 25.7416C231.62 25.7001 231.61 25.6638 231.59 25.6326C231.571 25.6008 231.544 25.576 231.508 25.5582C231.473 25.5405 231.432 25.5316 231.385 25.5316C231.338 25.5316 231.294 25.5402 231.255 25.5574C231.216 25.5741 231.184 25.5981 231.161 25.6293C231.137 25.6606 231.124 25.6972 231.123 25.7392H230.787C230.789 25.6439 230.816 25.5598 230.869 25.4871C230.922 25.4144 230.993 25.3576 231.082 25.3167C231.172 25.2752 231.274 25.2545 231.387 25.2545C231.501 25.2545 231.601 25.2752 231.687 25.3167C231.772 25.3581 231.839 25.4142 231.886 25.4847C231.934 25.5547 231.958 25.6334 231.957 25.7206C231.958 25.8133 231.929 25.8905 231.871 25.9525C231.813 26.0144 231.738 26.0537 231.645 26.0704V26.0834C231.767 26.099 231.86 26.1413 231.923 26.2102C231.987 26.2786 232.019 26.3642 232.019 26.4671C232.019 26.5614 231.992 26.6451 231.937 26.7184C231.883 26.7916 231.807 26.8492 231.712 26.8912C231.616 26.9333 231.506 26.9543 231.382 26.9543ZM232.565 26.9316H232.19L232.761 25.2771H233.212L233.782 26.9316H233.408L232.993 25.6552H232.98L232.565 26.9316ZM232.542 26.2813H233.427V26.5544H232.542V26.2813Z" fill="black"/>
<path d="M127.928 112.91L127.971 143.471L143.718 143.393L143.675 112.832L127.928 112.91Z" fill="#74D5F6" stroke="black" stroke-width="0.303335"/>
<line y1="-0.758339" x2="4.32581" y2="-0.758339" transform="matrix(0.999997 -0.00228795 0.0023249 0.999997 129.343 133.881)" stroke="black" stroke-width="1.51668"/>
<line y1="-0.758339" x2="4.32581" y2="-0.758339" transform="matrix(0.999997 -0.00228795 0.0023249 0.999997 129.318 127.104)" stroke="black" stroke-width="1.51668"/>
<line y1="-0.758339" x2="4.32581" y2="-0.758339" transform="matrix(0.999997 -0.00228795 0.0023249 0.999997 129.313 123.27)" stroke="black" stroke-width="1.51668"/>
<line y1="-0.758339" x2="4.32581" y2="-0.758339" transform="matrix(0.999997 -0.00228795 0.0023249 0.999997 129.307 119.986)" stroke="black" stroke-width="1.51668"/>
<line y1="-0.758339" x2="21.7287" y2="-0.758339" transform="matrix(0.00232491 0.999997 -0.999997 0.00228798 135.822 115.242)" stroke="black" stroke-width="1.51668"/>
<line y1="-0.758339" x2="4.32581" y2="-0.758339" transform="matrix(0.999997 -0.00228795 0.0023249 0.999997 129.329 130.387)" stroke="black" stroke-width="1.51668"/>
<line y1="-0.758339" x2="4.32581" y2="-0.758339" transform="matrix(0.999997 -0.00228795 0.0023249 0.999997 138.06 133.613)" stroke="black" stroke-width="1.51668"/>
<line y1="-0.758339" x2="4.32581" y2="-0.758339" transform="matrix(0.999997 -0.00228795 0.0023249 0.999997 138.051 126.816)" stroke="black" stroke-width="1.51668"/>
<line y1="-0.758339" x2="4.32581" y2="-0.758339" transform="matrix(0.999997 -0.00228795 0.0023249 0.999997 138.036 122.973)" stroke="black" stroke-width="1.51668"/>
<line y1="-0.758339" x2="4.32581" y2="-0.758339" transform="matrix(0.999997 -0.00228795 0.0023249 0.999997 138.033 119.697)" stroke="black" stroke-width="1.51668"/>
<line y1="-0.758339" x2="4.32581" y2="-0.758339" transform="matrix(0.999997 -0.00228795 0.0023249 0.999997 138.052 130.098)" stroke="black" stroke-width="1.51668"/>
<path d="M139.573 137.63C137.212 141.931 133.946 139.843 132.608 138.262M132.608 138.262L132.559 140.591M132.608 138.262L135.019 138.312" stroke="black" stroke-width="1.51668"/>
<path d="M240.93 3.33227L220.752 3.38867L220.836 20.3499L241.014 20.2935L240.93 3.33227Z" fill="#74D5F6" stroke="black" stroke-width="0.303335"/>
<line y1="-0.758339" x2="4.65091" y2="-0.758339" transform="matrix(0.00281509 0.999994 -0.999987 0.00591405 227.08 4.89062)" stroke="black" stroke-width="1.51668"/>
<line y1="-0.758339" x2="4.65091" y2="-0.758339" transform="matrix(0.00281509 0.999994 -0.999987 0.00591405 231.562 4.85156)" stroke="black" stroke-width="1.51668"/>
<line y1="-0.758339" x2="4.65091" y2="-0.758339" transform="matrix(0.00281509 0.999994 -0.999987 0.00591405 234.088 4.84961)" stroke="black" stroke-width="1.51668"/>
<line y1="-0.758339" x2="4.65091" y2="-0.758339" transform="matrix(0.00281509 0.999994 -0.999987 0.00591405 236.264 4.8125)" stroke="black" stroke-width="1.51668"/>
<line y1="-0.758339" x2="14.3546" y2="-0.758339" transform="matrix(-0.999987 0.00591407 -0.0028151 -0.999994 239.398 11.8301)" stroke="black" stroke-width="1.51668"/>
<line y1="-0.758339" x2="4.65091" y2="-0.758339" transform="matrix(0.00281509 0.999994 -0.999987 0.00591405 229.393 4.85938)" stroke="black" stroke-width="1.51668"/>
<line y1="-0.758339" x2="4.65091" y2="-0.758339" transform="matrix(0.00281509 0.999994 -0.999987 0.00591405 227.266 14.2559)" stroke="black" stroke-width="1.51668"/>
<line y1="-0.758339" x2="4.65091" y2="-0.758339" transform="matrix(0.00281509 0.999994 -0.999987 0.00591405 231.765 14.2363)" stroke="black" stroke-width="1.51668"/>
<line y1="-0.758339" x2="4.65091" y2="-0.758339" transform="matrix(0.00281509 0.999994 -0.999987 0.00591405 234.298 14.2031)" stroke="black" stroke-width="1.51668"/>
<line y1="-0.758339" x2="4.65091" y2="-0.758339" transform="matrix(0.00281509 0.999994 -0.999987 0.00591405 236.467 14.1992)" stroke="black" stroke-width="1.51668"/>
<line y1="-0.758339" x2="4.65091" y2="-0.758339" transform="matrix(0.00281509 0.999994 -0.999987 0.00591405 229.594 14.25)" stroke="black" stroke-width="1.51668"/>
<path d="M224.613 15.8927C221.769 13.3602 223.143 9.84602 224.186 8.40548M224.186 8.40548L222.647 8.35562M224.186 8.40548L224.156 10.9973" stroke="black" stroke-width="1.51668"/>
<path d="M143.736 96.6973H127.957V111.073H143.736V96.6973Z" fill="#FA8BED" stroke="black" stroke-width="0.303335"/>
<path d="M134.41 106.291V101.989H137.309V102.739H135.32V103.764H137.16V104.514H135.32V105.541H137.317V106.291H134.41Z" fill="black"/>
<path d="M149.131 96.5936L149.147 143.686L194.293 143.649L194.276 96.5566L149.131 96.5936Z" fill="#FFF9E6" stroke="black" stroke-width="0.303335"/>
<path d="M195.792 96.5643L195.809 143.656L240.954 143.612L240.937 96.5202L195.792 96.5643Z" fill="#FFF9E6" stroke="black" stroke-width="0.303335"/>
<path d="M166.381 122.066L166.375 121.411L167.895 119.976C168.024 119.849 168.133 119.734 168.22 119.633C168.309 119.531 168.376 119.431 168.421 119.334C168.467 119.236 168.489 119.13 168.488 119.016C168.487 118.89 168.457 118.782 168.399 118.692C168.341 118.6 168.262 118.53 168.162 118.482C168.063 118.433 167.95 118.409 167.824 118.41C167.692 118.411 167.577 118.439 167.48 118.494C167.382 118.548 167.307 118.625 167.255 118.725C167.202 118.825 167.177 118.944 167.178 119.081L166.315 119.09C166.312 118.809 166.374 118.563 166.5 118.355C166.626 118.146 166.803 117.984 167.031 117.868C167.26 117.752 167.524 117.693 167.824 117.69C168.132 117.686 168.401 117.738 168.63 117.845C168.86 117.95 169.04 118.098 169.169 118.289C169.298 118.479 169.364 118.698 169.366 118.946C169.367 119.108 169.336 119.269 169.273 119.428C169.211 119.587 169.1 119.764 168.939 119.959C168.778 120.152 168.551 120.385 168.258 120.657L167.635 121.279L167.635 121.309L169.441 121.289L169.447 122.033L166.381 122.066ZM171.794 122.102C171.432 122.105 171.121 122.019 170.859 121.846C170.598 121.672 170.397 121.419 170.254 121.085C170.113 120.752 170.041 120.35 170.038 119.88C170.035 119.411 170.101 119.01 170.237 118.678C170.374 118.346 170.572 118.093 170.829 117.918C171.088 117.741 171.398 117.651 171.758 117.647C172.117 117.644 172.428 117.727 172.688 117.898C172.95 118.069 173.152 118.319 173.295 118.648C173.438 118.975 173.51 119.374 173.512 119.843C173.516 120.315 173.45 120.719 173.312 121.055C173.176 121.391 172.979 121.649 172.722 121.828C172.464 122.007 172.155 122.099 171.794 122.102ZM171.787 121.348C172.034 121.346 172.23 121.22 172.375 120.97C172.52 120.721 172.589 120.348 172.584 119.853C172.581 119.526 172.546 119.255 172.477 119.039C172.409 118.822 172.314 118.66 172.191 118.552C172.07 118.444 171.927 118.391 171.764 118.393C171.519 118.396 171.323 118.52 171.178 118.767C171.033 119.014 170.962 119.381 170.965 119.87C170.967 120.2 171.002 120.476 171.07 120.696C171.139 120.916 171.235 121.08 171.358 121.189C171.48 121.297 171.624 121.35 171.787 121.348ZM174.178 121.982L174.173 121.327L175.693 119.893C175.822 119.765 175.93 119.651 176.018 119.549C176.106 119.447 176.174 119.348 176.219 119.251C176.264 119.152 176.287 119.046 176.286 118.933C176.285 118.807 176.255 118.699 176.197 118.608C176.139 118.516 176.06 118.447 175.96 118.399C175.86 118.349 175.747 118.325 175.621 118.327C175.49 118.328 175.375 118.356 175.277 118.41C175.18 118.464 175.105 118.541 175.052 118.641C175 118.741 174.974 118.86 174.976 118.997L174.112 119.007C174.11 118.725 174.172 118.48 174.297 118.271C174.423 118.063 174.6 117.901 174.829 117.785C175.058 117.669 175.322 117.609 175.622 117.606C175.93 117.603 176.198 117.655 176.428 117.761C176.658 117.867 176.838 118.015 176.967 118.205C177.096 118.396 177.161 118.615 177.163 118.863C177.165 119.025 177.134 119.186 177.07 119.345C177.009 119.504 176.897 119.68 176.737 119.875C176.576 120.069 176.349 120.302 176.055 120.574L175.432 121.196L175.433 121.225L177.239 121.206L177.245 121.95L174.178 121.982Z" fill="black"/>
<path d="M213.412 122.067L213.407 121.412L214.926 119.978C215.056 119.85 215.164 119.736 215.251 119.634C215.34 119.532 215.407 119.433 215.453 119.336C215.498 119.237 215.52 119.131 215.519 119.018C215.518 118.892 215.489 118.784 215.431 118.693C215.372 118.601 215.293 118.531 215.194 118.484C215.094 118.434 214.981 118.41 214.855 118.412C214.723 118.413 214.609 118.441 214.511 118.495C214.413 118.549 214.338 118.626 214.286 118.726C214.234 118.826 214.208 118.945 214.209 119.082L213.346 119.091C213.344 118.81 213.405 118.565 213.531 118.356C213.657 118.148 213.834 117.986 214.063 117.87C214.292 117.754 214.556 117.694 214.855 117.691C215.163 117.688 215.432 117.739 215.661 117.846C215.892 117.952 216.071 118.1 216.2 118.29C216.329 118.48 216.395 118.7 216.397 118.948C216.398 119.11 216.367 119.271 216.304 119.43C216.242 119.588 216.131 119.765 215.97 119.96C215.809 120.154 215.582 120.387 215.289 120.659L214.666 121.281L214.666 121.31L216.472 121.291L216.478 122.035L213.412 122.067ZM218.825 122.104C218.464 122.106 218.152 122.021 217.89 121.847C217.63 121.674 217.428 121.42 217.285 121.087C217.144 120.754 217.072 120.352 217.07 119.881C217.066 119.412 217.132 119.012 217.268 118.68C217.405 118.348 217.603 118.094 217.861 117.919C218.12 117.743 218.429 117.653 218.789 117.649C219.149 117.645 219.459 117.729 219.719 117.899C219.981 118.07 220.183 118.32 220.326 118.649C220.469 118.977 220.541 119.375 220.544 119.844C220.548 120.316 220.481 120.72 220.344 121.056C220.208 121.392 220.011 121.65 219.753 121.829C219.496 122.009 219.186 122.1 218.825 122.104ZM218.819 121.35C219.065 121.347 219.261 121.221 219.406 120.972C219.551 120.722 219.621 120.35 219.615 119.854C219.613 119.528 219.577 119.257 219.508 119.04C219.44 118.824 219.345 118.662 219.223 118.554C219.101 118.446 218.959 118.393 218.795 118.395C218.55 118.397 218.355 118.522 218.21 118.768C218.065 119.015 217.993 119.383 217.996 119.871C217.999 120.202 218.034 120.477 218.101 120.698C218.17 120.917 218.266 121.081 218.389 121.191C218.512 121.299 218.655 121.352 218.819 121.35ZM221.138 121.228L221.133 120.512L222.906 117.664L223.523 117.657L223.531 118.649L223.166 118.652L222.048 120.456L222.048 120.49L224.6 120.463L224.606 121.191L221.138 121.228ZM223.209 121.963L223.201 120.988L223.216 120.671L223.191 117.661L224.044 117.652L224.079 121.953L223.209 121.963Z" fill="black"/>
<path d="M127.959 41.9689L127.975 88.9414L178.597 88.9004L178.581 41.9279L127.959 41.9689Z" fill="#FFD700" stroke="black" stroke-width="0.303335"/>
<path d="M180.279 41.9415L180.295 88.9141L230.917 88.8676L230.901 41.8951L180.279 41.9415Z" fill="#FFD700" stroke="black" stroke-width="0.303335"/>
<path d="M148.367 67.3894L148.361 66.7341L149.88 65.3017C150.009 65.1744 150.117 65.0599 150.204 64.9583C150.293 64.8566 150.36 64.7572 150.405 64.6601C150.451 64.5617 150.473 64.4557 150.472 64.3423C150.471 64.2163 150.441 64.108 150.383 64.0176C150.324 63.9257 150.245 63.8557 150.145 63.8077C150.046 63.7582 149.933 63.7341 149.807 63.7353C149.675 63.7366 149.56 63.7643 149.463 63.8184C149.365 63.8726 149.29 63.9496 149.238 64.0495C149.186 64.1495 149.16 64.268 149.161 64.4053L148.298 64.4135C148.296 64.1321 148.357 63.8871 148.483 63.6787C148.608 63.4702 148.785 63.3082 149.014 63.1925C149.243 63.0769 149.507 63.0177 149.806 63.0148C150.114 63.0119 150.383 63.0639 150.612 63.1709C150.843 63.2766 151.023 63.4247 151.152 63.6153C151.281 63.8059 151.347 64.0252 151.349 64.273C151.351 64.4354 151.32 64.5961 151.257 64.7549C151.195 64.9138 151.084 65.0906 150.923 65.2854C150.763 65.4788 150.536 65.7113 150.243 65.983L149.62 66.6044L149.621 66.6338L151.427 66.6165L151.434 67.3601L148.367 67.3894ZM153.78 67.4322C153.419 67.4342 153.107 67.3483 152.845 67.1743C152.585 67.0004 152.383 66.7467 152.24 66.4134C152.098 66.0801 152.026 65.6781 152.023 65.2076C152.019 64.7385 152.084 64.3381 152.22 64.0063C152.357 63.6745 152.554 63.4212 152.812 63.2465C153.071 63.0704 153.38 62.9806 153.74 62.9772C154.1 62.9737 154.41 63.0576 154.671 63.2287C154.933 63.3999 155.135 63.65 155.278 63.9791C155.421 64.3069 155.494 64.7053 155.497 65.1744C155.501 65.6463 155.435 66.0502 155.298 66.3862C155.162 66.7222 154.966 66.9797 154.708 67.1586C154.451 67.3375 154.141 67.4287 153.78 67.4322ZM153.773 66.6781C154.02 66.6757 154.215 66.5499 154.36 66.3007C154.505 66.0514 154.574 65.679 154.569 65.1833C154.566 64.857 154.53 64.5857 154.46 64.3693C154.393 64.1529 154.297 63.9906 154.175 63.8826C154.053 63.7745 153.91 63.7212 153.747 63.7228C153.502 63.7252 153.307 63.8496 153.162 64.096C153.017 64.3425 152.946 64.71 152.949 65.1988C152.952 65.5292 152.988 65.8048 153.055 66.0254C153.125 66.2446 153.221 66.4089 153.343 66.5184C153.466 66.6264 153.61 66.6797 153.773 66.6781ZM157.997 62.9952L158.036 67.2969L157.127 67.3056L157.096 63.8672L157.071 63.8675L156.091 64.4944L156.084 63.6878L157.143 63.0034L157.997 62.9952Z" fill="black"/>
<path d="M200.762 67.3942L200.756 66.7389L202.274 65.3065C202.404 65.1792 202.512 65.0647 202.599 64.9631C202.688 64.8614 202.755 64.762 202.8 64.665C202.845 64.5665 202.868 64.4605 202.867 64.3471C202.865 64.2211 202.836 64.1129 202.778 64.0224C202.719 63.9305 202.64 63.8606 202.54 63.8125C202.44 63.763 202.328 63.7389 202.202 63.7401C202.07 63.7414 201.955 63.7691 201.858 63.8232C201.76 63.8774 201.685 63.9544 201.633 64.0543C201.581 64.1543 201.555 64.2728 201.556 64.4101L200.693 64.4183C200.691 64.1369 200.752 63.8919 200.878 63.6835C201.003 63.475 201.18 63.313 201.409 63.1973C201.638 63.0817 201.902 63.0225 202.201 63.0196C202.509 63.0167 202.778 63.0687 203.007 63.1757C203.238 63.2814 203.418 63.4295 203.547 63.6201C203.676 63.8107 203.742 64.03 203.744 64.2778C203.745 64.4402 203.715 64.6009 203.652 64.7597C203.59 64.9186 203.479 65.0954 203.318 65.2902C203.158 65.4836 202.931 65.7161 202.638 65.9878L202.015 66.6092L202.016 66.6386L203.822 66.6213L203.829 67.3649L200.762 67.3942ZM206.175 67.437C205.814 67.439 205.502 67.3531 205.24 67.1791C204.979 67.0052 204.778 66.7515 204.635 66.4182C204.493 66.0849 204.421 65.6829 204.418 65.2124C204.414 64.7433 204.479 64.3429 204.615 64.0111C204.752 63.6793 204.949 63.426 205.207 63.2513C205.466 63.0752 205.775 62.9854 206.135 62.982C206.495 62.9785 206.805 63.0624 207.066 63.2335C207.328 63.4047 207.53 63.6548 207.673 63.9839C207.816 64.3117 207.889 64.7101 207.892 65.1792C207.896 65.6511 207.83 66.055 207.693 66.391C207.557 66.727 207.361 66.9845 207.103 67.1634C206.846 67.3423 206.536 67.4335 206.175 67.437ZM206.168 66.6829C206.415 66.6806 206.61 66.5547 206.755 66.3055C206.9 66.0562 206.969 65.6838 206.964 65.1881C206.961 64.8618 206.925 64.5905 206.855 64.3741C206.788 64.1577 206.692 63.9954 206.569 63.8874C206.448 63.7793 206.305 63.726 206.142 63.7276C205.897 63.73 205.702 63.8544 205.557 64.1008C205.412 64.3473 205.341 64.7149 205.344 65.2036C205.347 65.534 205.382 65.8096 205.45 66.0302C205.519 66.2494 205.615 66.4137 205.738 66.5232C205.861 66.6312 206.004 66.6845 206.168 66.6829ZM210.15 67.3632C209.837 67.3662 209.557 67.315 209.311 67.2095C209.066 67.1026 208.872 66.9546 208.729 66.7655C208.587 66.575 208.513 66.3545 208.507 66.1039L209.423 66.0951C209.429 66.2001 209.464 66.2922 209.528 66.3714C209.593 66.4492 209.679 66.5093 209.786 66.5517C209.893 66.5941 210.013 66.6146 210.146 66.6133C210.284 66.612 210.407 66.5863 210.513 66.5363C210.619 66.4863 210.701 66.4176 210.761 66.3302C210.82 66.2428 210.849 66.1424 210.848 66.029C210.847 65.9141 210.814 65.8129 210.749 65.7253C210.685 65.6363 210.593 65.5672 210.474 65.5179C210.356 65.4686 210.216 65.4447 210.053 65.4463L209.652 65.4501L209.646 64.7822L210.047 64.7784C210.184 64.777 210.305 64.7521 210.41 64.7035C210.516 64.6548 210.598 64.5882 210.656 64.5037C210.714 64.4177 210.743 64.318 210.741 64.2045C210.741 64.0967 210.714 64.0025 210.661 63.9217C210.61 63.8396 210.538 63.7759 210.445 63.7305C210.354 63.6852 210.247 63.6631 210.125 63.6643C210.002 63.6655 209.89 63.6889 209.788 63.7347C209.686 63.7791 209.605 63.8422 209.544 63.924C209.483 64.0058 209.451 64.1014 209.448 64.2106L208.576 64.219C208.578 63.9711 208.647 63.752 208.782 63.5616C208.918 63.3713 209.101 63.2218 209.333 63.1131C209.566 63.0031 209.829 62.9466 210.123 62.9438C210.42 62.941 210.68 62.9924 210.904 63.0981C211.127 63.2038 211.302 63.3477 211.426 63.53C211.553 63.7108 211.616 63.9147 211.617 64.1416C211.62 64.3824 211.547 64.584 211.398 64.7465C211.249 64.909 211.055 65.0131 210.814 65.0588L210.815 65.0924C211.131 65.13 211.373 65.2376 211.54 65.4153C211.708 65.5915 211.793 65.8134 211.794 66.0808C211.798 66.3259 211.729 66.5443 211.588 66.7361C211.448 66.9279 211.254 67.0796 211.006 67.1912C210.758 67.3028 210.472 67.3601 210.15 67.3632Z" fill="black"/>
<path d="M216.126 25.9261L216.109 3.33594L202.106 3.34974L202.123 25.9399L216.126 25.9261Z" fill="#FFF9E6" stroke="black" stroke-width="0.303335"/>
<path d="M206.157 15.6002L206.149 15.2454L206.96 14.4577C207.029 14.3877 207.087 14.3249 207.134 14.2691C207.181 14.2134 207.217 14.159 207.24 14.1061C207.264 14.0524 207.276 13.9949 207.274 13.9335C207.273 13.8653 207.256 13.8069 207.224 13.7583C207.191 13.7091 207.148 13.6718 207.094 13.6466C207.039 13.6206 206.978 13.6084 206.91 13.6101C206.838 13.6118 206.777 13.6277 206.724 13.6578C206.672 13.6879 206.632 13.7302 206.604 13.7847C206.576 13.8393 206.564 13.9037 206.565 13.978L206.098 13.9893C206.094 13.8369 206.126 13.7038 206.192 13.5899C206.259 13.476 206.354 13.3869 206.477 13.3224C206.6 13.258 206.742 13.2238 206.904 13.2199C207.071 13.2159 207.217 13.2419 207.342 13.2981C207.468 13.3534 207.566 13.4322 207.637 13.5344C207.709 13.6366 207.746 13.7548 207.749 13.889C207.751 13.9769 207.735 14.0642 207.702 14.1507C207.67 14.2372 207.611 14.3338 207.526 14.4406C207.44 14.5466 207.319 14.6743 207.162 14.8237L206.83 15.1652L206.83 15.1811L207.808 15.1574L207.817 15.56L206.157 15.6002ZM209.035 15.5623C208.865 15.5665 208.714 15.5409 208.58 15.4858C208.446 15.4298 208.34 15.3512 208.261 15.25C208.183 15.1479 208.142 15.0291 208.136 14.8934L208.632 14.8814C208.636 14.9382 208.656 14.9878 208.691 15.0302C208.727 15.0718 208.774 15.1037 208.832 15.1258C208.89 15.1479 208.955 15.1581 209.027 15.1563C209.102 15.1545 209.168 15.1396 209.225 15.1117C209.282 15.0838 209.327 15.0459 209.358 14.9981C209.39 14.9503 209.405 14.8957 209.404 14.8343C209.402 14.7721 209.383 14.7176 209.348 14.6707C209.312 14.623 209.262 14.5863 209.197 14.5605C209.133 14.5348 209.057 14.523 208.969 14.5251L208.752 14.5304L208.744 14.1687L208.961 14.1634C209.035 14.1617 209.1 14.1472 209.157 14.12C209.214 14.0928 209.258 14.0561 209.288 14.0099C209.319 13.9629 209.334 13.9086 209.333 13.8472C209.331 13.7888 209.316 13.738 209.287 13.6947C209.259 13.6506 209.219 13.6167 209.169 13.5929C209.119 13.5691 209.061 13.558 208.995 13.5596C208.928 13.5612 208.868 13.5748 208.813 13.6004C208.758 13.6252 208.714 13.66 208.682 13.7048C208.65 13.7496 208.633 13.8016 208.632 13.8608L208.16 13.8722C208.159 13.738 208.195 13.6188 208.267 13.5146C208.339 13.4105 208.437 13.328 208.562 13.2674C208.687 13.2059 208.829 13.1733 208.989 13.1694C209.149 13.1655 209.291 13.1913 209.412 13.2468C209.534 13.3022 209.63 13.3788 209.699 13.4765C209.768 13.5734 209.804 13.6833 209.806 13.8062C209.81 13.9366 209.772 14.0463 209.692 14.1355C209.613 14.2247 209.508 14.2826 209.378 14.3092L209.379 14.3274C209.55 14.3453 209.682 14.4016 209.774 14.4965C209.866 14.5906 209.914 14.7101 209.916 14.8549C209.92 14.9875 209.884 15.1064 209.809 15.2113C209.735 15.3163 209.631 15.4 209.497 15.4624C209.364 15.5248 209.21 15.5581 209.035 15.5623ZM211.136 15.5115C210.975 15.5154 210.831 15.4893 210.704 15.4332C210.578 15.3771 210.477 15.298 210.401 15.1959C210.325 15.0938 210.284 14.9757 210.278 14.8416L210.755 14.83C210.763 14.9201 210.802 14.9923 210.874 15.0467C210.946 15.1011 211.03 15.1272 211.127 15.1248C211.205 15.1229 211.272 15.1042 211.331 15.0687C211.39 15.0323 211.435 14.9831 211.467 14.9209C211.5 14.8579 211.516 14.7862 211.514 14.7058C211.512 14.6239 211.493 14.5523 211.457 14.491C211.421 14.4297 211.373 14.3823 211.311 14.3489C211.25 14.3155 211.18 14.2993 211.102 14.3005C211.034 14.3021 210.968 14.3178 210.904 14.3474C210.841 14.377 210.792 14.4165 210.758 14.4658L210.318 14.398L210.401 13.1671L211.825 13.1326L211.834 13.5352L210.816 13.5598L210.769 14.1447L210.782 14.1444C210.822 14.0858 210.883 14.0365 210.964 13.9966C211.046 13.9567 211.138 13.9355 211.241 13.933C211.381 13.9296 211.507 13.9596 211.618 14.0229C211.729 14.0862 211.818 14.1747 211.885 14.2884C211.951 14.4013 211.985 14.5324 211.988 14.6818C211.992 14.8387 211.959 14.9791 211.888 15.103C211.818 15.226 211.718 15.324 211.588 15.397C211.46 15.4691 211.309 15.5073 211.136 15.5115Z" fill="black"/>
<path d="M201.354 25.928L201.336 3.33789L187.332 3.35224L187.35 25.9424L201.354 25.928Z" fill="#4A90E2" stroke="black" stroke-width="0.303335"/>
<path d="M191.163 15.5505L191.163 15.1788L192.032 14.3745C192.106 14.303 192.167 14.2387 192.218 14.1815C192.268 14.1243 192.307 14.0683 192.333 14.0135C192.359 13.9578 192.372 13.8979 192.372 13.8335C192.372 13.7621 192.356 13.7005 192.324 13.6489C192.291 13.5965 192.247 13.5564 192.19 13.5286C192.134 13.5 192.07 13.4857 191.998 13.4857C191.924 13.4857 191.859 13.5008 191.803 13.531C191.747 13.5612 191.704 13.6045 191.674 13.6609C191.644 13.7173 191.629 13.7844 191.629 13.8623L191.139 13.8624C191.139 13.7027 191.175 13.5641 191.248 13.4466C191.32 13.329 191.421 13.238 191.552 13.1737C191.682 13.1093 191.832 13.0771 192.002 13.0771C192.177 13.0771 192.329 13.108 192.458 13.1699C192.588 13.2311 192.69 13.316 192.762 13.4248C192.834 13.5336 192.87 13.6583 192.87 13.7989C192.87 13.891 192.852 13.982 192.816 14.0717C192.78 14.1615 192.716 14.2612 192.624 14.3708C192.532 14.4796 192.402 14.6103 192.234 14.7628L191.878 15.112L191.878 15.1287L192.903 15.1285L192.903 15.5502L191.163 15.5505ZM194.178 15.5834C194 15.5834 193.842 15.5528 193.703 15.4917C193.565 15.4298 193.455 15.3448 193.375 15.2368C193.296 15.128 193.255 15.0025 193.252 14.8604L193.772 14.8603C193.775 14.9198 193.795 14.9722 193.83 15.0175C193.867 15.062 193.915 15.0965 193.976 15.1211C194.036 15.1457 194.104 15.158 194.179 15.158C194.258 15.158 194.328 15.1441 194.388 15.1163C194.448 15.0885 194.496 15.05 194.53 15.0007C194.564 14.9515 194.581 14.8947 194.581 14.8303C194.581 14.7652 194.563 14.7076 194.526 14.6576C194.49 14.6068 194.439 14.5671 194.371 14.5385C194.304 14.5099 194.225 14.4956 194.133 14.4956L193.905 14.4957L193.905 14.1168L194.133 14.1168C194.211 14.1168 194.279 14.1032 194.339 14.0762C194.399 14.0492 194.446 14.0119 194.48 13.9642C194.513 13.9158 194.53 13.8594 194.53 13.795C194.53 13.7339 194.515 13.6803 194.486 13.6342C194.457 13.5873 194.417 13.5508 194.364 13.5246C194.312 13.4984 194.252 13.4853 194.183 13.4853C194.113 13.4853 194.049 13.4981 193.991 13.5235C193.933 13.5481 193.887 13.5835 193.852 13.6295C193.817 13.6756 193.798 13.7296 193.796 13.7916L193.301 13.7917C193.304 13.6511 193.344 13.5272 193.422 13.4199C193.5 13.3127 193.604 13.2289 193.736 13.1685C193.869 13.1073 194.019 13.0767 194.185 13.0767C194.354 13.0767 194.501 13.1072 194.627 13.1683C194.754 13.2295 194.852 13.3121 194.922 13.4161C194.992 13.5193 195.027 13.6353 195.026 13.764C195.027 13.9006 194.985 14.0146 194.899 14.1059C194.814 14.1973 194.703 14.2553 194.567 14.2799L194.567 14.299C194.746 14.322 194.883 14.3843 194.976 14.4859C195.071 14.5868 195.118 14.7131 195.117 14.8648C195.118 15.0038 195.078 15.1273 194.997 15.2353C194.916 15.3433 194.806 15.4284 194.664 15.4903C194.523 15.5523 194.361 15.5833 194.178 15.5834ZM195.451 15.1209L195.451 14.7146L196.47 13.1096L196.82 13.1096L196.82 13.6719L196.613 13.6719L195.97 14.6883L195.97 14.7074L197.418 14.7071L197.418 15.1205L195.451 15.1209ZM196.622 15.5495L196.622 14.9967L196.632 14.8168L196.632 13.1096L197.115 13.1095L197.115 15.5494L196.622 15.5495Z" fill="black"/>
<path d="M186.586 25.9397L186.566 3.34961L172.563 3.36675L172.582 25.9569L186.586 25.9397Z" fill="#7DD046" stroke="black" stroke-width="0.303335"/>
<path d="M176.44 15.5927L176.436 15.221L177.296 14.4071C177.37 14.3348 177.431 14.2697 177.48 14.212C177.531 14.1542 177.568 14.0978 177.594 14.0427C177.62 13.9868 177.632 13.9267 177.632 13.8624C177.631 13.7909 177.614 13.7295 177.581 13.6783C177.548 13.6262 177.503 13.5866 177.446 13.5595C177.389 13.5315 177.325 13.5179 177.254 13.5187C177.179 13.5196 177.114 13.5354 177.059 13.5662C177.004 13.597 176.961 13.6408 176.932 13.6975C176.902 13.7542 176.888 13.8215 176.888 13.8994L176.399 13.9049C176.397 13.7452 176.432 13.6062 176.503 13.4879C176.574 13.3695 176.674 13.2775 176.804 13.2117C176.934 13.1459 177.083 13.112 177.253 13.1101C177.428 13.1081 177.58 13.1374 177.71 13.1979C177.841 13.2575 177.944 13.3414 178.017 13.4494C178.09 13.5574 178.128 13.6817 178.129 13.8222C178.13 13.9144 178.113 14.0055 178.077 14.0957C178.042 14.1858 177.979 14.2862 177.888 14.3968C177.797 14.5067 177.669 14.6388 177.503 14.7932L177.15 15.1462L177.151 15.1629L178.175 15.1514L178.179 15.5731L176.44 15.5927ZM179.455 15.5921C179.277 15.5941 179.119 15.5653 178.979 15.5057C178.84 15.4453 178.73 15.3616 178.649 15.2545C178.568 15.1465 178.526 15.0215 178.522 14.8794L179.042 14.8735C179.045 14.9331 179.065 14.9853 179.102 15.0301C179.139 15.0742 179.187 15.1082 179.248 15.1321C179.309 15.1561 179.377 15.1676 179.452 15.1668C179.531 15.1659 179.6 15.1512 179.66 15.1227C179.72 15.0942 179.767 15.0552 179.801 15.0056C179.834 14.9559 179.851 14.899 179.85 14.8346C179.85 14.7695 179.831 14.7121 179.794 14.6625C179.757 14.6121 179.705 14.573 179.638 14.5451C179.571 14.5173 179.491 14.5039 179.399 14.5049L179.171 14.5075L179.167 14.1286L179.395 14.1261C179.473 14.1252 179.541 14.1109 179.601 14.0833C179.661 14.0556 179.707 14.0177 179.74 13.9697C179.773 13.9209 179.789 13.8643 179.788 13.8C179.788 13.7388 179.772 13.6854 179.743 13.6396C179.714 13.5931 179.673 13.557 179.62 13.5314C179.568 13.5058 179.508 13.4933 179.438 13.4941C179.369 13.4949 179.305 13.5083 179.247 13.5344C179.189 13.5597 179.143 13.5955 179.109 13.642C179.074 13.6885 179.056 13.7427 179.054 13.8047L178.56 13.8102C178.561 13.6696 178.6 13.5453 178.677 13.4372C178.753 13.3291 178.857 13.2441 178.988 13.1823C179.12 13.1196 179.27 13.0873 179.437 13.0855C179.605 13.0836 179.753 13.1125 179.88 13.1722C180.006 13.2319 180.105 13.3134 180.176 13.4167C180.248 13.5191 180.284 13.6347 180.285 13.7634C180.287 13.9 180.246 14.0144 180.161 14.1067C180.077 14.199 179.967 14.2582 179.83 14.2844L179.83 14.3035C180.01 14.3245 180.147 14.3853 180.242 14.4859C180.338 14.5857 180.386 14.7114 180.387 14.8631C180.389 15.0021 180.35 15.1261 180.27 15.235C180.191 15.3439 180.081 15.4301 179.94 15.4937C179.8 15.5572 179.638 15.59 179.455 15.5921ZM181.667 15.5672C181.489 15.5692 181.33 15.5404 181.19 15.4808C181.052 15.4204 180.942 15.3366 180.86 15.2295C180.78 15.1216 180.737 14.9966 180.734 14.8545L181.253 14.8486C181.257 14.9081 181.277 14.9603 181.313 15.0052C181.35 15.0493 181.399 15.0833 181.459 15.1072C181.52 15.1311 181.588 15.1427 181.664 15.1418C181.742 15.141 181.811 15.1263 181.872 15.0978C181.932 15.0693 181.978 15.0303 182.012 14.9806C182.046 14.931 182.062 14.874 182.062 14.8097C182.061 14.7446 182.042 14.6872 182.005 14.6376C181.969 14.5872 181.917 14.548 181.849 14.5202C181.782 14.4924 181.702 14.479 181.61 14.48L181.383 14.4826L181.379 14.1037L181.606 14.1012C181.684 14.1003 181.753 14.086 181.812 14.0583C181.872 14.0306 181.919 13.9928 181.951 13.9448C181.984 13.8959 182 13.8394 182 13.775C181.999 13.7139 181.984 13.6604 181.954 13.6147C181.925 13.5682 181.884 13.5321 181.831 13.5065C181.779 13.4808 181.719 13.4684 181.65 13.4692C181.58 13.47 181.516 13.4834 181.458 13.5095C181.401 13.5347 181.355 13.5706 181.32 13.6171C181.286 13.6635 181.268 13.7177 181.266 13.7797L180.771 13.7853C180.772 13.6447 180.811 13.5203 180.888 13.4122C180.965 13.3042 181.069 13.2192 181.2 13.1573C181.332 13.0947 181.481 13.0624 181.648 13.0605C181.816 13.0586 181.964 13.0876 182.091 13.1473C182.218 13.207 182.317 13.2885 182.388 13.3918C182.459 13.4942 182.496 13.6098 182.496 13.7385C182.498 13.875 182.457 13.9895 182.372 14.0818C182.288 14.1741 182.178 14.2333 182.042 14.2595L182.042 14.2785C182.222 14.2995 182.359 14.3604 182.454 14.461C182.549 14.5608 182.597 14.6865 182.598 14.8382C182.6 14.9772 182.561 15.1011 182.482 15.2101C182.402 15.319 182.293 15.4052 182.152 15.4688C182.011 15.5323 181.849 15.5651 181.667 15.5672Z" fill="black"/>
<path d="M171.802 25.9515L171.784 3.36133L157.781 3.37606L157.799 25.9662L171.802 25.9515Z" fill="#FFD700" stroke="black" stroke-width="0.303335"/>
<path d="M161.713 15.6088L161.707 15.2371L162.564 14.4195C162.637 14.3468 162.698 14.2815 162.747 14.2236C162.797 14.1656 162.835 14.109 162.86 14.0538C162.886 13.9978 162.898 13.9377 162.897 13.8733C162.896 13.8018 162.879 13.7406 162.846 13.6894C162.812 13.6375 162.767 13.5981 162.711 13.5712C162.654 13.5435 162.59 13.5302 162.518 13.5313C162.444 13.5325 162.379 13.5486 162.323 13.5796C162.268 13.6107 162.226 13.6546 162.197 13.7115C162.167 13.7683 162.153 13.8357 162.154 13.9135L161.665 13.9211C161.662 13.7615 161.697 13.6223 161.767 13.5037C161.838 13.385 161.938 13.2925 162.067 13.2261C162.196 13.1598 162.346 13.1253 162.516 13.1226C162.691 13.1199 162.843 13.1485 162.973 13.2085C163.105 13.2676 163.207 13.351 163.281 13.4587C163.355 13.5663 163.393 13.6905 163.395 13.831C163.396 13.9231 163.379 14.0144 163.344 14.1047C163.309 14.195 163.247 14.2956 163.156 14.4067C163.066 14.5169 162.938 14.6496 162.772 14.8047L162.421 15.1592L162.421 15.1759L163.446 15.16L163.452 15.5817L161.713 15.6088ZM164.728 15.5952C164.55 15.5979 164.391 15.5698 164.251 15.5108C164.112 15.451 164.002 15.3678 163.92 15.261C163.839 15.1534 163.796 15.0286 163.792 14.8865L164.311 14.8784C164.315 14.9379 164.336 14.99 164.372 15.0347C164.409 15.0786 164.458 15.1124 164.519 15.1361C164.579 15.1598 164.648 15.171 164.723 15.1699C164.802 15.1686 164.871 15.1537 164.931 15.1249C164.991 15.0962 165.038 15.0569 165.071 15.0072C165.104 14.9574 165.121 14.9003 165.12 14.836C165.119 14.7709 165.1 14.7136 165.062 14.6641C165.026 14.6139 164.974 14.575 164.906 14.5474C164.839 14.5199 164.759 14.5068 164.667 14.5083L164.44 14.5118L164.434 14.133L164.662 14.1294C164.739 14.1282 164.808 14.1136 164.867 14.0857C164.927 14.0578 164.973 14.0197 165.006 13.9716C165.039 13.9226 165.055 13.8659 165.054 13.8016C165.053 13.7405 165.037 13.6871 165.007 13.6415C164.978 13.5951 164.937 13.5592 164.884 13.5338C164.832 13.5084 164.772 13.4962 164.703 13.4973C164.633 13.4984 164.569 13.5121 164.511 13.5384C164.454 13.5639 164.408 13.6 164.373 13.6466C164.339 13.6932 164.321 13.7475 164.32 13.8095L163.825 13.8172C163.826 13.6766 163.864 13.552 163.94 13.4436C164.017 13.3352 164.12 13.2498 164.251 13.1874C164.383 13.1241 164.532 13.0912 164.699 13.0886C164.867 13.086 165.015 13.1143 165.142 13.1735C165.27 13.2327 165.369 13.3137 165.44 13.4167C165.512 13.5188 165.549 13.6342 165.55 13.7629C165.553 13.8995 165.512 14.0141 165.427 14.1068C165.344 14.1994 165.234 14.2591 165.098 14.2859L165.098 14.3049C165.278 14.3252 165.415 14.3854 165.51 14.4856C165.606 14.585 165.655 14.7105 165.656 14.8622C165.659 15.0012 165.621 15.1253 165.541 15.2346C165.463 15.3438 165.353 15.4305 165.213 15.4947C165.072 15.5588 164.911 15.5923 164.728 15.5952ZM166.037 15.5414L166.032 15.1697L166.888 14.3521C166.961 14.2795 167.022 14.2142 167.072 14.1562C167.122 14.0983 167.159 14.0417 167.185 13.9865C167.21 13.9305 167.222 13.8703 167.221 13.806C167.22 13.7345 167.203 13.6732 167.17 13.6221C167.137 13.5702 167.092 13.5308 167.035 13.5039C166.978 13.4762 166.914 13.4629 166.842 13.464C166.768 13.4651 166.703 13.4812 166.648 13.5123C166.592 13.5433 166.55 13.5873 166.521 13.6441C166.491 13.701 166.477 13.7683 166.478 13.8462L165.989 13.8538C165.987 13.6941 166.021 13.555 166.091 13.4363C166.162 13.3177 166.262 13.2252 166.391 13.1588C166.52 13.0925 166.67 13.058 166.84 13.0553C167.015 13.0526 167.167 13.0812 167.298 13.1411C167.429 13.2002 167.531 13.2836 167.605 13.3913C167.679 13.499 167.717 13.6231 167.719 13.7637C167.72 13.8558 167.703 13.947 167.668 14.0373C167.633 14.1276 167.571 14.2283 167.48 14.3393C167.39 14.4496 167.262 14.5822 167.097 14.7373L166.745 15.0919L166.746 15.1086L167.77 15.0926L167.776 15.5143L166.037 15.5414Z" fill="black"/>
<path d="M156.897 25.973L156.878 3.38281L142.874 3.39914L142.893 25.9893L156.897 25.973Z" fill="#4A90E2" stroke="black" stroke-width="0.303335"/>
<path d="M141.882 26.0023L141.863 3.41211L127.86 3.42844L127.878 26.0186L141.882 26.0023Z" fill="#4A90E2" stroke="black" stroke-width="0.303335"/>
<path d="M191.625 78.9809L191.606 56.2051L180.351 56.2181L180.37 78.994L191.625 78.9809Z" fill="#FFF9E6" stroke="black" stroke-width="0.303335"/>
<path d="M147.051 15.6356L147.044 15.264L147.899 14.4434C147.971 14.3705 148.032 14.305 148.081 14.2468C148.131 14.1887 148.168 14.132 148.194 14.0767C148.219 14.0206 148.231 13.9604 148.23 13.8961C148.228 13.8246 148.211 13.7634 148.178 13.7124C148.144 13.6606 148.099 13.6213 148.042 13.5946C147.985 13.5671 147.921 13.554 147.85 13.5554C147.775 13.5568 147.71 13.5731 147.655 13.6044C147.6 13.6356 147.558 13.6797 147.529 13.7366C147.499 13.7936 147.486 13.861 147.487 13.9388L146.997 13.9482C146.995 13.7885 147.028 13.6493 147.098 13.5304C147.169 13.4115 147.268 13.3186 147.397 13.2518C147.526 13.185 147.676 13.15 147.846 13.1467C148.021 13.1434 148.173 13.1715 148.304 13.2309C148.435 13.2896 148.538 13.3726 148.612 13.4801C148.686 13.5875 148.725 13.7115 148.727 13.852C148.729 13.9441 148.712 14.0354 148.677 14.1258C148.643 14.2163 148.581 14.3171 148.49 14.4285C148.4 14.539 148.273 14.6722 148.108 14.8278L147.758 15.1836L147.758 15.2003L148.783 15.1808L148.79 15.6025L147.051 15.6356ZM150.066 15.6115C149.888 15.6149 149.729 15.5873 149.589 15.5288C149.45 15.4695 149.339 15.3866 149.257 15.2802C149.176 15.1729 149.133 15.0482 149.128 14.9061L149.647 14.8962C149.651 14.9557 149.672 15.0077 149.708 15.0523C149.746 15.0961 149.795 15.1297 149.855 15.1532C149.916 15.1766 149.984 15.1877 150.06 15.1862C150.138 15.1847 150.208 15.1695 150.267 15.1406C150.327 15.1116 150.374 15.0722 150.407 15.0223C150.44 14.9724 150.456 14.9153 150.455 14.851C150.454 14.7859 150.435 14.7286 150.398 14.6793C150.361 14.6292 150.309 14.5904 150.241 14.5631C150.173 14.5358 150.094 14.523 150.002 14.5248L149.774 14.5291L149.767 14.1503L149.995 14.146C150.073 14.1445 150.141 14.1297 150.2 14.1016C150.26 14.0734 150.306 14.0352 150.339 13.9869C150.371 13.9378 150.387 13.8811 150.386 13.8168C150.385 13.7557 150.369 13.7023 150.339 13.6568C150.31 13.6105 150.268 13.5748 150.216 13.5496C150.164 13.5243 150.103 13.5124 150.034 13.5137C149.964 13.515 149.9 13.529 149.843 13.5555C149.785 13.5812 149.739 13.6174 149.705 13.6642C149.671 13.7109 149.653 13.7652 149.652 13.8272L149.158 13.8367C149.158 13.696 149.196 13.5714 149.272 13.4627C149.347 13.354 149.451 13.2682 149.582 13.2054C149.713 13.1417 149.862 13.1083 150.029 13.1051C150.197 13.1019 150.345 13.1296 150.473 13.1884C150.6 13.2471 150.699 13.3278 150.771 13.4305C150.844 13.5324 150.881 13.6477 150.882 13.7764C150.885 13.9129 150.845 14.0277 150.761 14.1207C150.677 14.2136 150.568 14.2737 150.431 14.3009L150.432 14.32C150.612 14.3396 150.749 14.3993 150.845 14.4992C150.941 14.5982 150.99 14.7236 150.992 14.8753C150.995 15.0143 150.957 15.1385 150.878 15.2481C150.8 15.3576 150.691 15.4447 150.55 15.5093C150.41 15.574 150.249 15.608 150.066 15.6115ZM152.393 13.0934L152.436 15.5329L151.92 15.5428L151.886 13.5928L151.872 13.5931L151.319 13.9539L151.311 13.4965L151.908 13.1026L152.393 13.0934Z" fill="black"/>
<path d="M131.889 15.653L131.883 15.2981L132.698 14.5146C132.768 14.445 132.826 14.3825 132.873 14.327C132.92 14.2715 132.956 14.2173 132.98 14.1645C133.004 14.111 133.016 14.0535 133.015 13.9921C133.013 13.9238 132.997 13.8653 132.965 13.8167C132.933 13.7672 132.89 13.7297 132.835 13.7042C132.781 13.6779 132.72 13.6655 132.652 13.6668C132.58 13.6681 132.518 13.6837 132.466 13.7135C132.413 13.7434 132.373 13.7855 132.345 13.8398C132.317 13.8942 132.304 13.9586 132.305 14.0329L131.838 14.0418C131.835 13.8894 131.867 13.7564 131.934 13.6429C132.001 13.5294 132.097 13.4407 132.22 13.3769C132.343 13.3131 132.486 13.2797 132.648 13.2766C132.815 13.2734 132.961 13.3002 133.085 13.357C133.211 13.413 133.309 13.4923 133.38 13.5949C133.45 13.6974 133.487 13.8158 133.489 13.95C133.491 14.038 133.475 14.1251 133.442 14.2115C133.409 14.2978 133.35 14.3941 133.264 14.5004C133.177 14.606 133.056 14.7331 132.898 14.8817L132.564 15.2214L132.564 15.2373L133.542 15.2187L133.549 15.6213L131.889 15.653ZM134.768 15.6299C134.598 15.6332 134.446 15.6069 134.312 15.551C134.179 15.4944 134.074 15.4153 133.995 15.3136C133.918 15.2112 133.877 15.0921 133.872 14.9564L134.368 14.947C134.372 15.0038 134.391 15.0535 134.426 15.096C134.462 15.1378 134.509 15.1699 134.567 15.1923C134.625 15.2147 134.69 15.2253 134.762 15.2239C134.837 15.2225 134.903 15.2079 134.96 15.1803C135.017 15.1526 135.062 15.115 135.094 15.0674C135.125 15.0198 135.141 14.9652 135.14 14.9038C135.138 14.8416 135.12 14.787 135.084 14.7399C135.049 14.692 134.999 14.655 134.934 14.629C134.87 14.6029 134.794 14.5907 134.706 14.5924L134.489 14.5965L134.483 14.2348L134.7 14.2307C134.774 14.2293 134.84 14.2151 134.896 14.1883C134.953 14.1614 134.997 14.1249 135.028 14.0788C135.059 14.0319 135.074 13.9778 135.073 13.9164C135.072 13.858 135.057 13.8071 135.028 13.7637C135 13.7194 134.961 13.6853 134.911 13.6612C134.861 13.6371 134.803 13.6257 134.737 13.627C134.67 13.6283 134.61 13.6416 134.555 13.6669C134.5 13.6914 134.456 13.726 134.423 13.7706C134.391 13.8153 134.374 13.8672 134.373 13.9263L133.901 13.9353C133.901 13.8011 133.937 13.6821 134.009 13.5783C134.082 13.4745 134.18 13.3926 134.305 13.3326C134.431 13.2718 134.573 13.2399 134.733 13.2368C134.893 13.2338 135.034 13.2603 135.156 13.3164C135.278 13.3725 135.373 13.4495 135.441 13.5476C135.51 13.6449 135.546 13.7549 135.547 13.8778C135.55 14.0082 135.511 14.1178 135.431 14.2065C135.351 14.2953 135.247 14.3526 135.117 14.3786L135.117 14.3968C135.289 14.4155 135.42 14.4726 135.511 14.5679C135.603 14.6625 135.65 14.7822 135.652 14.927C135.655 15.0597 135.619 15.1783 135.543 15.2829C135.469 15.3875 135.364 15.4707 135.23 15.5324C135.096 15.5941 134.942 15.6266 134.768 15.6299ZM136.932 15.608C136.736 15.611 136.567 15.5661 136.424 15.4732C136.282 15.3803 136.172 15.244 136.093 15.0643C136.014 14.8845 135.973 14.6672 135.97 14.4124C135.965 14.1584 135.999 13.9412 136.071 13.7608C136.144 13.5805 136.249 13.4423 136.388 13.3464C136.527 13.2496 136.694 13.1994 136.889 13.1957C137.084 13.192 137.252 13.2358 137.394 13.3272C137.537 13.4185 137.648 13.5529 137.727 13.7304C137.806 13.9071 137.847 14.1225 137.851 14.3765C137.855 14.6321 137.821 14.8512 137.749 15.0338C137.677 15.2165 137.571 15.3569 137.433 15.4551C137.294 15.5533 137.127 15.6043 136.932 15.608ZM136.924 15.1997C137.058 15.1972 137.163 15.128 137.24 14.9923C137.318 14.8566 137.354 14.6545 137.348 14.3861C137.345 14.2095 137.324 14.0627 137.286 13.9459C137.248 13.829 137.196 13.7417 137.129 13.6838C137.062 13.6259 136.985 13.5978 136.896 13.5995C136.764 13.602 136.659 13.6704 136.581 13.8046C136.504 13.9388 136.467 14.1382 136.471 14.4028C136.474 14.5818 136.495 14.7308 136.533 14.8499C136.571 14.9683 136.624 15.0568 136.691 15.1154C136.758 15.1733 136.836 15.2014 136.924 15.1997Z" fill="black"/>
<path d="M181.599 67.3342L181.593 66.9961L182.37 66.2497C182.436 66.1834 182.491 66.1238 182.536 66.0709C182.581 66.0181 182.615 65.9665 182.638 65.9162C182.661 65.8651 182.672 65.8104 182.671 65.7519C182.67 65.6869 182.654 65.6312 182.624 65.5848C182.593 65.5377 182.552 65.502 182.5 65.4777C182.449 65.4526 182.39 65.4407 182.325 65.442C182.257 65.4433 182.198 65.4581 182.148 65.4865C182.098 65.515 182.06 65.5551 182.033 65.6069C182.007 65.6587 181.994 65.72 181.995 65.7908L181.55 65.7993C181.548 65.6541 181.578 65.5274 181.642 65.4192C181.706 65.3111 181.797 65.2266 181.914 65.1659C182.031 65.1051 182.167 65.0732 182.322 65.0703C182.481 65.0673 182.62 65.0928 182.738 65.1469C182.858 65.2002 182.951 65.2758 183.019 65.3735C183.086 65.4712 183.121 65.584 183.123 65.7118C183.125 65.7956 183.11 65.8786 183.078 65.9609C183.047 66.0431 182.99 66.1349 182.908 66.2362C182.826 66.3367 182.71 66.4578 182.56 66.5994L182.242 66.923L182.242 66.9382L183.174 66.9204L183.181 67.304L181.599 67.3342ZM184.391 67.3297C184.205 67.3325 184.044 67.2897 183.908 67.2013C183.773 67.1128 183.667 66.9829 183.592 66.8117C183.518 66.6404 183.479 66.4334 183.475 66.1907C183.471 65.9487 183.503 65.7418 183.571 65.57C183.641 65.3981 183.741 65.2665 183.873 65.1751C184.006 65.083 184.165 65.0351 184.351 65.0316C184.537 65.0281 184.697 65.0698 184.832 65.1568C184.968 65.2438 185.074 65.3719 185.149 65.541C185.224 65.7093 185.264 65.9145 185.267 66.1565C185.271 66.3999 185.239 66.6087 185.17 66.7827C185.101 66.9567 185.001 67.0904 184.869 67.184C184.737 67.2776 184.578 67.3261 184.391 67.3297ZM184.385 66.9407C184.512 66.9383 184.612 66.8724 184.686 66.7431C184.759 66.6138 184.793 66.4213 184.788 66.1656C184.785 65.9973 184.765 65.8575 184.729 65.7462C184.693 65.6349 184.643 65.5517 184.579 65.4966C184.516 65.4414 184.442 65.4146 184.358 65.4162C184.231 65.4186 184.131 65.4838 184.058 65.6116C183.984 65.7395 183.949 65.9295 183.953 66.1816C183.956 66.352 183.975 66.494 184.011 66.6075C184.048 66.7202 184.098 66.8045 184.162 66.8604C184.226 66.9156 184.3 66.9423 184.385 66.9407ZM186.442 67.2722C186.28 67.2752 186.135 67.2502 186.008 67.197C185.881 67.143 185.781 67.0676 185.706 66.9708C185.632 66.8732 185.593 66.7598 185.588 66.6305L186.061 66.6215C186.065 66.6756 186.083 66.723 186.116 66.7635C186.15 66.8033 186.195 66.8339 186.25 66.8553C186.306 66.8766 186.368 66.8866 186.436 66.8853C186.508 66.884 186.571 66.8701 186.625 66.8438C186.68 66.8175 186.722 66.7816 186.752 66.7362C186.782 66.6909 186.797 66.6389 186.796 66.5804C186.795 66.5212 186.777 66.4691 186.743 66.4243C186.71 66.3786 186.663 66.3434 186.601 66.3186C186.54 66.2937 186.467 66.2821 186.383 66.2837L186.176 66.2877L186.17 65.9431L186.377 65.9392C186.448 65.9378 186.51 65.9243 186.564 65.8988C186.618 65.8731 186.66 65.8384 186.69 65.7945C186.72 65.7498 186.734 65.6982 186.733 65.6397C186.732 65.5841 186.718 65.5356 186.69 65.4942C186.663 65.4521 186.626 65.4196 186.578 65.3967C186.531 65.3737 186.475 65.3628 186.413 65.364C186.349 65.3653 186.291 65.3779 186.239 65.402C186.186 65.4254 186.145 65.4584 186.114 65.5009C186.083 65.5434 186.067 65.5928 186.065 65.6492L185.616 65.6578C185.616 65.5299 185.65 65.4165 185.719 65.3177C185.788 65.2188 185.882 65.1408 186.001 65.0836C186.121 65.0257 186.257 64.9953 186.408 64.9924C186.561 64.9894 186.696 65.0147 186.812 65.0681C186.928 65.1216 187.018 65.195 187.083 65.2884C187.149 65.3811 187.183 65.4859 187.184 65.603C187.187 65.7272 187.15 65.8316 187.074 65.9161C186.998 66.0007 186.898 66.0553 186.774 66.0801L186.775 66.0974C186.938 66.1153 187.063 66.1696 187.15 66.2604C187.238 66.3505 187.282 66.4646 187.284 66.6025C187.287 66.7289 187.253 66.8419 187.181 66.9416C187.109 67.0412 187.01 67.1204 186.882 67.1792C186.755 67.238 186.608 67.269 186.442 67.2722ZM188.028 67.2116L187.525 67.2212L188.252 64.9876L188.857 64.976L189.661 67.1804L189.158 67.19L188.572 65.4887L188.555 65.489L188.028 67.2116ZM187.981 66.34L189.169 66.3173L189.175 66.6835L187.987 66.7062L187.981 66.34Z" fill="black"/>
<path d="M10.005 38.1641V21.4858H21.0478V24.3931H13.5312V28.3672H20.3149V31.2745H13.5312V38.1641H10.005ZM23.4196 38.1641V21.4858H26.9459V35.2568H34.096V38.1641H23.4196ZM51.1081 29.825C51.1081 31.6437 50.7633 33.191 50.0738 34.4668C49.3898 35.7427 48.456 36.7172 47.2724 37.3904C46.0943 38.0582 44.7696 38.3921 43.2983 38.3921C41.8162 38.3921 40.486 38.0555 39.3079 37.3823C38.1298 36.7091 37.1987 35.7345 36.5147 34.4587C35.8306 33.1829 35.4886 31.6383 35.4886 29.825C35.4886 28.0062 35.8306 26.4589 36.5147 25.1831C37.1987 23.9072 38.1298 22.9354 39.3079 22.2676C40.486 21.5944 41.8162 21.2578 43.2983 21.2578C44.7696 21.2578 46.0943 21.5944 47.2724 22.2676C48.456 22.9354 49.3898 23.9072 50.0738 25.1831C50.7633 26.4589 51.1081 28.0062 51.1081 29.825ZM47.533 29.825C47.533 28.6468 47.3566 27.6533 47.0037 26.8444C46.6562 26.0354 46.1649 25.422 45.5297 25.0039C44.8945 24.5859 44.1507 24.3768 43.2983 24.3768C42.446 24.3768 41.7022 24.5859 41.067 25.0039C40.4318 25.422 39.9377 26.0354 39.5848 26.8444C39.2374 27.6533 39.0636 28.6468 39.0636 29.825C39.0636 31.0031 39.2374 31.9966 39.5848 32.8055C39.9377 33.6145 40.4318 34.228 41.067 34.646C41.7022 35.064 42.446 35.2731 43.2983 35.2731C44.1507 35.2731 44.8945 35.064 45.5297 34.646C46.1649 34.228 46.6562 33.6145 47.0037 32.8055C47.3566 31.9966 47.533 31.0031 47.533 29.825ZM69.0465 29.825C69.0465 31.6437 68.7018 33.191 68.0123 34.4668C67.3282 35.7427 66.3944 36.7172 65.2109 37.3904C64.0328 38.0582 62.7081 38.3921 61.2368 38.3921C59.7546 38.3921 58.4245 38.0555 57.2464 37.3823C56.0683 36.7091 55.1372 35.7345 54.4531 34.4587C53.769 33.1829 53.427 31.6383 53.427 29.825C53.427 28.0062 53.769 26.4589 54.4531 25.1831C55.1372 23.9072 56.0683 22.9354 57.2464 22.2676C58.4245 21.5944 59.7546 21.2578 61.2368 21.2578C62.7081 21.2578 64.0328 21.5944 65.2109 22.2676C66.3944 22.9354 67.3282 23.9072 68.0123 25.1831C68.7018 26.4589 69.0465 28.0062 69.0465 29.825ZM65.4715 29.825C65.4715 28.6468 65.295 27.6533 64.9421 26.8444C64.5947 26.0354 64.1033 25.422 63.4681 25.0039C62.8329 24.5859 62.0891 24.3768 61.2368 24.3768C60.3844 24.3768 59.6406 24.5859 59.0054 25.0039C58.3702 25.422 57.8762 26.0354 57.5233 26.8444C57.1758 27.6533 57.0021 28.6468 57.0021 29.825C57.0021 31.0031 57.1758 31.9966 57.5233 32.8055C57.8762 33.6145 58.3702 34.228 59.0054 34.646C59.6406 35.064 60.3844 35.2731 61.2368 35.2731C62.0891 35.2731 62.8329 35.064 63.4681 34.646C64.1033 34.228 64.5947 33.6145 64.9421 32.8055C65.295 31.9966 65.4715 31.0031 65.4715 29.825ZM71.6586 38.1641V21.4858H78.2387C79.4982 21.4858 80.5732 21.7112 81.4636 22.1618C82.3594 22.607 83.0407 23.2394 83.5076 24.0592C83.98 24.8736 84.2161 25.8318 84.2161 26.934C84.2161 28.0415 83.9773 28.9943 83.4995 29.7924C83.0217 30.585 82.3295 31.1931 81.4229 31.6166C80.5216 32.04 79.4304 32.2518 78.1491 32.2518H73.7434V29.4178H77.5791C78.2523 29.4178 78.8115 29.3255 79.2567 29.1409C79.7018 28.9563 80.033 28.6794 80.2502 28.3102C80.4728 27.9411 80.5841 27.4823 80.5841 26.934C80.5841 26.3802 80.4728 25.9133 80.2502 25.5332C80.033 25.1532 79.6991 24.8655 79.2485 24.67C78.8033 24.4691 78.2414 24.3687 77.5628 24.3687H75.1848V38.1641H71.6586ZM80.6655 30.5742L84.8106 38.1641H80.918L76.8624 30.5742H80.6655ZM91.918 38.1641V35.6232L97.8547 30.1263C98.3596 29.6377 98.7831 29.1979 99.1251 28.807C99.4726 28.4161 99.7359 28.0334 99.9151 27.6587C100.094 27.2787 100.184 26.8688 100.184 26.429C100.184 25.9404 100.073 25.5197 99.8499 25.1668C99.6273 24.8085 99.3233 24.5343 98.9378 24.3443C98.5524 24.1488 98.1153 24.0511 97.6267 24.0511C97.1164 24.0511 96.6712 24.1543 96.2911 24.3606C95.9111 24.5669 95.6179 24.8628 95.4116 25.2482C95.2053 25.6337 95.1022 26.0924 95.1022 26.6245H91.7551C91.7551 25.5332 92.0022 24.5859 92.4962 23.7824C92.9903 22.9789 93.6825 22.3572 94.5728 21.9175C95.4632 21.4777 96.4893 21.2578 97.6511 21.2578C98.8455 21.2578 99.8852 21.4696 100.77 21.893C101.661 22.3111 102.353 22.892 102.847 23.6358C103.341 24.3796 103.588 25.2319 103.588 26.1929C103.588 26.8227 103.463 27.4443 103.213 28.0578C102.969 28.6713 102.532 29.3526 101.902 30.1018C101.272 30.8456 100.385 31.7387 99.2392 32.7811L96.8042 35.1672V35.2812H103.808V38.1641H91.918Z" fill="#333333"/>
</g>
<rect x="0.573314" y="0.573314" width="239.853" height="203.908" stroke="black" stroke-width="1.14663"/>
<defs>
<clipPath id="clip0_18_1334">
<rect width="241" height="205.055" fill="white"/>
</clipPath>
</defs>
</svg>
