<svg width="247" height="209" viewBox="0 0 247 209" fill="none" xmlns="http://www.w3.org/2000/svg">
<g clip-path="url(#clip0_18_824)">
<rect y="55.6914" width="137.612" height="153.94" fill="#565656"/>
<rect x="121.95" width="137.144" height="153.601" fill="#565656"/>
<path d="M246.826 39.0391H172.067V89.5044H246.826V39.0391Z" fill="#FFF9E6" stroke="black" stroke-width="0.322733"/>
<path d="M206.028 64.3977V68.9746H205.06V65.3162H205.033L203.985 65.9732V65.115L205.118 64.3977H206.028ZM208.91 69.0752C208.526 69.0737 208.195 68.9791 207.918 68.7914C207.642 68.6036 207.43 68.3317 207.281 67.9756C207.133 67.6196 207.06 67.1912 207.062 66.6906C207.062 66.1915 207.136 65.7661 207.283 65.4145C207.432 65.0629 207.644 64.7955 207.92 64.6122C208.197 64.4275 208.527 64.3351 208.91 64.3351C209.293 64.3351 209.622 64.4275 209.898 64.6122C210.175 64.797 210.388 65.0651 210.537 65.4168C210.686 65.7669 210.76 66.1915 210.758 66.6906C210.758 67.1927 210.684 67.6218 210.535 67.9779C210.387 68.334 210.176 68.6059 209.9 68.7936C209.625 68.9813 209.295 69.0752 208.91 69.0752ZM208.91 68.2729C209.172 68.2729 209.382 68.141 209.538 67.8773C209.695 67.6136 209.772 67.218 209.771 66.6906C209.771 66.3435 209.735 66.0544 209.663 65.8235C209.593 65.5926 209.493 65.419 209.364 65.3028C209.236 65.1866 209.084 65.1285 208.91 65.1285C208.649 65.1285 208.441 65.2588 208.284 65.5196C208.128 65.7803 208.049 66.1706 208.048 66.6906C208.048 67.0422 208.083 67.3357 208.153 67.5711C208.224 67.805 208.325 67.9809 208.454 68.0986C208.584 68.2148 208.736 68.2729 208.91 68.2729ZM213.14 69.0372C212.806 69.0372 212.509 68.9798 212.248 68.8651C211.989 68.7489 211.784 68.5895 211.634 68.3868C211.485 68.1827 211.408 67.9473 211.404 67.6806H212.378C212.384 67.7924 212.421 67.8907 212.488 67.9756C212.556 68.0591 212.647 68.1239 212.76 68.1701C212.873 68.2163 213.001 68.2393 213.142 68.2393C213.29 68.2393 213.42 68.2133 213.533 68.1611C213.647 68.109 213.735 68.0367 213.799 67.9443C213.863 67.852 213.896 67.7454 213.896 67.6248C213.896 67.5026 213.861 67.3946 213.793 67.3007C213.726 67.2054 213.629 67.1309 213.502 67.0772C213.377 67.0236 213.228 66.9968 213.055 66.9968H212.628V66.2861H213.055C213.201 66.2861 213.33 66.2608 213.442 66.2101C213.555 66.1595 213.643 66.0894 213.706 66C213.768 65.9092 213.799 65.8034 213.799 65.6827C213.799 65.568 213.772 65.4674 213.717 65.381C213.663 65.2931 213.587 65.2246 213.489 65.1754C213.392 65.1262 213.279 65.1016 213.149 65.1016C213.018 65.1016 212.898 65.1255 212.789 65.1732C212.681 65.2193 212.593 65.2856 212.528 65.3721C212.462 65.4585 212.427 65.5598 212.423 65.676H211.495C211.5 65.4123 211.575 65.1799 211.721 64.9787C211.867 64.7776 212.064 64.6204 212.311 64.5072C212.56 64.3925 212.841 64.3351 213.154 64.3351C213.469 64.3351 213.746 64.3925 213.983 64.5072C214.22 64.6219 214.404 64.7768 214.535 64.972C214.667 65.1657 214.733 65.3832 214.731 65.6246C214.733 65.8809 214.653 66.0947 214.492 66.266C214.333 66.4373 214.125 66.5461 213.869 66.5923V66.628C214.205 66.6712 214.462 66.7882 214.637 66.9789C214.815 67.1681 214.903 67.405 214.901 67.6896C214.903 67.9503 214.827 68.182 214.675 68.3846C214.525 68.5872 214.317 68.7467 214.052 68.8629C213.787 68.9791 213.483 69.0372 213.14 69.0372Z" fill="black"/>
<path d="M246.352 22.5391H225.358V38.1708H246.352V22.5391Z" fill="#FFF9E6" stroke="black" stroke-width="0.326673"/>
<path d="M231.625 29.1992V32.5762H230.911V29.8769H230.891L230.118 30.3617V29.7285L230.954 29.1992H231.625ZM233.751 32.6504C233.468 32.6493 233.224 32.5795 233.019 32.441C232.816 32.3025 232.659 32.1018 232.549 31.8391C232.441 31.5764 232.387 31.2603 232.388 30.891C232.388 30.5227 232.442 30.2089 232.551 29.9494C232.661 29.69 232.818 29.4927 233.021 29.3575C233.225 29.2212 233.469 29.153 233.751 29.153C234.034 29.153 234.277 29.2212 234.48 29.3575C234.685 29.4938 234.842 29.6917 234.952 29.9511C235.062 30.2094 235.116 30.5227 235.115 30.891C235.115 31.2614 235.06 31.578 234.95 31.8408C234.841 32.1035 234.685 32.3041 234.482 32.4426C234.279 32.5811 234.035 32.6504 233.751 32.6504ZM233.751 32.0584C233.945 32.0584 234.099 31.9611 234.215 31.7666C234.33 31.572 234.387 31.2801 234.386 30.891C234.386 30.6348 234.36 30.4216 234.307 30.2512C234.255 30.0808 234.182 29.9527 234.086 29.867C233.992 29.7813 233.88 29.7384 233.751 29.7384C233.559 29.7384 233.405 29.8346 233.29 30.0269C233.174 30.2193 233.116 30.5073 233.115 30.891C233.115 31.1504 233.141 31.367 233.192 31.5406C233.245 31.7132 233.319 31.843 233.415 31.9298C233.511 32.0155 233.623 32.0584 233.751 32.0584ZM236.872 32.6223C236.626 32.6223 236.407 32.58 236.215 32.4954C236.023 32.4096 235.872 32.292 235.761 32.1425C235.651 31.9919 235.595 31.8182 235.591 31.6214H236.31C236.315 31.7039 236.342 31.7764 236.391 31.8391C236.442 31.9007 236.509 31.9485 236.592 31.9826C236.676 32.0166 236.77 32.0337 236.874 32.0337C236.983 32.0337 237.079 32.0144 237.163 31.976C237.246 31.9375 237.312 31.8842 237.359 31.816C237.406 31.7479 237.43 31.6693 237.43 31.5802C237.43 31.4901 237.405 31.4104 237.354 31.3411C237.304 31.2708 237.233 31.2158 237.14 31.1762C237.047 31.1367 236.937 31.1169 236.81 31.1169H236.495V30.5925H236.81C236.918 30.5925 237.013 30.5738 237.095 30.5365C237.179 30.4991 237.243 30.4474 237.29 30.3815C237.336 30.3144 237.359 30.2364 237.359 30.1473C237.359 30.0627 237.339 29.9885 237.298 29.9247C237.258 29.8598 237.202 29.8093 237.13 29.773C237.058 29.7367 236.975 29.7186 236.879 29.7186C236.782 29.7186 236.694 29.7362 236.614 29.7714C236.533 29.8054 236.469 29.8544 236.421 29.9181C236.372 29.9819 236.346 30.0566 236.343 30.1424H235.659C235.662 29.9478 235.718 29.7763 235.825 29.6279C235.933 29.4795 236.078 29.3635 236.261 29.28C236.444 29.1953 236.652 29.153 236.882 29.153C237.115 29.153 237.319 29.1953 237.494 29.28C237.669 29.3646 237.805 29.4789 237.901 29.623C237.999 29.7659 238.048 29.9264 238.046 30.1044C238.048 30.2935 237.989 30.4513 237.87 30.5777C237.752 30.7041 237.599 30.7843 237.41 30.8184V30.8448C237.658 30.8767 237.848 30.963 237.977 31.1037C238.108 31.2433 238.173 31.4181 238.172 31.628C238.173 31.8204 238.117 31.9914 238.005 32.1409C237.894 32.2904 237.741 32.408 237.545 32.4937C237.35 32.5795 237.125 32.6223 236.872 32.6223ZM239.287 32.5762H238.522L239.688 29.1992H240.608L241.772 32.5762H241.007L240.161 29.9709H240.134L239.287 32.5762ZM239.239 31.2488H241.046V31.8061H239.239V31.2488Z" fill="black"/>
<path d="M131.071 119.496L131.111 152.463L147.246 152.376L147.206 119.409L131.071 119.496Z" fill="#74D5F6" stroke="black" stroke-width="0.322733"/>
<line y1="-0.806833" x2="4.4311" y2="-0.806833" transform="matrix(0.999997 -0.00240958 0.00220755 0.999998 132.522 142.115)" stroke="black" stroke-width="1.61367"/>
<line y1="-0.806833" x2="4.4311" y2="-0.806833" transform="matrix(0.999997 -0.00240958 0.00220755 0.999998 132.499 134.811)" stroke="black" stroke-width="1.61367"/>
<line y1="-0.806833" x2="4.4311" y2="-0.806833" transform="matrix(0.999997 -0.00240958 0.00220755 0.999998 132.494 130.664)" stroke="black" stroke-width="1.61367"/>
<line y1="-0.806833" x2="4.4311" y2="-0.806833" transform="matrix(0.999997 -0.00240958 0.00220755 0.999998 132.482 127.125)" stroke="black" stroke-width="1.61367"/>
<line y1="-0.806833" x2="23.4408" y2="-0.806833" transform="matrix(0.00220756 0.999998 -0.999997 0.0024096 139.156 122.02)" stroke="black" stroke-width="1.61367"/>
<line y1="-0.806833" x2="4.4311" y2="-0.806833" transform="matrix(0.999997 -0.00240958 0.00220755 0.999998 132.513 138.359)" stroke="black" stroke-width="1.61367"/>
<line y1="-0.806833" x2="4.4311" y2="-0.806833" transform="matrix(0.999997 -0.00240958 0.00220755 0.999998 141.458 141.842)" stroke="black" stroke-width="1.61367"/>
<line y1="-0.806833" x2="4.4311" y2="-0.806833" transform="matrix(0.999997 -0.00240958 0.00220755 0.999998 141.437 134.502)" stroke="black" stroke-width="1.61367"/>
<line y1="-0.806833" x2="4.4311" y2="-0.806833" transform="matrix(0.999997 -0.00240958 0.00220755 0.999998 141.424 130.352)" stroke="black" stroke-width="1.61367"/>
<line y1="-0.806833" x2="4.4311" y2="-0.806833" transform="matrix(0.999997 -0.00240958 0.00220755 0.999998 141.418 126.809)" stroke="black" stroke-width="1.61367"/>
<line y1="-0.806833" x2="4.4311" y2="-0.806833" transform="matrix(0.999997 -0.00240958 0.00220755 0.999998 141.442 138.037)" stroke="black" stroke-width="1.61367"/>
<path d="M143.007 146.169C140.588 150.809 137.243 148.556 135.873 146.85M135.873 146.85L135.822 149.363M135.873 146.85L138.342 146.904" stroke="black" stroke-width="1.61367"/>
<path d="M249.013 0.0779689L225.188 0.154297L225.283 21.2348L249.107 21.1585L249.013 0.0779689Z" fill="#74D5F6" stroke="black" stroke-width="0.371956"/>
<line y1="-0.92989" x2="5.78263" y2="-0.92989" transform="matrix(0.00267299 0.999995 -0.999985 0.00622843 232.659 2.00195)" stroke="black" stroke-width="1.85978"/>
<line y1="-0.92989" x2="5.78263" y2="-0.92989" transform="matrix(0.00267299 0.999995 -0.999985 0.00622843 237.948 1.98047)" stroke="black" stroke-width="1.85978"/>
<line y1="-0.92989" x2="5.78263" y2="-0.92989" transform="matrix(0.00267299 0.999995 -0.999985 0.00622843 240.932 1.94531)" stroke="black" stroke-width="1.85978"/>
<line y1="-0.92989" x2="5.78263" y2="-0.92989" transform="matrix(0.00267299 0.999995 -0.999985 0.00622843 243.502 1.92383)" stroke="black" stroke-width="1.85978"/>
<line y1="-0.92989" x2="16.9466" y2="-0.92989" transform="matrix(-0.999985 0.00622845 -0.00267301 -0.999995 247.201 10.6504)" stroke="black" stroke-width="1.85978"/>
<line y1="-0.92989" x2="5.78263" y2="-0.92989" transform="matrix(0.00267299 0.999995 -0.999985 0.00622843 235.388 1.99414)" stroke="black" stroke-width="1.85978"/>
<line y1="-0.92989" x2="5.78263" y2="-0.92989" transform="matrix(0.00267299 0.999995 -0.999985 0.00622843 232.874 13.6621)" stroke="black" stroke-width="1.85978"/>
<line y1="-0.92989" x2="5.78263" y2="-0.92989" transform="matrix(0.00267299 0.999995 -0.999985 0.00622843 238.197 13.625)" stroke="black" stroke-width="1.85978"/>
<line y1="-0.92989" x2="5.78263" y2="-0.92989" transform="matrix(0.00267299 0.999995 -0.999985 0.00622843 241.18 13.6133)" stroke="black" stroke-width="1.85978"/>
<line y1="-0.92989" x2="5.78263" y2="-0.92989" transform="matrix(0.00267299 0.999995 -0.999985 0.00622843 243.746 13.5938)" stroke="black" stroke-width="1.85978"/>
<line y1="-0.92989" x2="5.78263" y2="-0.92989" transform="matrix(0.00267299 0.999995 -0.999985 0.00622843 235.63 13.6602)" stroke="black" stroke-width="1.85978"/>
<path d="M229.749 15.6959C226.39 12.5473 228.013 8.17797 229.244 6.3869M229.244 6.3869L227.427 6.3249M229.244 6.3869L229.209 9.6094" stroke="black" stroke-width="1.85978"/>
<path d="M147.262 102.002H131.1V117.51H147.262V102.002Z" fill="#FA8BED" stroke="black" stroke-width="0.322733"/>
<path d="M137.653 111.889V107.312H140.737V108.11H138.62V109.2H140.578V109.998H138.62V111.091H140.746V111.889H137.653Z" fill="black"/>
<path d="M152.784 101.876L152.8 152.279L177.537 152.256L177.521 101.853L152.784 101.876Z" fill="#FFF9E6" stroke="black" stroke-width="0.322733"/>
<path d="M162.437 124.112L162.472 128.689L161.504 128.7L161.476 125.041L161.45 125.042L160.407 125.71L160.4 124.852L161.527 124.122L162.437 124.112ZM165.355 128.757C164.971 128.759 164.639 128.669 164.361 128.484C164.084 128.299 163.869 128.03 163.717 127.676C163.567 127.321 163.491 126.894 163.489 126.393C163.485 125.894 163.555 125.468 163.7 125.114C163.846 124.761 164.057 124.491 164.331 124.305C164.607 124.117 164.936 124.021 165.319 124.017C165.702 124.012 166.032 124.101 166.309 124.283C166.587 124.464 166.802 124.73 166.954 125.08C167.105 125.428 167.182 125.852 167.185 126.351C167.189 126.853 167.117 127.283 166.971 127.641C166.826 127.999 166.617 128.273 166.343 128.464C166.069 128.655 165.739 128.752 165.355 128.757ZM165.349 127.954C165.611 127.951 165.819 127.817 165.974 127.552C166.128 127.286 166.203 126.89 166.197 126.362C166.194 126.015 166.156 125.727 166.083 125.497C166.011 125.266 165.91 125.094 165.78 124.979C165.651 124.864 165.499 124.808 165.325 124.81C165.064 124.813 164.856 124.946 164.702 125.208C164.548 125.471 164.472 125.862 164.474 126.382C164.477 126.733 164.514 127.027 164.586 127.261C164.659 127.494 164.761 127.669 164.892 127.785C165.022 127.9 165.175 127.956 165.349 127.954ZM167.892 128.627L167.887 127.93L169.504 126.403C169.642 126.268 169.757 126.146 169.85 126.037C169.945 125.929 170.016 125.823 170.065 125.72C170.113 125.615 170.137 125.502 170.136 125.381C170.135 125.247 170.103 125.132 170.042 125.036C169.98 124.939 169.896 124.864 169.79 124.813C169.683 124.761 169.563 124.735 169.429 124.737C169.289 124.738 169.167 124.768 169.063 124.826C168.959 124.884 168.88 124.966 168.824 125.072C168.768 125.179 168.741 125.305 168.742 125.451L167.823 125.461C167.821 125.162 167.887 124.901 168.021 124.679C168.155 124.457 168.343 124.284 168.587 124.161C168.83 124.037 169.111 123.974 169.43 123.97C169.758 123.967 170.043 124.021 170.287 124.135C170.532 124.247 170.724 124.404 170.861 124.607C170.998 124.809 171.067 125.042 171.069 125.306C171.071 125.479 171.038 125.65 170.971 125.819C170.905 125.988 170.786 126.177 170.615 126.384C170.444 126.59 170.202 126.838 169.89 127.128L169.227 127.79L169.227 127.821L171.149 127.799L171.155 128.591L167.892 128.627Z" fill="black"/>
<path d="M131.094 39.0422L131.108 89.4453L154.583 89.4256L154.569 39.0225L131.094 39.0422Z" fill="#7DD046" stroke="black" stroke-width="0.322733"/>
<path d="M140.521 61.2845L140.555 65.8613L139.587 65.8728L139.561 62.2145L139.534 62.2148L138.49 62.8843L138.484 62.0261L139.612 61.2953L140.521 61.2845ZM143.438 65.9276C143.053 65.9307 142.722 65.84 142.443 65.6556C142.166 65.4712 141.952 65.2018 141.801 64.8475C141.651 64.4932 141.574 64.0657 141.572 63.5651C141.569 63.066 141.639 62.6398 141.784 62.2864C141.931 61.933 142.141 61.6631 142.415 61.4766C142.691 61.2885 143.02 61.1922 143.403 61.1877C143.786 61.1831 144.116 61.2716 144.393 61.4531C144.671 61.6345 144.886 61.9002 145.038 62.25C145.189 62.5983 145.266 63.0221 145.268 63.5212C145.272 64.0233 145.201 64.4532 145.054 64.8111C144.909 65.1689 144.7 65.4433 144.426 65.6343C144.151 65.8253 143.822 65.9231 143.438 65.9276ZM143.432 65.1254C143.694 65.1222 143.902 64.9879 144.057 64.7223C144.211 64.4568 144.286 64.0603 144.281 63.5329C144.278 63.1858 144.24 62.8972 144.167 62.6671C144.095 62.437 143.994 62.2646 143.864 62.15C143.735 62.0353 143.583 61.979 143.409 61.981C143.148 61.9841 142.941 62.117 142.786 62.3796C142.632 62.6421 142.555 63.0334 142.558 63.5534C142.56 63.905 142.597 64.1981 142.669 64.4326C142.742 64.6657 142.844 64.8403 142.975 64.9565C143.105 65.0711 143.258 65.1274 143.432 65.1254ZM147.933 61.1965L147.966 65.7733L146.999 65.7848L146.972 62.1265L146.945 62.1268L145.902 62.7962L145.896 61.9381L147.023 61.2073L147.933 61.1965Z" fill="black"/>
<path d="M155.281 57.2264L155.29 89.4355L171.667 89.4207L171.658 57.2115L155.281 57.2264Z" fill="#FFF9E6" stroke="black" stroke-width="0.322733"/>
<path d="M161.123 71.8031L161.153 75.5323L160.364 75.5409L160.341 72.5601L160.319 72.5603L159.469 73.105L159.464 72.4058L160.382 71.8112L161.123 71.8031ZM163.502 75.5885C163.189 75.5907 162.919 75.5166 162.692 75.3661C162.466 75.2156 162.291 74.996 162.168 74.7072C162.045 74.4183 161.983 74.07 161.981 73.6621C161.978 73.2554 162.035 72.9082 162.153 72.6204C162.272 72.3326 162.443 72.1128 162.667 71.961C162.891 71.808 163.16 71.7298 163.472 71.7264C163.783 71.723 164.052 71.7953 164.278 71.9434C164.505 72.0914 164.68 72.308 164.804 72.5932C164.928 72.8771 164.991 73.2225 164.993 73.6291C164.996 74.0382 164.938 74.3885 164.819 74.68C164.701 74.9714 164.53 75.1949 164.307 75.3503C164.083 75.5057 163.815 75.5851 163.502 75.5885ZM163.497 74.9348C163.71 74.9325 163.88 74.8232 164.006 74.6069C164.132 74.3907 164.192 74.0677 164.188 73.638C164.185 73.3551 164.154 73.1199 164.095 72.9324C164.036 72.7449 163.954 72.6043 163.847 72.5108C163.742 72.4172 163.619 72.3712 163.477 72.3728C163.264 72.3751 163.095 72.4832 162.969 72.697C162.844 72.9109 162.782 73.2296 162.784 73.6533C162.786 73.9398 162.816 74.1786 162.875 74.3698C162.935 74.5598 163.018 74.7021 163.124 74.7969C163.231 74.8904 163.355 74.9364 163.497 74.9348ZM166.932 75.5201C166.674 75.5229 166.445 75.478 166.242 75.3856C166.041 75.2931 165.881 75.1643 165.762 74.9993C165.643 74.8343 165.58 74.6443 165.574 74.4295L166.339 74.4212C166.348 74.5655 166.41 74.682 166.523 74.7706C166.637 74.8592 166.772 74.9026 166.927 74.9009C167.051 74.8996 167.16 74.8711 167.254 74.8154C167.349 74.7585 167.424 74.6806 167.476 74.5817C167.53 74.4816 167.556 74.3672 167.555 74.2385C167.554 74.1074 167.526 73.9924 167.469 73.8934C167.414 73.7945 167.337 73.7176 167.239 73.6628C167.142 73.6081 167.031 73.5808 166.906 73.5809C166.796 73.5821 166.69 73.6057 166.587 73.6518C166.486 73.6978 166.407 73.76 166.35 73.8383L165.648 73.7203L165.809 71.7518L168.089 71.7269L168.094 72.3715L166.465 72.3893L166.375 73.3245L166.397 73.3242C166.462 73.2313 166.56 73.1537 166.692 73.0916C166.824 73.0294 166.972 72.9974 167.136 72.9956C167.36 72.9932 167.561 73.0438 167.738 73.1475C167.915 73.2512 168.055 73.3947 168.158 73.5781C168.262 73.7603 168.314 73.971 168.315 74.2102C168.318 74.4614 168.261 74.6854 168.145 74.8822C168.03 75.0777 167.868 75.2324 167.659 75.3464C167.451 75.4591 167.209 75.517 166.932 75.5201Z" fill="black"/>
<path d="M177.969 101.991L177.983 152.418L246.825 152.359L246.811 101.931L177.969 101.991Z" fill="#FFF9E6" stroke="black" stroke-width="0.322733"/>
<path d="M192.454 124.157L192.55 128.733L191.582 128.737L191.506 125.08L191.479 125.08L190.445 125.741L190.427 124.883L191.545 124.161L192.454 124.157ZM195.434 128.82C195.05 128.821 194.717 128.728 194.436 128.541C194.157 128.355 193.939 128.084 193.782 127.728C193.627 127.373 193.545 126.945 193.536 126.445C193.526 125.946 193.591 125.52 193.731 125.168C193.873 124.816 194.079 124.547 194.351 124.363C194.624 124.177 194.953 124.083 195.335 124.081C195.718 124.08 196.049 124.17 196.329 124.354C196.61 124.537 196.829 124.805 196.985 125.155C197.141 125.505 197.224 125.929 197.233 126.428C197.243 126.93 197.178 127.359 197.036 127.716C196.896 128.073 196.69 128.345 196.418 128.534C196.147 128.723 195.819 128.819 195.434 128.82ZM195.418 128.018C195.68 128.017 195.886 127.884 196.037 127.62C196.188 127.356 196.257 126.96 196.245 126.432C196.238 126.085 196.196 125.797 196.12 125.566C196.045 125.335 195.941 125.162 195.809 125.047C195.679 124.931 195.526 124.874 195.352 124.875C195.091 124.876 194.885 125.007 194.734 125.268C194.583 125.53 194.513 125.92 194.522 126.44C194.529 126.792 194.57 127.085 194.645 127.32C194.722 127.554 194.826 127.729 194.958 127.846C195.09 127.962 195.243 128.019 195.418 128.018ZM197.884 127.904L197.868 127.142L199.716 124.124L200.373 124.121L200.395 125.176L200.007 125.177L198.842 127.089L198.843 127.125L201.558 127.112L201.574 127.888L197.884 127.904ZM200.098 128.699L200.076 127.662L200.087 127.325L200.02 124.123L200.928 124.119L201.023 128.695L200.098 128.699ZM203.051 128.685L202.014 128.69L203.499 124.107L204.746 124.101L206.419 128.67L205.382 128.675L204.162 125.15L204.126 125.15L203.051 128.685ZM202.949 126.887L205.398 126.876L205.414 127.631L202.965 127.642L202.949 126.887Z" fill="black"/>
<path d="M226.956 124.156L227.052 128.732L226.084 128.736L226.008 125.078L225.981 125.079L224.947 125.74L224.929 124.882L226.047 124.16L226.956 124.156ZM229.936 128.819C229.552 128.819 229.219 128.726 228.938 128.54C228.659 128.353 228.441 128.083 228.284 127.727C228.129 127.372 228.047 126.944 228.038 126.443C228.028 125.944 228.093 125.519 228.233 125.167C228.375 124.814 228.581 124.546 228.853 124.362C229.126 124.176 229.455 124.082 229.837 124.08C230.22 124.078 230.551 124.169 230.831 124.353C231.112 124.536 231.331 124.803 231.487 125.154C231.643 125.504 231.726 125.928 231.735 126.427C231.745 126.929 231.68 127.358 231.538 127.715C231.398 128.071 231.192 128.344 230.92 128.533C230.649 128.722 230.321 128.817 229.936 128.819ZM229.92 128.017C230.182 128.016 230.388 127.883 230.539 127.619C230.69 127.354 230.759 126.959 230.747 126.431C230.74 126.084 230.698 125.795 230.622 125.565C230.547 125.334 230.443 125.161 230.311 125.046C230.181 124.93 230.028 124.873 229.854 124.873C229.593 124.875 229.387 125.006 229.236 125.267C229.085 125.529 229.015 125.919 229.024 126.439C229.031 126.791 229.072 127.084 229.147 127.319C229.224 127.552 229.328 127.728 229.46 127.845C229.592 127.96 229.745 128.018 229.92 128.017ZM232.386 127.903L232.37 127.141L234.218 124.123L234.875 124.12L234.897 125.174L234.509 125.176L233.344 127.088L233.345 127.123L236.06 127.111L236.076 127.886L232.386 127.903ZM234.6 128.697L234.578 127.661L234.589 127.323L234.522 124.121L235.43 124.117L235.525 128.693L234.6 128.697ZM236.764 128.688L236.669 124.112L238.501 124.103C238.838 124.102 239.12 124.151 239.347 124.249C239.574 124.348 239.746 124.486 239.863 124.663C239.98 124.838 240.041 125.04 240.046 125.27C240.049 125.448 240.017 125.606 239.948 125.742C239.879 125.876 239.783 125.987 239.66 126.074C239.538 126.159 239.398 126.22 239.239 126.256L239.24 126.301C239.415 126.308 239.579 126.356 239.733 126.446C239.888 126.537 240.015 126.663 240.114 126.827C240.213 126.989 240.264 127.182 240.269 127.407C240.274 127.65 240.218 127.867 240.102 128.058C239.986 128.248 239.813 128.398 239.581 128.51C239.35 128.621 239.063 128.677 238.72 128.679L236.764 128.688ZM237.716 127.892L238.504 127.889C238.774 127.888 238.97 127.835 239.091 127.732C239.213 127.627 239.272 127.488 239.268 127.315C239.265 127.189 239.233 127.077 239.169 126.981C239.106 126.884 239.018 126.809 238.903 126.754C238.79 126.699 238.656 126.672 238.501 126.673L237.69 126.677L237.716 127.892ZM237.677 126.022L238.394 126.019C238.526 126.018 238.644 125.995 238.746 125.948C238.849 125.9 238.929 125.833 238.987 125.746C239.046 125.659 239.075 125.556 239.072 125.435C239.069 125.27 239.007 125.136 238.887 125.036C238.769 124.935 238.603 124.885 238.388 124.886L237.653 124.889L237.677 126.022Z" fill="black"/>
<path d="M171.632 39.0098H155.244V55.351H171.632V39.0098Z" fill="#FFF9E6" stroke="black" stroke-width="0.322733"/>
<path d="M162.746 47.8984H162.135L163.066 45.1992H163.802L164.732 47.8984H164.121L163.445 45.816H163.424L162.746 47.8984ZM162.708 46.8375H164.153V47.2829H162.708V46.8375Z" fill="black"/>
<path d="M154.57 78.6855H141.422V89.4592H154.57V78.6855Z" fill="#FFF9E6" stroke="black" stroke-width="0.322733"/>
<path d="M146.047 81.9316V84.6309H145.477V82.4733H145.461L144.843 82.8608V82.3547L145.511 81.9316H146.047ZM147.687 84.6678C147.49 84.6678 147.314 84.6339 147.161 84.5663C147.008 84.4977 146.887 84.4037 146.798 84.2842C146.71 84.1639 146.665 84.025 146.662 83.8677H147.237C147.241 83.9336 147.262 83.9916 147.302 84.0417C147.342 84.0909 147.396 84.1291 147.462 84.1564C147.529 84.1836 147.604 84.1972 147.688 84.1972C147.775 84.1972 147.852 84.1819 147.918 84.1511C147.985 84.1204 148.038 84.0777 148.075 84.0233C148.113 83.9688 148.132 83.906 148.132 83.8348C148.132 83.7627 148.112 83.699 148.071 83.6437C148.032 83.5875 147.975 83.5435 147.9 83.5119C147.826 83.4803 147.738 83.4644 147.636 83.4644H147.385V83.0453H147.636C147.723 83.0453 147.799 83.0304 147.864 83.0005C147.931 82.9706 147.983 82.9293 148.02 82.8766C148.057 82.823 148.075 82.7606 148.075 82.6895C148.075 82.6218 148.059 82.5625 148.027 82.5115C147.995 82.4597 147.95 82.4193 147.892 82.3903C147.835 82.3613 147.768 82.3468 147.692 82.3468C147.614 82.3468 147.544 82.3609 147.48 82.389C147.415 82.4162 147.364 82.4553 147.325 82.5063C147.287 82.5572 147.266 82.617 147.263 82.6855H146.716C146.719 82.53 146.763 82.3929 146.85 82.2743C146.936 82.1557 147.052 82.063 147.198 81.9962C147.344 81.9286 147.51 81.8947 147.694 81.8947C147.881 81.8947 148.044 81.9286 148.183 81.9962C148.323 82.0639 148.432 82.1553 148.509 82.2704C148.587 82.3846 148.626 82.5129 148.625 82.6552C148.626 82.8063 148.579 82.9324 148.484 83.0335C148.39 83.1345 148.267 83.1987 148.116 83.2259V83.247C148.315 83.2725 148.466 83.3414 148.57 83.4539C148.674 83.5655 148.726 83.7052 148.725 83.873C148.726 84.0268 148.682 84.1634 148.592 84.2829C148.503 84.4024 148.381 84.4964 148.224 84.565C148.068 84.6335 147.889 84.6678 147.687 84.6678ZM149.242 84.6309L150.361 82.4167V82.3982H149.058V81.9316H150.951V82.4048L149.831 84.6309H149.242Z" fill="black"/>
<path d="M221.41 25.6663L221.394 1.29688L207.048 1.31239L207.065 25.6818L221.41 25.6663Z" fill="#FFF9E6" stroke="black" stroke-width="0.322733"/>
<path d="M212.185 11.5444L212.242 14.243L211.672 14.2576L211.626 12.1006L211.61 12.101L211.001 12.5042L210.99 11.9982L211.649 11.5581L212.185 11.5444ZM213.882 14.2381C213.685 14.2431 213.509 14.2137 213.354 14.15C213.2 14.0854 213.077 13.9945 212.986 13.8773C212.895 13.7592 212.847 13.6216 212.841 13.4644L213.416 13.4497C213.421 13.5155 213.443 13.5729 213.484 13.622C213.525 13.6702 213.58 13.707 213.647 13.7325C213.714 13.7581 213.79 13.7697 213.873 13.7676C213.96 13.7654 214.037 13.7481 214.103 13.7156C214.169 13.6832 214.22 13.6392 214.257 13.5838C214.294 13.5284 214.311 13.4651 214.31 13.3939C214.308 13.3219 214.286 13.2587 214.245 13.2044C214.204 13.1492 214.146 13.1067 214.071 13.077C213.996 13.0473 213.908 13.0337 213.806 13.0363L213.555 13.0427L213.546 12.6237L213.797 12.6173C213.883 12.6151 213.959 12.5982 214.024 12.5667C214.091 12.5351 214.141 12.4925 214.177 12.4388C214.213 12.3843 214.23 12.3214 214.229 12.2503C214.227 12.1827 214.21 12.1238 214.176 12.0737C214.143 12.0226 214.098 11.9834 214.039 11.9559C213.981 11.9283 213.914 11.9155 213.838 11.9175C213.761 11.9195 213.69 11.9353 213.627 11.9651C213.563 11.9939 213.513 12.0344 213.475 12.0863C213.437 12.1382 213.418 12.1985 213.417 12.2671L212.87 12.281C212.869 12.1255 212.911 11.9873 212.994 11.8665C213.078 11.7457 213.192 11.6501 213.336 11.5796C213.482 11.5082 213.646 11.4702 213.831 11.4655C214.017 11.4607 214.181 11.4904 214.322 11.5544C214.463 11.6185 214.573 11.7071 214.653 11.8202C214.734 11.9324 214.775 12.0597 214.777 12.202C214.781 12.3531 214.737 12.4803 214.644 12.5838C214.552 12.6872 214.431 12.7545 214.281 12.7855L214.281 12.8066C214.48 12.827 214.633 12.8921 214.739 13.0019C214.846 13.1108 214.901 13.2492 214.903 13.417C214.907 13.5707 214.866 13.7084 214.779 13.8302C214.693 13.9519 214.572 14.049 214.417 14.1215C214.262 14.1941 214.084 14.2329 213.882 14.2381ZM216.316 14.1759C216.13 14.1806 215.963 14.1506 215.816 14.0858C215.669 14.021 215.552 13.9295 215.464 13.8113C215.377 13.6932 215.329 13.5564 215.322 13.401L215.876 13.3868C215.884 13.4912 215.93 13.5749 216.013 13.6378C216.096 13.7007 216.194 13.7307 216.306 13.7279C216.396 13.7256 216.474 13.7038 216.542 13.6625C216.611 13.6203 216.663 13.5632 216.701 13.491C216.739 13.418 216.757 13.3349 216.755 13.2418C216.753 13.1469 216.731 13.064 216.689 12.993C216.648 12.9219 216.592 12.8671 216.52 12.8285C216.449 12.7899 216.369 12.7713 216.278 12.7727C216.199 12.7748 216.122 12.793 216.049 12.8274C215.975 12.8618 215.919 12.9076 215.879 12.9649L215.37 12.8869L215.467 11.4606L217.117 11.4184L217.127 11.8849L215.947 11.915L215.892 12.5928L215.908 12.5924C215.954 12.5244 216.024 12.4672 216.119 12.4208C216.214 12.3745 216.32 12.3498 216.439 12.3467C216.602 12.3426 216.747 12.3771 216.876 12.4503C217.005 12.5234 217.108 12.6259 217.185 12.7575C217.261 12.8883 217.301 13.0402 217.304 13.2132C217.309 13.3951 217.27 13.5578 217.188 13.7014C217.106 13.8441 216.99 13.9578 216.84 14.0425C216.691 14.1263 216.516 14.1708 216.316 14.1759Z" fill="black"/>
<path d="M206.285 25.6683L206.268 1.29883L191.922 1.31495L191.94 25.6844L206.285 25.6683Z" fill="#4A90E2" stroke="black" stroke-width="0.322733"/>
<path d="M197.027 11.517L197.027 14.2162L196.456 14.2163L196.457 12.0588L196.441 12.0588L195.823 12.4464L195.823 11.9403L196.491 11.5171L197.027 11.517ZM198.666 14.2527C198.47 14.2527 198.294 14.219 198.14 14.1513C197.988 14.0828 197.867 13.9889 197.778 13.8694C197.69 13.749 197.645 13.6102 197.642 13.4529L198.217 13.4528C198.22 13.5187 198.242 13.5767 198.282 13.6268C198.322 13.6759 198.376 13.7142 198.442 13.7414C198.509 13.7686 198.584 13.7822 198.668 13.7822C198.755 13.7822 198.832 13.7668 198.898 13.736C198.965 13.7052 199.017 13.6626 199.055 13.6081C199.093 13.5536 199.112 13.4908 199.112 13.4196C199.112 13.3476 199.092 13.2839 199.051 13.2285C199.012 13.1723 198.955 13.1284 198.88 13.0968C198.806 13.0652 198.718 13.0494 198.616 13.0494L198.365 13.0495L198.365 12.6303L198.616 12.6303C198.702 12.6303 198.778 12.6153 198.844 12.5854C198.911 12.5555 198.963 12.5142 199 12.4615C199.037 12.4079 199.055 12.3455 199.055 12.2743C199.055 12.2067 199.039 12.1474 199.007 12.0964C198.975 12.0446 198.93 12.0042 198.872 11.9752C198.815 11.9462 198.748 11.9317 198.672 11.9317C198.594 11.9318 198.524 11.9458 198.46 11.974C198.395 12.0012 198.344 12.0403 198.305 12.0913C198.267 12.1423 198.246 12.202 198.243 12.2706L197.696 12.2707C197.699 12.1152 197.743 11.9781 197.83 11.8595C197.916 11.7408 198.032 11.6481 198.178 11.5813C198.324 11.5136 198.49 11.4797 198.674 11.4797C198.861 11.4796 199.024 11.5134 199.163 11.581C199.303 11.6487 199.412 11.74 199.489 11.8551C199.567 11.9693 199.606 12.0976 199.605 12.2399C199.606 12.391 199.559 12.5171 199.464 12.6182C199.37 12.7193 199.247 12.7835 199.096 12.8107L199.096 12.8318C199.295 12.8572 199.446 12.9262 199.549 13.0386C199.654 13.1502 199.706 13.2899 199.705 13.4577C199.706 13.6115 199.661 13.7481 199.572 13.8676C199.483 13.9871 199.36 14.0812 199.204 14.1498C199.048 14.2183 198.868 14.2527 198.666 14.2527ZM200.074 13.741L200.074 13.2916L201.201 11.516L201.589 11.5159L201.589 12.138L201.359 12.138L200.649 13.2624L200.649 13.2835L202.25 13.2831L202.25 13.7405L200.074 13.741ZM201.37 14.2151L201.37 13.6036L201.38 13.4046L201.381 11.5159L201.916 11.5158L201.916 14.215L201.37 14.2151Z" fill="black"/>
<path d="M191.151 25.6761L191.132 1.30664L176.786 1.3258L176.805 25.6952L191.151 25.6761Z" fill="#FFF9E6" stroke="black" stroke-width="0.322733"/>
<path d="M181.908 11.5639L181.934 14.263L181.363 14.2698L181.342 12.1123L181.326 12.1125L180.712 12.5073L180.707 12.0013L181.371 11.5703L181.908 11.5639ZM183.573 14.2803C183.377 14.2827 183.201 14.2509 183.047 14.1851C182.893 14.1184 182.771 14.0258 182.681 13.9074C182.592 13.7881 182.546 13.6498 182.542 13.4925L183.116 13.4857C183.12 13.5516 183.142 13.6093 183.182 13.6589C183.223 13.7076 183.277 13.7452 183.344 13.7716C183.411 13.7981 183.487 13.8108 183.57 13.8098C183.657 13.8088 183.734 13.7925 183.8 13.7609C183.867 13.7294 183.919 13.6861 183.956 13.6312C183.993 13.5763 184.011 13.5133 184.011 13.4421C184.01 13.37 183.989 13.3066 183.948 13.2517C183.908 13.1959 183.851 13.1527 183.776 13.122C183.702 13.0912 183.613 13.0764 183.512 13.0777L183.26 13.0807L183.256 12.6616L183.507 12.6586C183.594 12.6575 183.669 12.6417 183.735 12.611C183.802 12.5804 183.853 12.5385 183.889 12.4853C183.926 12.4313 183.944 12.3687 183.943 12.2975C183.942 12.2298 183.925 12.1707 183.892 12.1202C183.86 12.0687 183.815 12.0288 183.757 12.0005C183.699 11.9722 183.632 11.9585 183.556 11.9594C183.479 11.9603 183.408 11.9752 183.344 12.0041C183.28 12.0321 183.229 12.0718 183.191 12.1232C183.153 12.1747 183.133 12.2347 183.131 12.3032L182.584 12.3097C182.585 12.1542 182.628 12.0166 182.713 11.897C182.798 11.7773 182.913 11.6832 183.058 11.6147C183.204 11.5453 183.37 11.5095 183.554 11.5073C183.741 11.5051 183.904 11.537 184.044 11.603C184.185 11.669 184.294 11.759 184.372 11.8732C184.452 11.9865 184.492 12.1143 184.492 12.2567C184.494 12.4078 184.449 12.5344 184.355 12.6366C184.262 12.7388 184.14 12.8044 183.989 12.8334L183.989 12.8545C184.188 12.8776 184.34 12.9448 184.445 13.056C184.55 13.1663 184.603 13.3054 184.604 13.4732C184.607 13.627 184.563 13.7641 184.475 13.8847C184.387 14.0052 184.266 14.1007 184.11 14.1711C183.954 14.2415 183.775 14.2779 183.573 14.2803ZM186.02 14.2512C185.823 14.2535 185.647 14.2218 185.493 14.1559C185.339 14.0892 185.218 13.9967 185.128 13.8782C185.039 13.7589 184.992 13.6206 184.988 13.4634L185.563 13.4565C185.567 13.5224 185.589 13.5801 185.629 13.6297C185.67 13.6785 185.724 13.716 185.791 13.7425C185.858 13.7689 185.933 13.7816 186.016 13.7806C186.103 13.7796 186.18 13.7633 186.247 13.7318C186.313 13.7002 186.365 13.657 186.402 13.6021C186.439 13.5471 186.458 13.4841 186.457 13.4129C186.456 13.3409 186.436 13.2774 186.395 13.2226C186.354 13.1668 186.297 13.1235 186.222 13.0928C186.148 13.0621 186.06 13.0473 185.958 13.0485L185.706 13.0515L185.702 12.6324L185.954 12.6294C186.04 12.6284 186.116 12.6125 186.181 12.5819C186.248 12.5512 186.299 12.5093 186.336 12.4561C186.372 12.4021 186.39 12.3395 186.389 12.2683C186.389 12.2007 186.372 12.1416 186.339 12.091C186.307 12.0395 186.261 11.9997 186.203 11.9713C186.146 11.943 186.079 11.9293 186.002 11.9302C185.925 11.9312 185.854 11.9461 185.791 11.9749C185.727 12.0029 185.676 12.0427 185.638 12.0941C185.599 12.1455 185.579 12.2055 185.577 12.2741L185.03 12.2806C185.032 12.125 185.075 11.9874 185.16 11.8678C185.244 11.7482 185.36 11.6541 185.505 11.5856C185.651 11.5162 185.816 11.4804 186.001 11.4782C186.187 11.4759 186.35 11.5078 186.49 11.5738C186.631 11.6398 186.74 11.7299 186.819 11.8441C186.898 11.9574 186.938 12.0852 186.938 12.2275C186.941 12.3786 186.895 12.5053 186.801 12.6074C186.708 12.7096 186.586 12.7752 186.435 12.8042L186.435 12.8253C186.634 12.8484 186.786 12.9156 186.891 13.0268C186.997 13.1372 187.05 13.2763 187.05 13.4441C187.053 13.5978 187.01 13.735 186.921 13.8555C186.834 13.9761 186.712 14.0716 186.556 14.142C186.401 14.2123 186.222 14.2488 186.02 14.2512Z" fill="black"/>
<path d="M176.013 25.6839L175.995 1.31445L161.65 1.33099L161.668 25.7004L176.013 25.6839Z" fill="#FFF9E6" stroke="black" stroke-width="0.322733"/>
<path d="M166.827 11.5872L166.863 14.2862L166.293 14.2956L166.263 12.1383L166.248 12.1385L165.635 12.5361L165.628 12.0301L166.29 11.5961L166.827 11.5872ZM168.503 14.2961C168.306 14.2994 168.13 14.2684 167.976 14.2033C167.822 14.1373 167.7 14.0453 167.609 13.9273C167.52 13.8083 167.473 13.6703 167.468 13.513L168.043 13.5036C168.047 13.5694 168.069 13.6271 168.109 13.6765C168.151 13.725 168.205 13.7624 168.272 13.7885C168.339 13.8146 168.414 13.827 168.498 13.8257C168.585 13.8242 168.661 13.8076 168.728 13.7757C168.794 13.7439 168.846 13.7004 168.883 13.6453C168.92 13.5902 168.938 13.5271 168.937 13.4559C168.936 13.3839 168.915 13.3205 168.874 13.2658C168.833 13.2103 168.776 13.1673 168.701 13.1369C168.626 13.1065 168.538 13.0921 168.436 13.0938L168.185 13.0979L168.179 12.6788L168.431 12.6747C168.517 12.6733 168.593 12.6571 168.658 12.6261C168.724 12.5952 168.776 12.553 168.812 12.4997C168.848 12.4455 168.866 12.3828 168.865 12.3117C168.864 12.244 168.847 12.185 168.814 12.1345C168.781 12.0832 168.736 12.0436 168.677 12.0155C168.62 11.9875 168.553 11.9741 168.477 11.9753C168.399 11.9766 168.329 11.9918 168.265 12.021C168.201 12.0493 168.15 12.0892 168.112 12.1408C168.074 12.1924 168.055 12.2525 168.053 12.321L167.506 12.33C167.507 12.1745 167.549 12.0367 167.634 11.9167C167.718 11.7967 167.833 11.7021 167.978 11.6329C168.123 11.5628 168.289 11.5263 168.473 11.5232C168.659 11.5202 168.823 11.5513 168.963 11.6167C169.104 11.682 169.214 11.7716 169.293 11.8854C169.372 11.9984 169.413 12.126 169.414 12.2684C169.417 12.4195 169.371 12.5463 169.278 12.6489C169.185 12.7515 169.064 12.8176 168.913 12.8473L168.913 12.8684C169.112 12.8906 169.264 12.9571 169.369 13.0679C169.475 13.1777 169.529 13.3166 169.53 13.4844C169.533 13.6381 169.491 13.7755 169.403 13.8964C169.316 14.0174 169.194 14.1134 169.039 14.1845C168.884 14.2556 168.705 14.2928 168.503 14.2961ZM169.951 14.2354L169.945 13.8243L170.894 12.9189C170.975 12.8385 171.042 12.7662 171.097 12.702C171.152 12.6378 171.194 12.5752 171.222 12.5141C171.25 12.4521 171.264 12.3856 171.263 12.3144C171.262 12.2353 171.243 12.1675 171.206 12.111C171.169 12.0536 171.119 12.0101 171.056 11.9803C170.994 11.9497 170.923 11.9351 170.844 11.9364C170.761 11.9377 170.689 11.9556 170.628 11.99C170.567 12.0244 170.52 12.0731 170.488 12.136C170.455 12.1989 170.44 12.2734 170.441 12.3595L169.899 12.3685C169.897 12.1919 169.935 12.0379 170.013 11.9066C170.091 11.7752 170.202 11.6728 170.345 11.5992C170.488 11.5257 170.653 11.4874 170.841 11.4843C171.035 11.4811 171.203 11.5126 171.348 11.5788C171.493 11.6441 171.606 11.7362 171.687 11.8553C171.769 11.9743 171.811 12.1116 171.813 12.2671C171.814 12.369 171.796 12.47 171.756 12.5699C171.718 12.6698 171.649 12.7813 171.549 12.9042C171.449 13.0262 171.307 13.1731 171.124 13.3448L170.735 13.7375L170.735 13.7559L171.869 13.7373L171.875 14.2038L169.951 14.2354Z" fill="black"/>
<path d="M160.747 25.7151L160.729 1.3457L146.383 1.36318L146.401 25.7326L160.747 25.7151Z" fill="#7DD046" stroke="black" stroke-width="0.322733"/>
<path d="M151.812 11.5958L151.857 14.2946L151.287 14.3061L151.251 12.1489L151.235 12.1492L150.623 12.5491L150.615 12.0431L151.276 11.6066L151.812 11.5958ZM153.497 14.2986C153.3 14.3025 153.124 14.2722 152.969 14.2077C152.815 14.1422 152.693 14.0506 152.602 13.933C152.512 13.8144 152.465 13.6765 152.46 13.5193L153.034 13.5077C153.039 13.5735 153.061 13.6311 153.102 13.6803C153.143 13.7287 153.197 13.7659 153.264 13.7918C153.331 13.8177 153.407 13.8298 153.49 13.8281C153.577 13.8263 153.654 13.8094 153.72 13.7773C153.786 13.7452 153.838 13.7016 153.875 13.6463C153.912 13.5911 153.929 13.5279 153.928 13.4567C153.927 13.3847 153.906 13.3214 153.864 13.2669C153.824 13.2115 153.766 13.1687 153.691 13.1386C153.617 13.1084 153.529 13.0944 153.427 13.0964L153.175 13.1015L153.168 12.6824L153.42 12.6774C153.506 12.6756 153.581 12.6592 153.647 12.628C153.713 12.5968 153.764 12.5544 153.8 12.501C153.836 12.4466 153.854 12.3839 153.852 12.3127C153.851 12.2451 153.834 12.1861 153.801 12.1358C153.768 12.0846 153.723 12.0451 153.664 12.0173C153.607 11.9894 153.54 11.9763 153.463 11.9778C153.386 11.9794 153.316 11.9949 153.252 12.0243C153.188 12.0528 153.137 12.0929 153.1 12.1446C153.062 12.1964 153.042 12.2565 153.041 12.3251L152.494 12.3361C152.494 12.1806 152.536 12.0426 152.62 11.9223C152.704 11.802 152.819 11.7069 152.963 11.6372C153.109 11.5666 153.274 11.5295 153.458 11.5258C153.645 11.522 153.808 11.5526 153.949 11.6174C154.09 11.6822 154.2 11.7714 154.279 11.8849C154.359 11.9976 154.4 12.1251 154.401 12.2674C154.405 12.4185 154.36 12.5455 154.267 12.6484C154.174 12.7514 154.053 12.818 153.902 12.8482L153.903 12.8693C154.102 12.8908 154.254 12.9567 154.359 13.0671C154.466 13.1766 154.52 13.3152 154.522 13.483C154.525 13.6368 154.483 13.7743 154.396 13.8955C154.309 14.0168 154.188 14.1133 154.033 14.1849C153.877 14.2566 153.699 14.2945 153.497 14.2986ZM156.074 11.51L156.119 14.2089L155.548 14.2204L155.512 12.0631L155.496 12.0634L154.885 12.4633L154.876 11.9573L155.537 11.5208L156.074 11.51Z" fill="#020202"/>
<path d="M145.476 25.7191L145.459 1.34961L131.114 1.36586L131.131 25.7353L145.476 25.7191Z" fill="#4A90E2" stroke="black" stroke-width="0.322733"/>
<path d="M136.175 11.6105L136.213 14.3095L135.643 14.3192L135.612 12.1619L135.597 12.1621L134.984 12.5601L134.977 12.054L135.639 11.6196L136.175 11.6105ZM137.853 14.3185C137.656 14.3218 137.48 14.291 137.326 14.2259C137.172 14.16 137.05 14.0681 136.959 13.9501C136.87 13.8312 136.822 13.6932 136.818 13.536L137.392 13.5262C137.397 13.592 137.419 13.6496 137.459 13.699C137.5 13.7475 137.554 13.7848 137.622 13.8109C137.689 13.837 137.764 13.8494 137.847 13.848C137.934 13.8465 138.011 13.8298 138.077 13.7979C138.144 13.766 138.195 13.7225 138.232 13.6674C138.269 13.6123 138.287 13.5492 138.286 13.478C138.285 13.406 138.264 13.3426 138.223 13.2879C138.183 13.2324 138.125 13.1894 138.05 13.1591C137.976 13.1287 137.888 13.1144 137.786 13.1161L137.534 13.1204L137.528 12.7013L137.78 12.697C137.866 12.6956 137.942 12.6793 138.007 12.6484C138.074 12.6173 138.125 12.5752 138.161 12.5218C138.197 12.4676 138.215 12.4049 138.214 12.3337C138.213 12.2661 138.196 12.2071 138.162 12.1567C138.13 12.1054 138.085 12.0657 138.026 12.0377C137.969 12.0097 137.902 11.9963 137.825 11.9976C137.748 11.999 137.678 12.0142 137.614 12.0434C137.55 12.0717 137.499 12.1117 137.461 12.1633C137.423 12.2149 137.404 12.275 137.402 12.3436L136.855 12.3529C136.855 12.1974 136.898 12.0596 136.982 11.9395C137.067 11.8194 137.181 11.7248 137.326 11.6555C137.472 11.5854 137.637 11.5487 137.822 11.5456C138.008 11.5424 138.171 11.5734 138.312 11.6387C138.453 11.704 138.562 11.7935 138.641 11.9073C138.721 12.0202 138.762 12.1478 138.763 12.2901C138.766 12.4412 138.721 12.5681 138.627 12.6708C138.534 12.7734 138.413 12.8396 138.262 12.8694L138.262 12.8905C138.461 12.9126 138.613 12.979 138.719 13.0897C138.825 13.1995 138.879 13.3383 138.88 13.5061C138.883 13.6598 138.841 13.7972 138.753 13.9182C138.666 14.0392 138.544 14.1353 138.389 14.2065C138.234 14.2777 138.055 14.315 137.853 14.3185ZM140.36 14.2982C140.133 14.3012 139.937 14.2487 139.772 14.1408C139.608 14.0328 139.481 13.8746 139.39 13.6662C139.3 13.4577 139.254 13.2058 139.25 12.9106C139.246 12.6163 139.286 12.3647 139.37 12.1559C139.455 11.947 139.578 11.7872 139.739 11.6764C139.901 11.5647 140.095 11.5069 140.321 11.503C140.546 11.4992 140.741 11.5503 140.905 11.6565C141.07 11.7627 141.198 11.9187 141.289 12.1245C141.38 12.3295 141.427 12.5791 141.43 12.8735C141.434 13.1696 141.394 13.4233 141.309 13.6348C141.225 13.8463 141.102 14.0087 140.941 14.1222C140.78 14.2357 140.587 14.2943 140.36 14.2982ZM140.353 13.8251C140.508 13.8224 140.63 13.7426 140.72 13.5855C140.81 13.4284 140.853 13.1944 140.847 12.8834C140.845 12.6787 140.821 12.5086 140.777 12.3731C140.734 12.2377 140.673 12.1363 140.596 12.0691C140.52 12.0019 140.43 11.9691 140.327 11.9709C140.173 11.9735 140.051 12.0524 139.961 12.2078C139.871 12.3631 139.828 12.5941 139.831 12.9007C139.834 13.108 139.857 13.2808 139.901 13.4189C139.945 13.5561 140.006 13.6588 140.083 13.7269C140.16 13.7941 140.25 13.8268 140.353 13.8251Z" fill="black"/>
<line y1="-0.75" x2="50.1387" y2="-0.75" transform="matrix(-0.00117391 0.999999 -0.999998 -0.00199094 216.92 102.16)" stroke="black" stroke-width="1.5" stroke-dasharray="4.2 4.2"/>
<path d="M58.4183 56.7695H33.5615V71.8035H58.4183V56.7695Z" fill="#4A90E2" stroke="black" stroke-width="0.322733"/>
<path d="M43.5238 63.6368V67.1836H42.7739V64.3486H42.7531L41.9409 64.8577V64.1927L42.8189 63.6368H43.5238ZM44.3668 67.1836V66.6433L45.6293 65.4743C45.7366 65.3704 45.8267 65.2768 45.8994 65.1937C45.9733 65.1106 46.0293 65.0292 46.0674 64.9495C46.1055 64.8687 46.1246 64.7815 46.1246 64.688C46.1246 64.5841 46.1009 64.4946 46.0536 64.4196C46.0062 64.3434 45.9416 64.2851 45.8596 64.2446C45.7776 64.2031 45.6847 64.1823 45.5808 64.1823C45.4722 64.1823 45.3776 64.2042 45.2968 64.2481C45.2159 64.292 45.1536 64.3549 45.1097 64.4369C45.0658 64.5189 45.0439 64.6164 45.0439 64.7296H44.3321C44.3321 64.4975 44.3846 64.296 44.4897 64.1252C44.5948 63.9543 44.742 63.8221 44.9313 63.7286C45.1207 63.635 45.3389 63.5883 45.586 63.5883C45.84 63.5883 46.0611 63.6333 46.2493 63.7234C46.4386 63.8123 46.5858 63.9358 46.6909 64.094C46.796 64.2522 46.8485 64.4334 46.8485 64.6378C46.8485 64.7717 46.8219 64.9039 46.7688 65.0344C46.7169 65.1648 46.6239 65.3097 46.49 65.4691C46.3561 65.6272 46.1673 65.8172 45.9237 66.0388L45.4059 66.5463V66.5705H46.8952V67.1836H44.3668ZM48.734 67.2321C48.4893 67.2321 48.2711 67.1871 48.0794 67.097C47.8889 67.0069 47.7376 66.8828 47.6257 66.7247C47.5137 66.5665 47.4554 66.3852 47.4507 66.1809H48.1781C48.1862 66.3182 48.2439 66.4297 48.3513 66.5151C48.4587 66.6005 48.5863 66.6433 48.734 66.6433C48.8518 66.6433 48.9557 66.6173 49.0458 66.5653C49.137 66.5122 49.208 66.4389 49.2588 66.3454C49.3107 66.2507 49.3367 66.1422 49.3367 66.0198C49.3367 65.8951 49.3102 65.7854 49.2571 65.6907C49.2051 65.5961 49.1329 65.5222 49.0406 65.4691C48.9482 65.416 48.8426 65.3888 48.7236 65.3877C48.6197 65.3877 48.5187 65.409 48.4206 65.4517C48.3236 65.4945 48.248 65.5528 48.1937 65.6267L47.5269 65.5072L47.6949 63.6368H49.8632V64.2498H48.3132L48.2214 65.1383H48.2422C48.3045 65.0505 48.3986 64.9778 48.5245 64.9201C48.6503 64.8623 48.7912 64.8335 48.9471 64.8335C49.1606 64.8335 49.3511 64.8837 49.5186 64.9841C49.686 65.0846 49.8182 65.2226 49.9152 65.3981C50.0121 65.5724 50.0601 65.7733 50.0589 66.0007C50.0601 66.2397 50.0046 66.4522 49.8926 66.6381C49.7818 66.8228 49.6265 66.9683 49.4268 67.0745C49.2282 67.1796 48.9973 67.2321 48.734 67.2321Z" fill="black"/>
<path d="M58.4328 73.002H33.5615V88.7782H58.4328V73.002Z" fill="#4A90E2" stroke="black" stroke-width="0.322733"/>
<path d="M43.4902 80.1387V83.6855H42.7403V80.8505H42.7195L41.9073 81.3597V80.6946L42.7854 80.1387H43.4902ZM44.3332 83.6855V83.1452L45.5957 81.9762C45.7031 81.8723 45.7931 81.7788 45.8659 81.6957C45.9398 81.6125 45.9958 81.5311 46.0339 81.4515C46.072 81.3706 46.091 81.2835 46.091 81.19C46.091 81.086 46.0674 80.9966 46.02 80.9215C45.9727 80.8453 45.908 80.787 45.826 80.7466C45.7441 80.705 45.6511 80.6843 45.5472 80.6843C45.4387 80.6843 45.344 80.7062 45.2632 80.7501C45.1824 80.7939 45.12 80.8569 45.0762 80.9388C45.0323 81.0208 45.0103 81.1184 45.0103 81.2315H44.2986C44.2986 80.9995 44.3511 80.798 44.4562 80.6271C44.5612 80.4562 44.7084 80.324 44.8978 80.2305C45.0871 80.137 45.3053 80.0902 45.5524 80.0902C45.8064 80.0902 46.0275 80.1353 46.2157 80.2253C46.4051 80.3142 46.5523 80.4378 46.6573 80.5959C46.7624 80.7541 46.8149 80.9354 46.8149 81.1397C46.8149 81.2737 46.7884 81.4059 46.7353 81.5363C46.6833 81.6668 46.5904 81.8117 46.4564 81.971C46.3225 82.1292 46.1337 82.3191 45.8901 82.5408L45.3723 83.0482V83.0725H46.8617V83.6855H44.3332ZM48.7663 83.734C48.5839 83.7329 48.4078 83.7023 48.2381 83.6423C48.0695 83.5822 47.9183 83.4847 47.7843 83.3496C47.6504 83.2145 47.5442 83.0355 47.4657 82.8127C47.3883 82.5899 47.3496 82.3162 47.3496 81.9918C47.3508 81.6939 47.3849 81.4278 47.4518 81.1934C47.5199 80.9579 47.6169 80.7581 47.7428 80.5942C47.8698 80.4303 48.0216 80.3056 48.1982 80.2201C48.3749 80.1335 48.5729 80.0902 48.7923 80.0902C49.029 80.0902 49.2379 80.1364 49.4192 80.2288C49.6005 80.32 49.7459 80.4441 49.8556 80.6011C49.9665 80.7581 50.0334 80.9342 50.0565 81.1293H49.317C49.2882 81.0058 49.2275 80.9088 49.1352 80.8384C49.0428 80.768 48.9285 80.7327 48.7923 80.7327C48.5614 80.7327 48.3859 80.8332 48.2658 81.0341C48.1469 81.235 48.0863 81.508 48.0839 81.8533H48.1082C48.1613 81.7482 48.2329 81.6587 48.3229 81.5848C48.4141 81.5098 48.5175 81.4526 48.6329 81.4134C48.7495 81.373 48.8725 81.3527 49.0018 81.3527C49.212 81.3527 49.399 81.4024 49.5629 81.5017C49.7269 81.5998 49.8562 81.7349 49.9509 81.9069C50.0455 82.079 50.0929 82.2758 50.0929 82.4975C50.0929 82.7376 50.0369 82.9512 49.9249 83.1383C49.8141 83.3253 49.6588 83.472 49.459 83.5782C49.2604 83.6832 49.0295 83.7352 48.7663 83.734ZM48.7628 83.1452C48.8783 83.1452 48.9816 83.1175 49.0728 83.0621C49.164 83.0067 49.2356 82.9316 49.2876 82.8369C49.3395 82.7423 49.3655 82.636 49.3655 82.5183C49.3655 82.4005 49.3395 82.2949 49.2876 82.2014C49.2368 82.1078 49.1663 82.0334 49.0763 81.9779C48.9862 81.9225 48.8835 81.8948 48.768 81.8948C48.6814 81.8948 48.6012 81.911 48.5273 81.9433C48.4546 81.9756 48.3905 82.0207 48.3351 82.0784C48.2808 82.1361 48.2381 82.2031 48.2069 82.2793C48.1757 82.3543 48.1601 82.4346 48.1601 82.52C48.1601 82.6343 48.1861 82.7388 48.2381 82.8335C48.2912 82.9282 48.3628 83.0038 48.4528 83.0604C48.544 83.1169 48.6474 83.1452 48.7628 83.1452Z" fill="black"/>
<path d="M58.4328 89.6543H33.5615V106.07H58.4328V89.6543Z" fill="#7DD046" stroke="black" stroke-width="0.322733"/>
<path d="M44.2094 95.8652V98.5645H43.6387V96.4069H43.6229L43.0048 96.7944V96.2883L43.673 95.8652H44.2094ZM44.8509 98.5645V98.1532L45.8117 97.2636C45.8935 97.1845 45.962 97.1134 46.0173 97.0501C46.0736 96.9868 46.1162 96.9249 46.1452 96.8643C46.1742 96.8028 46.1887 96.7364 46.1887 96.6652C46.1887 96.5862 46.1707 96.5181 46.1346 96.461C46.0986 96.403 46.0494 96.3586 45.987 96.3278C45.9246 96.2962 45.8539 96.2804 45.7748 96.2804C45.6922 96.2804 45.6202 96.2971 45.5587 96.3305C45.4972 96.3639 45.4497 96.4118 45.4163 96.4741C45.383 96.5365 45.3663 96.6108 45.3663 96.6969H44.8246C44.8246 96.5203 44.8645 96.3669 44.9445 96.2369C45.0245 96.1069 45.1365 96.0063 45.2806 95.9351C45.4247 95.8639 45.5908 95.8283 45.7788 95.8283C45.9721 95.8283 46.1404 95.8626 46.2836 95.9311C46.4277 95.9988 46.5397 96.0928 46.6197 96.2132C46.6996 96.3336 46.7396 96.4715 46.7396 96.627C46.7396 96.7289 46.7194 96.8296 46.679 96.9288C46.6394 97.0281 46.5687 97.1384 46.4668 97.2597C46.3648 97.38 46.2212 97.5246 46.0358 97.6933L45.6417 98.0794V98.0979H46.7752V98.5645H44.8509ZM47.2955 98.5645L48.4144 96.3502V96.3318H47.1109V95.8652H49.0049V96.3384L47.8846 98.5645H47.2955Z" fill="#040404"/>
<path d="M115.306 56.7305H89.6328V77.1082H115.306V56.7305Z" fill="#76F6E9" stroke="black" stroke-width="0.322733"/>
<path d="M99.9866 63.2434H101.18L102.44 66.3185H102.494L103.755 63.2434H104.948V67.8203H104.009V64.8413H103.971L102.787 67.798H102.148L100.963 64.8301H100.925V67.8203H99.9866V63.2434Z" fill="black"/>
<path d="M115.462 83.7422H89.6328V106.092H115.462V83.7422Z" fill="#76F6E9" stroke="black" stroke-width="0.322733"/>
<path d="M100.72 95.3164L99.4108 90.7395H100.468L101.225 93.9196H101.263L102.099 90.7395H103.004L103.838 93.9263H103.878L104.636 90.7395H105.693L104.383 95.3164H103.44L102.569 92.324H102.533L101.663 95.3164H100.72Z" fill="black"/>
<path d="M64.0592 119.148H33.5615V165.086H64.0592V119.148Z" fill="#FFF9E6" stroke="black" stroke-width="0.322733"/>
<path d="M43.9811 139.54V144.117H43.0134V140.459H42.9866L41.9384 141.116V140.258L43.0715 139.54H43.9811ZM46.8634 144.218C46.479 144.216 46.1483 144.122 45.8712 143.934C45.5955 143.746 45.3832 143.474 45.2342 143.118C45.0867 142.762 45.0137 142.334 45.0152 141.833C45.0152 141.334 45.089 140.909 45.2365 140.557C45.3855 140.205 45.5978 139.938 45.8734 139.755C46.1505 139.57 46.4805 139.478 46.8634 139.478C47.2463 139.478 47.5756 139.57 47.8512 139.755C48.1284 139.94 48.3414 140.208 48.4904 140.559C48.6394 140.909 48.7131 141.334 48.7116 141.833C48.7116 142.335 48.6372 142.764 48.4882 143.12C48.3407 143.477 48.1291 143.748 47.8535 143.936C47.5778 144.124 47.2478 144.218 46.8634 144.218ZM46.8634 143.415C47.1257 143.415 47.335 143.284 47.4914 143.02C47.6479 142.756 47.7253 142.361 47.7238 141.833C47.7238 141.486 47.6881 141.197 47.6166 140.966C47.5466 140.735 47.4467 140.562 47.3171 140.445C47.189 140.329 47.0378 140.271 46.8634 140.271C46.6027 140.271 46.3941 140.401 46.2377 140.662C46.0812 140.923 46.0023 141.313 46.0008 141.833C46.0008 142.185 46.0358 142.478 46.1058 142.714C46.1773 142.948 46.2779 143.123 46.4075 143.241C46.5372 143.357 46.6891 143.415 46.8634 143.415ZM51.0577 139.478C51.2931 139.478 51.5195 139.517 51.7371 139.596C51.9561 139.675 52.1512 139.801 52.3226 139.974C52.4954 140.147 52.6317 140.376 52.7316 140.662C52.8329 140.947 52.8843 141.296 52.8858 141.71C52.8858 142.099 52.8418 142.446 52.7539 142.752C52.6675 143.056 52.5431 143.314 52.3807 143.527C52.2183 143.74 52.0224 143.903 51.7929 144.014C51.5635 144.125 51.3072 144.18 51.0241 144.18C50.7187 144.18 50.449 144.121 50.2151 144.003C49.9812 143.884 49.7927 143.722 49.6497 143.518C49.5082 143.313 49.4225 143.082 49.3927 142.825H50.347C50.3842 142.992 50.4625 143.122 50.5816 143.214C50.7008 143.305 50.8483 143.351 51.0241 143.351C51.3221 143.351 51.5486 143.221 51.7035 142.962C51.8585 142.701 51.9367 142.344 51.9382 141.891H51.9069C51.8384 142.025 51.746 142.141 51.6298 142.238C51.5136 142.333 51.3802 142.407 51.2297 142.459C51.0808 142.511 50.9221 142.537 50.7537 142.537C50.4841 142.537 50.2434 142.474 50.0319 142.347C49.8203 142.221 49.6534 142.046 49.5313 141.824C49.4091 141.602 49.348 141.349 49.348 141.064C49.3465 140.757 49.4173 140.484 49.5603 140.244C49.7034 140.004 49.903 139.817 50.1593 139.681C50.417 139.544 50.7165 139.476 51.0577 139.478ZM51.0644 140.238C50.9139 140.238 50.7798 140.273 50.6621 140.345C50.5459 140.416 50.4535 140.512 50.385 140.633C50.3179 140.754 50.2852 140.889 50.2866 141.038C50.2866 141.188 50.3194 141.324 50.385 141.444C50.452 141.564 50.5429 141.659 50.6576 141.73C50.7738 141.8 50.9064 141.835 51.0554 141.835C51.1672 141.835 51.2707 141.815 51.3661 141.773C51.4614 141.731 51.5441 141.674 51.6141 141.601C51.6857 141.526 51.7415 141.441 51.7818 141.344C51.822 141.247 51.8421 141.144 51.8421 141.035C51.8406 140.891 51.8063 140.758 51.7393 140.638C51.6722 140.517 51.5799 140.42 51.4622 140.347C51.3445 140.274 51.2119 140.238 51.0644 140.238Z" fill="black"/>
<path d="M88.9588 56.7129H58.9863V106.081H88.9588V56.7129Z" fill="#FFF9E6" stroke="black" stroke-width="0.322733"/>
<path d="M69.1572 78.5207V83.0977H68.1896V79.4392H68.1627L67.1146 80.0963V79.2381L68.2477 78.5207H69.1572ZM72.0396 83.1982C71.6552 83.1967 71.3245 83.1021 71.0474 82.9144C70.7717 82.7267 70.5594 82.4548 70.4104 82.0987C70.2629 81.7426 70.1899 81.3143 70.1914 80.8137C70.1914 80.3145 70.2652 79.8892 70.4127 79.5376C70.5616 79.1859 70.774 78.9185 71.0496 78.7353C71.3267 78.5505 71.6567 78.4581 72.0396 78.4581C72.4225 78.4581 72.7518 78.5505 73.0274 78.7353C73.3045 78.92 73.5176 79.1882 73.6666 79.5398C73.8156 79.8899 73.8893 80.3145 73.8878 80.8137C73.8878 81.3157 73.8133 81.7448 73.6643 82.1009C73.5168 82.457 73.3053 82.7289 73.0297 82.9166C72.754 83.1044 72.424 83.1982 72.0396 83.1982ZM72.0396 82.3959C72.3018 82.3959 72.5112 82.2641 72.6676 82.0004C72.824 81.7366 72.9015 81.3411 72.9 80.8137C72.9 80.4665 72.8643 80.1775 72.7928 79.9465C72.7227 79.7156 72.6229 79.542 72.4933 79.4258C72.3652 79.3096 72.2139 79.2515 72.0396 79.2515C71.7789 79.2515 71.5703 79.3819 71.4139 79.6426C71.2574 79.9033 71.1785 80.2937 71.177 80.8137C71.177 81.1653 71.212 81.4588 71.282 81.6942C71.3535 81.9281 71.4541 82.1039 71.5837 82.2216C71.7133 82.3378 71.8653 82.3959 72.0396 82.3959ZM76.2339 78.4581C76.4693 78.4581 76.6957 78.4976 76.9132 78.5766C77.1323 78.6555 77.3274 78.7814 77.4988 78.9543C77.6716 79.1271 77.8079 79.3565 77.9077 79.6426C78.0091 79.9272 78.0605 80.2765 78.0619 80.6907C78.0619 81.0796 78.018 81.4267 77.9301 81.7322C77.8437 82.0361 77.7193 82.2946 77.5569 82.5077C77.3945 82.7207 77.1986 82.8831 76.9691 82.9949C76.7397 83.1051 76.4834 83.1602 76.2003 83.1602C75.8949 83.1602 75.6252 83.1014 75.3913 82.9837C75.1574 82.8645 74.9689 82.7028 74.8259 82.4987C74.6844 82.2931 74.5987 82.0622 74.5689 81.8059H75.5232C75.5604 81.9728 75.6386 82.1024 75.7578 82.1948C75.877 82.2857 76.0245 82.3311 76.2003 82.3311C76.4983 82.3311 76.7248 82.2015 76.8797 81.9422C77.0347 81.6815 77.1129 81.3247 77.1144 80.8718H77.0831C77.0146 81.0058 76.9222 81.1213 76.806 81.2182C76.6898 81.3135 76.5564 81.3873 76.4059 81.4394C76.2569 81.4916 76.0983 81.5176 75.9299 81.5176C75.6602 81.5176 75.4196 81.4543 75.2081 81.3277C74.9965 81.201 74.8296 81.0267 74.7075 80.8047C74.5853 80.5827 74.5242 80.3294 74.5242 80.0449C74.5227 79.738 74.5935 79.4646 74.7365 79.2247C74.8795 78.9848 75.0792 78.7971 75.3354 78.6615C75.5932 78.5244 75.8927 78.4566 76.2339 78.4581ZM76.2406 79.218C76.0901 79.218 75.956 79.2537 75.8383 79.3253C75.7221 79.3968 75.6297 79.4929 75.5612 79.6135C75.4941 79.7342 75.4613 79.8691 75.4628 80.0181C75.4628 80.1685 75.4956 80.3041 75.5612 80.4248C75.6282 80.544 75.7191 80.6393 75.8338 80.7109C75.95 80.7809 76.0826 80.8159 76.2316 80.8159C76.3434 80.8159 76.4469 80.795 76.5423 80.7533C76.6376 80.7116 76.7203 80.6542 76.7903 80.5812C76.8618 80.5067 76.9177 80.4211 76.9579 80.3242C76.9982 80.2274 77.0183 80.1246 77.0183 80.0158C77.0168 79.8713 76.9825 79.7387 76.9155 79.618C76.8484 79.4973 76.7561 79.4005 76.6384 79.3275C76.5207 79.2545 76.3881 79.218 76.2406 79.218Z" fill="black"/>
<path d="M97.1305 119.115H64.6904V165.053H97.1305V119.115Z" fill="#FFF9E6" stroke="black" stroke-width="0.322733"/>
<path d="M77.5 138.413V142.99H76.5324V139.332H76.5055L75.4574 139.989V139.131L76.5905 138.413H77.5ZM80.3824 143.091C79.998 143.089 79.6673 142.995 79.3902 142.807C79.1145 142.619 78.9022 142.347 78.7532 141.991C78.6057 141.635 78.5327 141.207 78.5342 140.706C78.5342 140.207 78.608 139.782 78.7555 139.43C78.9045 139.079 79.1168 138.811 79.3924 138.628C79.6695 138.443 79.9995 138.351 80.3824 138.351C80.7653 138.351 81.0946 138.443 81.3702 138.628C81.6473 138.813 81.8604 139.081 82.0094 139.432C82.1584 139.782 82.2321 140.207 82.2306 140.706C82.2306 141.208 82.1561 141.637 82.0071 141.993C81.8597 142.35 81.6481 142.621 81.3725 142.809C81.0968 142.997 80.7668 143.091 80.3824 143.091ZM80.3824 142.288C80.6446 142.288 80.854 142.157 81.0104 141.893C81.1669 141.629 81.2443 141.234 81.2428 140.706C81.2428 140.359 81.2071 140.07 81.1356 139.839C81.0655 139.608 80.9657 139.435 80.8361 139.318C80.708 139.202 80.5567 139.144 80.3824 139.144C80.1217 139.144 79.9131 139.274 79.7567 139.535C79.6002 139.796 79.5213 140.186 79.5198 140.706C79.5198 141.058 79.5548 141.351 79.6248 141.587C79.6963 141.821 79.7969 141.996 79.9265 142.114C80.0561 142.23 80.2081 142.288 80.3824 142.288ZM84.6281 143.053C84.2839 143.053 83.9777 142.997 83.7095 142.885C83.4428 142.772 83.2335 142.618 83.0815 142.423C82.9296 142.227 82.8536 142.006 82.8536 141.759C82.8536 141.568 82.8968 141.393 82.9832 141.234C83.0711 141.073 83.1903 140.939 83.3408 140.834C83.4913 140.726 83.6596 140.658 83.8459 140.628V140.597C83.6015 140.548 83.4034 140.429 83.2514 140.241C83.0994 140.052 83.0234 139.832 83.0234 139.582C83.0234 139.345 83.0927 139.134 83.2313 138.95C83.3698 138.763 83.5598 138.617 83.8012 138.512C84.044 138.404 84.3196 138.351 84.6281 138.351C84.9365 138.351 85.2113 138.404 85.4527 138.512C85.6956 138.619 85.8863 138.766 86.0248 138.952C86.1634 139.137 86.2334 139.347 86.2349 139.582C86.2334 139.834 86.1559 140.054 86.0025 140.241C85.849 140.429 85.6524 140.548 85.4125 140.597V140.628C85.5957 140.658 85.7619 140.726 85.9108 140.834C86.0613 140.939 86.1805 141.073 86.2684 141.234C86.3578 141.393 86.4033 141.568 86.4047 141.759C86.4033 142.006 86.3265 142.227 86.1746 142.423C86.0226 142.618 85.8125 142.772 85.5443 142.885C85.2776 142.997 84.9722 143.053 84.6281 143.053ZM84.6281 142.342C84.7815 142.342 84.9156 142.315 85.0303 142.259C85.145 142.203 85.2344 142.125 85.2985 142.027C85.3641 141.927 85.3968 141.812 85.3968 141.683C85.3968 141.55 85.3633 141.433 85.2963 141.332C85.2292 141.229 85.1383 141.149 85.0236 141.091C84.9089 141.031 84.777 141.001 84.6281 141.001C84.4806 141.001 84.3487 141.031 84.2325 141.091C84.1163 141.149 84.0246 141.229 83.9576 141.332C83.892 141.433 83.8593 141.55 83.8593 141.683C83.8593 141.812 83.8913 141.927 83.9554 142.027C84.0194 142.125 84.1096 142.203 84.2258 142.259C84.342 142.315 84.4761 142.342 84.6281 142.342ZM84.6281 140.297C84.7562 140.297 84.8702 140.271 84.97 140.219C85.0698 140.167 85.148 140.095 85.2046 140.002C85.2613 139.91 85.2896 139.803 85.2896 139.683C85.2896 139.563 85.2613 139.459 85.2046 139.37C85.148 139.279 85.0706 139.208 84.9722 139.157C84.8739 139.105 84.7592 139.079 84.6281 139.079C84.4984 139.079 84.3837 139.105 84.2839 139.157C84.1841 139.208 84.1058 139.279 84.0492 139.37C83.9941 139.459 83.9665 139.563 83.9665 139.683C83.9665 139.803 83.9948 139.91 84.0515 140.002C84.1081 140.095 84.1863 140.167 84.2861 140.219C84.3859 140.271 84.4999 140.297 84.6281 140.297Z" fill="black"/>
<path d="M115.652 119.131H97.7354V153.7H115.652V119.131Z" fill="#7DD046" stroke="black" stroke-width="0.322733"/>
<path d="M105.864 133.636V136.57H105.243V134.225H105.226L104.554 134.646V134.096L105.281 133.636H105.864ZM107.711 136.635C107.465 136.634 107.253 136.573 107.075 136.453C106.899 136.333 106.763 136.158 106.667 135.93C106.572 135.702 106.526 135.427 106.527 135.106C106.527 134.786 106.574 134.514 106.668 134.288C106.764 134.063 106.9 133.891 107.077 133.774C107.254 133.655 107.466 133.596 107.711 133.596C107.957 133.596 108.168 133.655 108.345 133.774C108.522 133.892 108.659 134.064 108.754 134.29C108.85 134.514 108.897 134.786 108.896 135.106C108.896 135.428 108.848 135.703 108.753 135.931C108.658 136.16 108.523 136.334 108.346 136.454C108.169 136.575 107.958 136.635 107.711 136.635ZM107.711 136.12C107.879 136.12 108.014 136.036 108.114 135.867C108.214 135.698 108.264 135.444 108.263 135.106C108.263 134.884 108.24 134.698 108.194 134.55C108.149 134.402 108.085 134.291 108.002 134.217C107.92 134.142 107.823 134.105 107.711 134.105C107.544 134.105 107.411 134.188 107.31 134.356C107.21 134.523 107.159 134.773 107.158 135.106C107.158 135.332 107.181 135.52 107.226 135.671C107.272 135.821 107.336 135.933 107.419 136.009C107.502 136.083 107.6 136.12 107.711 136.12ZM110.464 136.61C110.314 136.609 110.168 136.584 110.028 136.534C109.888 136.485 109.763 136.404 109.652 136.292C109.541 136.181 109.454 136.033 109.389 135.848C109.325 135.664 109.293 135.438 109.293 135.169C109.294 134.923 109.322 134.703 109.377 134.509C109.433 134.314 109.514 134.149 109.618 134.013C109.723 133.878 109.848 133.774 109.995 133.704C110.141 133.632 110.304 133.596 110.486 133.596C110.682 133.596 110.855 133.634 111.005 133.711C111.154 133.786 111.275 133.889 111.366 134.019C111.457 134.149 111.513 134.294 111.532 134.456H110.92C110.896 134.354 110.846 134.273 110.77 134.215C110.693 134.157 110.599 134.128 110.486 134.128C110.295 134.128 110.15 134.211 110.05 134.377C109.952 134.543 109.902 134.769 109.9 135.055H109.92C109.964 134.968 110.023 134.894 110.098 134.833C110.173 134.771 110.259 134.723 110.354 134.691C110.451 134.657 110.552 134.641 110.659 134.641C110.833 134.641 110.988 134.682 111.123 134.764C111.259 134.845 111.366 134.957 111.444 135.099C111.523 135.241 111.562 135.404 111.562 135.588C111.562 135.786 111.516 135.963 111.423 136.118C111.331 136.272 111.203 136.394 111.038 136.481C110.873 136.568 110.682 136.611 110.464 136.61ZM110.462 136.123C110.557 136.123 110.643 136.1 110.718 136.055C110.793 136.009 110.853 135.947 110.896 135.868C110.939 135.79 110.96 135.702 110.96 135.605C110.96 135.507 110.939 135.42 110.896 135.343C110.854 135.265 110.795 135.204 110.721 135.158C110.646 135.112 110.561 135.089 110.466 135.089C110.394 135.089 110.328 135.102 110.267 135.129C110.207 135.156 110.154 135.193 110.108 135.241C110.063 135.289 110.028 135.344 110.002 135.407C109.976 135.469 109.963 135.536 109.963 135.606C109.963 135.701 109.985 135.787 110.028 135.865C110.071 135.944 110.131 136.006 110.205 136.053C110.281 136.1 110.366 136.123 110.462 136.123Z" fill="#131313"/>
<path d="M22.1554 72.3457H0.0253906V87.2189H22.1554V72.3457Z" fill="#4A90E2" stroke="black" stroke-width="0.322733"/>
<path d="M8.91692 76.989V80.0664H8.26628V77.6066H8.24825L7.54351 78.0484V77.4714L8.30535 76.989H8.91692ZM9.64833 80.0664V79.5976L10.7437 78.5833C10.8369 78.4931 10.915 78.412 10.9782 78.3399C11.0423 78.2678 11.0909 78.1971 11.1239 78.128C11.157 78.0579 11.1735 77.9823 11.1735 77.9011C11.1735 77.811 11.153 77.7333 11.1119 77.6682C11.0708 77.6021 11.0147 77.5515 10.9436 77.5164C10.8725 77.4804 10.7918 77.4623 10.7017 77.4623C10.6075 77.4623 10.5254 77.4814 10.4552 77.5194C10.3851 77.5575 10.331 77.6121 10.293 77.6832C10.2549 77.7544 10.2359 77.839 10.2359 77.9372H9.61827C9.61827 77.7358 9.66385 77.561 9.75501 77.4128C9.84617 77.2645 9.9739 77.1498 10.1382 77.0687C10.3025 76.9875 10.4918 76.9469 10.7062 76.9469C10.9266 76.9469 11.1184 76.986 11.2817 77.0641C11.446 77.1413 11.5737 77.2485 11.6649 77.3857C11.756 77.523 11.8016 77.6802 11.8016 77.8575C11.8016 77.9737 11.7786 78.0884 11.7325 78.2016C11.6874 78.3148 11.6068 78.4406 11.4906 78.5788C11.3743 78.716 11.2106 78.8808 10.9992 79.0732L10.5499 79.5134V79.5345H11.8422V80.0664H9.64833ZM13.4511 80.1085C13.2267 80.1085 13.0269 80.0699 12.8516 79.9928C12.6773 79.9146 12.5395 79.8075 12.4383 79.6712C12.3382 79.534 12.2866 79.3757 12.2836 79.1964H12.9387C12.9427 79.2715 12.9673 79.3376 13.0123 79.3947C13.0584 79.4508 13.1195 79.4944 13.1957 79.5255C13.2718 79.5565 13.3574 79.572 13.4526 79.572C13.5518 79.572 13.6394 79.5545 13.7156 79.5194C13.7917 79.4844 13.8513 79.4358 13.8944 79.3737C13.9375 79.3116 13.959 79.24 13.959 79.1588C13.959 79.0767 13.936 79.004 13.8899 78.9409C13.8448 78.8768 13.7797 78.8267 13.6945 78.7907C13.6104 78.7546 13.5102 78.7366 13.394 78.7366H13.107V78.2587H13.394C13.4922 78.2587 13.5788 78.2417 13.654 78.2076C13.7301 78.1736 13.7892 78.1265 13.8313 78.0664C13.8734 78.0053 13.8944 77.9342 13.8944 77.853C13.8944 77.7759 13.8759 77.7083 13.8388 77.6502C13.8027 77.5911 13.7516 77.545 13.6855 77.5119C13.6204 77.4789 13.5443 77.4623 13.4571 77.4623C13.369 77.4623 13.2883 77.4784 13.2152 77.5104C13.1421 77.5415 13.0835 77.5861 13.0394 77.6442C12.9953 77.7023 12.9718 77.7704 12.9688 77.8485H12.3452C12.3482 77.6712 12.3988 77.5149 12.4969 77.3797C12.5951 77.2445 12.7273 77.1388 12.8936 77.0626C13.0609 76.9855 13.2498 76.9469 13.4601 76.9469C13.6725 76.9469 13.8583 76.9855 14.0176 77.0626C14.1769 77.1398 14.3006 77.244 14.3888 77.3752C14.4779 77.5054 14.522 77.6517 14.521 77.814C14.522 77.9863 14.4684 78.13 14.3602 78.2452C14.253 78.3604 14.1133 78.4335 13.941 78.4646V78.4886C14.1674 78.5177 14.3397 78.5963 14.4579 78.7246C14.5771 78.8518 14.6362 79.0111 14.6352 79.2024C14.6362 79.3777 14.5856 79.5335 14.4834 79.6697C14.3822 79.8059 14.2425 79.9131 14.0642 79.9913C13.8859 80.0694 13.6815 80.1085 13.4511 80.1085Z" fill="black"/>
<path d="M22.13 56.7695H0V71.3061H22.13V56.7695Z" fill="#FFF9E6" stroke="black" stroke-width="0.322733"/>
<path d="M8.88631 61.325V64.4023H8.23567V61.9425H8.21764L7.5129 62.3843V61.8073L8.27474 61.325H8.88631ZM9.61771 64.4023V63.9335L10.7131 62.9192C10.8063 62.8291 10.8844 62.7479 10.9475 62.6758C11.0117 62.6037 11.0602 62.5331 11.0933 62.4639C11.1264 62.3938 11.1429 62.3182 11.1429 62.2371C11.1429 62.1469 11.1223 62.0693 11.0813 62.0041C11.0402 61.938 10.9841 61.8874 10.913 61.8524C10.8419 61.8163 10.7612 61.7983 10.6711 61.7983C10.5769 61.7983 10.4947 61.8173 10.4246 61.8554C10.3545 61.8934 10.3004 61.948 10.2623 62.0192C10.2243 62.0903 10.2052 62.1749 10.2052 62.2731H9.58766C9.58766 62.0718 9.63324 61.897 9.7244 61.7487C9.81556 61.6004 9.94328 61.4857 10.1076 61.4046C10.2719 61.3234 10.4612 61.2829 10.6756 61.2829C10.896 61.2829 11.0878 61.3219 11.2511 61.4001C11.4154 61.4772 11.5431 61.5844 11.6342 61.7216C11.7254 61.8589 11.771 62.0162 11.771 62.1935C11.771 62.3097 11.7479 62.4244 11.7019 62.5376C11.6568 62.6508 11.5761 62.7765 11.4599 62.9147C11.3437 63.052 11.18 63.2168 10.9686 63.4091L10.5193 63.8494V63.8704H11.8116V64.4023H9.61771ZM12.1703 63.8614V63.349L13.4551 61.325H13.8968V62.0342H13.6354L12.8255 63.3159V63.34H14.6512V63.8614H12.1703ZM13.6474 64.4023V63.7051L13.6594 63.4782V61.325H14.2695V64.4023H13.6474Z" fill="black"/>
<path d="M22.1554 88.1875H0.0253906V103.061H22.1554V88.1875Z" fill="#4A90E2" stroke="black" stroke-width="0.322733"/>
<path d="M8.79735 95.1911V98.5293H8.09156V95.861H8.072L7.30754 96.3402V95.7143L8.13394 95.1911H8.79735ZM9.59074 98.5293V98.0207L10.779 96.9205C10.8801 96.8227 10.9648 96.7347 11.0333 96.6564C11.1028 96.5782 11.1555 96.5016 11.1914 96.4266C11.2272 96.3506 11.2452 96.2685 11.2452 96.1805C11.2452 96.0827 11.2229 95.9985 11.1783 95.9278C11.1338 95.8561 11.0729 95.8013 10.9958 95.7632C10.9186 95.7241 10.8312 95.7045 10.7334 95.7045C10.6312 95.7045 10.5421 95.7252 10.466 95.7665C10.39 95.8078 10.3313 95.867 10.29 95.9441C10.2487 96.0213 10.2281 96.1131 10.2281 96.2196H9.55814C9.55814 96.0012 9.60758 95.8116 9.70647 95.6507C9.80535 95.4899 9.9439 95.3655 10.1221 95.2775C10.3003 95.1895 10.5057 95.1455 10.7382 95.1455C10.9773 95.1455 11.1854 95.1878 11.3625 95.2726C11.5407 95.3563 11.6793 95.4725 11.7782 95.6214C11.8771 95.7703 11.9265 95.9409 11.9265 96.1332C11.9265 96.2593 11.9015 96.3837 11.8515 96.5065C11.8026 96.6293 11.7151 96.7657 11.5891 96.9156C11.463 97.0645 11.2854 97.2432 11.0561 97.4519L10.5687 97.9295V97.9523H11.9705V98.5293H9.59074ZM12.4819 98.5293V98.0207L13.6702 96.9205C13.7712 96.8227 13.856 96.7347 13.9245 96.6564C13.994 96.5782 14.0467 96.5016 14.0826 96.4266C14.1184 96.3506 14.1364 96.2685 14.1364 96.1805C14.1364 96.0827 14.1141 95.9985 14.0695 95.9278C14.025 95.8561 13.9641 95.8013 13.887 95.7632C13.8098 95.7241 13.7223 95.7045 13.6245 95.7045C13.5224 95.7045 13.4333 95.7252 13.3572 95.7665C13.2812 95.8078 13.2225 95.867 13.1812 95.9441C13.1399 96.0213 13.1192 96.1131 13.1192 96.2196H12.4493C12.4493 96.0012 12.4988 95.8116 12.5976 95.6507C12.6965 95.4899 12.8351 95.3655 13.0133 95.2775C13.1915 95.1895 13.3969 95.1455 13.6294 95.1455C13.8685 95.1455 14.0766 95.1878 14.2537 95.2726C14.4319 95.3563 14.5705 95.4725 14.6694 95.6214C14.7682 95.7703 14.8177 95.9409 14.8177 96.1332C14.8177 96.2593 14.7927 96.3837 14.7427 96.5065C14.6938 96.6293 14.6063 96.7657 14.4803 96.9156C14.3542 97.0645 14.1766 97.2432 13.9473 97.4519L13.4599 97.9295V97.9523H14.8617V98.5293H12.4819Z" fill="black"/>
<path d="M22.1554 103.865H0.0253906V118.738H22.1554V103.865Z" fill="#4A90E2" stroke="black" stroke-width="0.322733"/>
<path d="M9.12263 110.881V114.219H8.41685V111.55H8.39729L7.63283 112.03V111.404L8.45923 110.881H9.12263ZM9.91603 114.219V113.71L11.1043 112.61C11.2053 112.512 11.2901 112.424 11.3586 112.346C11.4281 112.268 11.4808 112.191 11.5167 112.116C11.5525 112.04 11.5705 111.958 11.5705 111.87C11.5705 111.772 11.5482 111.688 11.5036 111.617C11.4591 111.546 11.3982 111.491 11.3211 111.453C11.2439 111.414 11.1564 111.394 11.0586 111.394C10.9565 111.394 10.8674 111.415 10.7913 111.456C10.7153 111.497 10.6566 111.556 10.6153 111.634C10.574 111.711 10.5534 111.803 10.5534 111.909H9.88343C9.88343 111.691 9.93287 111.501 10.0318 111.34C10.1306 111.179 10.2692 111.055 10.4474 110.967C10.6256 110.879 10.831 110.835 11.0635 110.835C11.3026 110.835 11.5107 110.877 11.6878 110.962C11.866 111.046 12.0046 111.162 12.1035 111.311C12.2023 111.46 12.2518 111.63 12.2518 111.823C12.2518 111.949 12.2268 112.073 12.1768 112.196C12.1279 112.319 12.0404 112.455 11.9144 112.605C11.7883 112.754 11.6107 112.933 11.3814 113.141L10.894 113.619V113.642H12.2958V114.219H9.91603ZM14.2595 110.881V114.219H13.5537V111.55H13.5342L12.7697 112.03V111.404L13.5961 110.881H14.2595Z" fill="#0B0B0C"/>
<path d="M22.1554 119.557H0.0253906V134.43H22.1554V119.557Z" fill="#4A90E2" stroke="black" stroke-width="0.322733"/>
<path d="M8.66542 126.588V129.926H7.95964V127.258H7.94008L7.17562 127.737V127.111L8.00202 126.588H8.66542ZM9.45882 129.926V129.417L10.6471 128.317C10.7481 128.219 10.8329 128.131 10.9014 128.053C10.9709 127.975 11.0236 127.898 11.0595 127.823C11.0953 127.747 11.1132 127.665 11.1132 127.577C11.1132 127.479 11.091 127.395 11.0464 127.324C11.0019 127.253 10.941 127.198 10.8639 127.16C10.7867 127.121 10.6992 127.101 10.6014 127.101C10.4993 127.101 10.4102 127.122 10.3341 127.163C10.2581 127.204 10.1994 127.263 10.1581 127.341C10.1168 127.418 10.0961 127.51 10.0961 127.616H9.42622C9.42622 127.398 9.47566 127.208 9.57455 127.047C9.67343 126.886 9.81198 126.762 9.99019 126.674C10.1684 126.586 10.3738 126.542 10.6063 126.542C10.8454 126.542 11.0535 126.584 11.2306 126.669C11.4088 126.753 11.5474 126.869 11.6463 127.018C11.7451 127.167 11.7946 127.337 11.7946 127.53C11.7946 127.656 11.7696 127.78 11.7196 127.903C11.6707 128.026 11.5832 128.162 11.4572 128.312C11.3311 128.461 11.1535 128.64 10.9242 128.848L10.4368 129.326V129.349H11.8386V129.926H9.45882ZM13.6589 129.999C13.3785 129.998 13.1373 129.929 12.9352 129.792C12.7341 129.655 12.5793 129.457 12.4706 129.197C12.363 128.937 12.3098 128.625 12.3109 128.26C12.3109 127.896 12.3647 127.586 12.4722 127.329C12.5809 127.073 12.7358 126.878 12.9368 126.744C13.1389 126.609 13.3796 126.542 13.6589 126.542C13.9381 126.542 14.1783 126.609 14.3793 126.744C14.5814 126.879 14.7368 127.074 14.8455 127.331C14.9542 127.586 15.008 127.896 15.0069 128.26C15.0069 128.626 14.9525 128.939 14.8439 129.199C14.7363 129.459 14.582 129.657 14.381 129.794C14.1799 129.931 13.9392 129.999 13.6589 129.999ZM13.6589 129.414C13.8501 129.414 14.0028 129.318 14.1169 129.125C14.231 128.933 14.2875 128.645 14.2864 128.26C14.2864 128.007 14.2603 127.796 14.2082 127.628C14.1571 127.459 14.0843 127.332 13.9898 127.248C13.8963 127.163 13.786 127.121 13.6589 127.121C13.4687 127.121 13.3166 127.216 13.2025 127.406C13.0884 127.596 13.0308 127.881 13.0297 128.26C13.0297 128.516 13.0552 128.73 13.1063 128.902C13.1585 129.073 13.2318 129.201 13.3264 129.287C13.4209 129.372 13.5317 129.414 13.6589 129.414Z" fill="black"/>
<path d="M22.1554 135.248H0.0253906V150.121H22.1554V135.248Z" fill="#4A90E2" stroke="black" stroke-width="0.322733"/>
<path d="M9.05435 142.261V145.6H8.34857V142.931H8.32901L7.56455 143.411V142.785L8.39095 142.261H9.05435ZM11.3001 142.261V145.6H10.5943V142.931H10.5747L9.81026 143.411V142.785L10.6367 142.261H11.3001ZM13.3013 142.216C13.473 142.216 13.6381 142.245 13.7968 142.302C13.9565 142.36 14.0989 142.452 14.2238 142.578C14.3499 142.704 14.4493 142.871 14.5221 143.08C14.596 143.287 14.6335 143.542 14.6346 143.844C14.6346 144.128 14.6025 144.381 14.5384 144.604C14.4754 144.825 14.3847 145.014 14.2662 145.169C14.1478 145.325 14.0049 145.443 13.8375 145.525C13.6702 145.605 13.4833 145.645 13.2768 145.645C13.0541 145.645 12.8574 145.602 12.6868 145.516C12.5162 145.43 12.3787 145.312 12.2744 145.163C12.1711 145.013 12.1087 144.844 12.0869 144.657H12.7829C12.8101 144.779 12.8672 144.874 12.9541 144.941C13.041 145.007 13.1486 145.041 13.2768 145.041C13.4942 145.041 13.6593 144.946 13.7723 144.757C13.8853 144.567 13.9424 144.306 13.9435 143.976H13.9207C13.8707 144.074 13.8033 144.158 13.7185 144.229C13.6338 144.298 13.5365 144.352 13.4268 144.39C13.3181 144.428 13.2024 144.447 13.0796 144.447C12.8829 144.447 12.7074 144.401 12.5531 144.309C12.3988 144.216 12.2771 144.089 12.188 143.927C12.0989 143.765 12.0543 143.581 12.0543 143.373C12.0532 143.149 12.1049 142.95 12.2092 142.775C12.3135 142.6 12.4591 142.463 12.646 142.364C12.834 142.264 13.0524 142.215 13.3013 142.216ZM13.3062 142.77C13.1964 142.77 13.0986 142.796 13.0128 142.848C12.928 142.9 12.8606 142.97 12.8106 143.058C12.7617 143.146 12.7378 143.245 12.7389 143.353C12.7389 143.463 12.7628 143.562 12.8106 143.65C12.8595 143.737 12.9258 143.807 13.0095 143.859C13.0943 143.91 13.191 143.935 13.2996 143.935C13.3811 143.935 13.4567 143.92 13.5262 143.89C13.5958 143.859 13.6561 143.817 13.7071 143.764C13.7593 143.71 13.8 143.647 13.8294 143.577C13.8587 143.506 13.8734 143.431 13.8734 143.352C13.8723 143.246 13.8473 143.15 13.7984 143.062C13.7495 142.974 13.6821 142.903 13.5963 142.85C13.5105 142.797 13.4137 142.77 13.3062 142.77Z" fill="black"/>
<path d="M22.1554 151.082H0.0253906V165.955H22.1554V151.082Z" fill="#FFF9E6" stroke="black" stroke-width="0.322733"/>
<path d="M9.05355 158.105V161.443H8.34776V158.775H8.3282L7.56374 159.254V158.628L8.39014 158.105H9.05355ZM11.2993 158.105V161.443H10.5935V158.775H10.5739L9.80945 159.254V158.628L10.6359 158.105H11.2993ZM13.338 161.489C13.0869 161.489 12.8636 161.448 12.668 161.367C12.4735 161.284 12.3208 161.172 12.21 161.029C12.0992 160.887 12.0437 160.726 12.0437 160.545C12.0437 160.406 12.0753 160.278 12.1383 160.162C12.2024 160.045 12.2893 159.948 12.3991 159.87C12.5088 159.792 12.6316 159.742 12.7675 159.72V159.698C12.5892 159.662 12.4447 159.575 12.3339 159.438C12.223 159.3 12.1676 159.14 12.1676 158.958C12.1676 158.785 12.2182 158.631 12.3192 158.496C12.4203 158.361 12.5588 158.254 12.7349 158.177C12.912 158.099 13.113 158.06 13.338 158.06C13.5629 158.06 13.7634 158.099 13.9394 158.177C14.1165 158.255 14.2556 158.362 14.3567 158.498C14.4578 158.633 14.5088 158.786 14.5099 158.958C14.5088 159.141 14.4523 159.302 14.3404 159.438C14.2285 159.575 14.085 159.662 13.9101 159.698V159.72C14.0437 159.742 14.1649 159.792 14.2736 159.87C14.3833 159.948 14.4702 160.045 14.5344 160.162C14.5996 160.278 14.6327 160.406 14.6338 160.545C14.6327 160.726 14.5767 160.887 14.4659 161.029C14.3551 161.172 14.2018 161.284 14.0062 161.367C13.8117 161.448 13.589 161.489 13.338 161.489ZM13.338 160.971C13.4499 160.971 13.5477 160.951 13.6314 160.91C13.715 160.869 13.7802 160.813 13.8269 160.741C13.8748 160.668 13.8987 160.584 13.8987 160.49C13.8987 160.393 13.8742 160.308 13.8253 160.234C13.7764 160.159 13.7101 160.1 13.6265 160.058C13.5428 160.014 13.4466 159.993 13.338 159.993C13.2304 159.993 13.1342 160.014 13.0494 160.058C12.9647 160.1 12.8979 160.159 12.849 160.234C12.8011 160.308 12.7772 160.393 12.7772 160.49C12.7772 160.584 12.8006 160.668 12.8473 160.741C12.8941 160.813 12.9598 160.869 13.0446 160.91C13.1293 160.951 13.2271 160.971 13.338 160.971ZM13.338 159.479C13.4314 159.479 13.5145 159.46 13.5873 159.422C13.6601 159.384 13.7172 159.331 13.7585 159.264C13.7998 159.197 13.8204 159.119 13.8204 159.031C13.8204 158.944 13.7998 158.868 13.7585 158.803C13.7172 158.737 13.6607 158.685 13.589 158.648C13.5173 158.61 13.4336 158.591 13.338 158.591C13.2434 158.591 13.1597 158.61 13.0869 158.648C13.0141 158.685 12.9571 158.737 12.9158 158.803C12.8756 158.868 12.8555 158.944 12.8555 159.031C12.8555 159.119 12.8761 159.197 12.9174 159.264C12.9587 159.331 13.0158 159.384 13.0886 159.422C13.1614 159.46 13.2445 159.479 13.338 159.479Z" fill="black"/>
<path d="M22.1554 166.922H0.0253906V181.795H22.1554V166.922Z" fill="#4A90E2" stroke="black" stroke-width="0.322733"/>
<path d="M9.20595 173.933V177.271H8.50017V174.603H8.48061L7.71615 175.082V174.457L8.54255 173.933H9.20595ZM11.4517 173.933V177.271H10.7459V174.603H10.7263L9.96185 175.082V174.457L10.7883 173.933H11.4517ZM12.3771 177.271L13.7609 174.533V174.51H12.1489V173.933H14.4912V174.518L13.1057 177.271H12.3771Z" fill="black"/>
<path d="M115.654 207.987L115.642 178.986L102.985 179.008L102.998 208.009L115.654 207.987Z" fill="#4A90E2" stroke="black" stroke-width="0.322733"/>
<path d="M107.635 191.622L107.685 194.843L107.005 194.866L106.965 192.292L106.946 192.293L106.216 192.781L106.206 192.177L106.995 191.645L107.635 191.622ZM109.801 191.547L109.851 194.768L109.17 194.791L109.13 192.217L109.111 192.218L108.381 192.706L108.372 192.102L109.161 191.57L109.801 191.547ZM111.966 191.472L112.016 194.693L111.336 194.716L111.296 192.142L111.277 192.143L110.547 192.631L110.537 192.027L111.326 191.495L111.966 191.472Z" fill="black"/>
<path d="M102.299 208.011L102.286 179.01L89.6298 179.031L89.6423 208.032L102.299 208.011Z" fill="#4A90E2" stroke="black" stroke-width="0.322733"/>
<path d="M93.9991 191.585L93.9986 194.806L93.3177 194.806L93.318 192.231L93.2991 192.232L92.5615 192.694L92.5616 192.09L93.359 191.585L93.9991 191.585ZM96.1658 191.584L96.1654 194.805L95.4844 194.805L95.4848 192.23L95.4659 192.23L94.7282 192.693L94.7283 192.089L95.5257 191.584L96.1658 191.584ZM96.9309 194.804L96.9309 194.314L98.0776 193.251C98.1751 193.157 98.2569 193.072 98.3229 192.996C98.3901 192.921 98.4409 192.847 98.4755 192.775C98.5101 192.701 98.5274 192.622 98.5274 192.537C98.5275 192.443 98.506 192.362 98.463 192.293C98.42 192.224 98.3613 192.171 98.2869 192.135C98.2124 192.097 98.128 192.078 98.0337 192.078C97.9351 192.078 97.8492 192.098 97.7758 192.138C97.7024 192.178 97.6457 192.235 97.6059 192.31C97.566 192.384 97.5461 192.473 97.5461 192.575L96.8997 192.576C96.8998 192.365 96.9475 192.182 97.0429 192.027C97.1383 191.872 97.272 191.751 97.444 191.666C97.6159 191.581 97.8141 191.539 98.0385 191.539C98.2691 191.539 98.4699 191.579 98.6408 191.661C98.8127 191.742 98.9464 191.854 99.0418 191.997C99.1372 192.141 99.1849 192.306 99.1848 192.491C99.1848 192.613 99.1607 192.733 99.1124 192.851C99.0652 192.97 98.9808 193.102 98.8592 193.246C98.7376 193.39 98.5661 193.563 98.3449 193.764L97.8746 194.225L97.8746 194.247L99.2271 194.246L99.227 194.803L96.9309 194.804Z" fill="black"/>
<path d="M88.9528 208.012L88.9404 179.012L76.2841 179.033L76.2964 208.034L88.9528 208.012Z" fill="#4A90E2" stroke="black" stroke-width="0.322733"/>
<path d="M80.5734 191.636L80.5964 194.856L79.9155 194.867L79.8971 192.293L79.8782 192.293L79.1441 192.768L79.1397 192.164L79.9334 191.646L80.5734 191.636ZM82.7399 191.6L82.7629 194.821L82.082 194.832L82.0636 192.258L82.0447 192.258L81.3105 192.733L81.3062 192.129L82.0999 191.611L82.7399 191.6ZM84.719 194.834C84.4842 194.837 84.2747 194.8 84.0907 194.723C83.9077 194.644 83.7628 194.534 83.6559 194.393C83.55 194.251 83.4948 194.086 83.4903 193.899L84.1759 193.888C84.1807 193.966 84.2069 194.035 84.2545 194.094C84.3031 194.152 84.3674 194.196 84.4473 194.228C84.5272 194.259 84.617 194.274 84.7165 194.272C84.8203 194.27 84.9119 194.251 84.9913 194.213C85.0708 194.175 85.1328 194.123 85.1774 194.057C85.222 193.991 85.244 193.916 85.2434 193.831C85.2428 193.745 85.2181 193.669 85.1694 193.604C85.1218 193.538 85.0533 193.486 84.9639 193.45C84.8755 193.414 84.7706 193.397 84.649 193.399L84.3486 193.404L84.3451 192.903L84.6454 192.899C84.7481 192.897 84.8387 192.878 84.9171 192.841C84.9965 192.804 85.058 192.753 85.1016 192.69C85.1451 192.625 85.1666 192.55 85.166 192.465C85.1654 192.385 85.1455 192.314 85.1063 192.254C85.0681 192.193 85.0143 192.145 84.9449 192.112C84.8765 192.079 84.7967 192.063 84.7055 192.064C84.6132 192.065 84.529 192.084 84.4527 192.118C84.3764 192.152 84.3154 192.2 84.2697 192.261C84.224 192.323 84.1999 192.395 84.1973 192.476L83.5447 192.487C83.5466 192.301 83.5983 192.137 83.7001 191.994C83.8018 191.851 83.9394 191.738 84.1128 191.655C84.2873 191.572 84.4846 191.528 84.7048 191.525C84.927 191.521 85.1218 191.558 85.289 191.636C85.4563 191.714 85.5865 191.821 85.6798 191.957C85.7741 192.092 85.8213 192.244 85.8214 192.414C85.8238 192.594 85.7688 192.746 85.6564 192.868C85.5451 192.99 85.3994 193.069 85.2193 193.105L85.2195 193.13C85.4566 193.156 85.6375 193.236 85.7622 193.368C85.8879 193.499 85.9509 193.665 85.9513 193.865C85.9537 194.049 85.9019 194.212 85.796 194.357C85.6911 194.501 85.5457 194.616 85.3597 194.7C85.1737 194.785 84.9601 194.83 84.719 194.834Z" fill="black"/>
<path d="M75.5948 208.036L75.582 179.035L62.9257 179.057L62.9385 208.058L75.5948 208.036Z" fill="#4A90E2" stroke="black" stroke-width="0.322733"/>
<path d="M67.1766 191.663L67.2087 194.883L66.5279 194.898L66.5022 192.324L66.4834 192.325L65.7506 192.803L65.7445 192.2L66.5367 191.677L67.1766 191.663ZM69.3428 191.614L69.3749 194.835L68.6941 194.85L68.6685 192.276L68.6496 192.276L67.9168 192.755L67.9108 192.151L68.7029 191.628L69.3428 191.614ZM70.0859 194.253L70.0805 193.716L71.4037 191.568L71.866 191.558L71.8734 192.3L71.5998 192.306L70.7657 193.667L70.766 193.692L72.6763 193.649L72.6818 194.195L70.0859 194.253ZM71.6371 194.784L71.6298 194.055L71.64 193.817L71.6176 191.563L72.2559 191.549L72.288 194.77L71.6371 194.784Z" fill="black"/>
<path d="M62.1329 208.04L62.1201 179.039L49.4638 179.061L49.4765 208.062L62.1329 208.04Z" fill="#4A90E2" stroke="black" stroke-width="0.322733"/>
<path d="M53.7721 191.696L53.8116 194.916L53.1308 194.935L53.0993 192.361L53.0804 192.361L52.3487 192.844L52.3413 192.24L53.1322 191.713L53.7721 191.696ZM55.9381 191.636L55.9775 194.857L55.2968 194.876L55.2652 192.301L55.2464 192.302L54.5147 192.784L54.5073 192.181L55.2982 191.654L55.9381 191.636ZM57.9193 194.848C57.6971 194.854 57.4985 194.819 57.3235 194.742C57.1496 194.665 57.0109 194.556 56.9074 194.415C56.804 194.274 56.7491 194.111 56.7426 193.925L57.4029 193.907C57.4118 194.032 57.4654 194.132 57.5638 194.207C57.6623 194.281 57.7785 194.317 57.9127 194.313C58.0196 194.31 58.1136 194.284 58.1948 194.235C58.277 194.184 58.3407 194.116 58.3857 194.03C58.4318 193.943 58.4542 193.843 58.4529 193.732C58.4515 193.619 58.4261 193.52 58.3769 193.436C58.3287 193.351 58.2623 193.286 58.1779 193.24C58.0935 193.194 57.9973 193.172 57.8893 193.174C57.795 193.176 57.7035 193.198 57.6149 193.239C57.5273 193.28 57.4593 193.335 57.4109 193.404L56.8043 193.312L56.936 191.609L58.9042 191.555L58.9111 192.112L57.504 192.151L57.4306 192.96L57.4495 192.959C57.5051 192.878 57.5897 192.809 57.7033 192.754C57.8169 192.698 57.9444 192.669 58.0859 192.665C58.2798 192.659 58.4533 192.7 58.6064 192.787C58.7595 192.874 58.881 192.996 58.971 193.153C59.061 193.309 59.1067 193.491 59.1082 193.697C59.1119 193.914 59.064 194.108 58.9644 194.28C58.8658 194.45 58.7265 194.586 58.5463 194.688C58.3672 194.788 58.1582 194.842 57.9193 194.848Z" fill="black"/>
<path d="M48.6623 208.063L48.6494 179.062L35.993 179.085L36.0059 208.086L48.6623 208.063Z" fill="#F5F5F5" stroke="black" stroke-width="0.322733"/>
<path d="M40.2819 191.704L40.3151 194.925L39.6343 194.941L39.6077 192.367L39.5889 192.367L38.8562 192.846L38.85 192.242L39.6419 191.719L40.2819 191.704ZM42.4481 191.654L42.4813 194.875L41.8005 194.891L41.7739 192.316L41.7551 192.317L41.0224 192.796L41.0162 192.192L41.8081 191.669L42.4481 191.654ZM44.4829 194.873C44.3173 194.876 44.1571 194.851 44.0025 194.8C43.8489 194.749 43.7107 194.664 43.5878 194.544C43.465 194.424 43.3668 194.264 43.2935 194.063C43.2212 193.863 43.1835 193.615 43.1804 193.32C43.1787 193.05 43.2071 192.808 43.2657 192.593C43.3253 192.378 43.4115 192.195 43.5242 192.043C43.638 191.892 43.7747 191.775 43.9342 191.694C44.0938 191.612 44.2732 191.568 44.4723 191.563C44.6872 191.558 44.8773 191.596 45.0428 191.676C45.2082 191.755 45.3414 191.865 45.4425 192.005C45.5446 192.145 45.607 192.304 45.6298 192.48L44.9585 192.496C44.9311 192.384 44.8752 192.298 44.7906 192.236C44.7061 192.174 44.602 192.144 44.4783 192.147C44.2687 192.152 44.1103 192.247 44.0032 192.432C43.8971 192.616 43.8446 192.866 43.8458 193.179L43.8678 193.179C43.915 193.082 43.9792 192.999 44.0602 192.93C44.1423 192.86 44.2356 192.806 44.3401 192.768C44.4456 192.729 44.557 192.708 44.6744 192.705C44.8652 192.701 45.0354 192.742 45.1852 192.829C45.335 192.915 45.4536 193.035 45.5412 193.189C45.6288 193.343 45.6736 193.521 45.6757 193.722C45.6779 193.94 45.6291 194.135 45.5292 194.307C45.4303 194.48 45.2907 194.616 45.1104 194.717C44.9311 194.816 44.7219 194.868 44.4829 194.873ZM44.4742 194.338C44.5791 194.336 44.6726 194.308 44.7549 194.256C44.8372 194.204 44.9015 194.134 44.9477 194.047C44.994 193.96 45.0166 193.863 45.0155 193.756C45.0144 193.649 44.9898 193.554 44.9418 193.47C44.8948 193.386 44.8301 193.32 44.7479 193.272C44.6656 193.223 44.572 193.2 44.4672 193.203C44.3886 193.204 44.3159 193.221 44.2491 193.252C44.1834 193.283 44.1256 193.325 44.0759 193.378C44.0272 193.432 43.989 193.494 43.9614 193.564C43.9338 193.632 43.9204 193.705 43.9212 193.783C43.9223 193.887 43.9469 193.981 43.9949 194.066C44.044 194.151 44.1097 194.218 44.192 194.268C44.2753 194.317 44.3694 194.341 44.4742 194.338Z" fill="black"/>
<path d="M29.5091 183.002H0.0146484V208.091H29.5091V183.002Z" fill="#74D5F6" stroke="black" stroke-width="0.322733"/>
<line x1="10.0246" y1="184.76" x2="10.0246" y2="191.669" stroke="black" stroke-width="1.61367"/>
<line x1="16.5588" y1="184.76" x2="16.5588" y2="191.669" stroke="black" stroke-width="1.61367"/>
<line x1="20.2541" y1="184.76" x2="20.2541" y2="191.669" stroke="black" stroke-width="1.61367"/>
<line x1="23.423" y1="184.76" x2="23.423" y2="191.669" stroke="black" stroke-width="1.61367"/>
<line x1="27.1641" y1="195.971" x2="6.21439" y2="195.971" stroke="black" stroke-width="1.61367"/>
<line x1="13.3928" y1="184.76" x2="13.3928" y2="191.669" stroke="black" stroke-width="1.61367"/>
<line x1="10.2629" y1="198.682" x2="10.2629" y2="205.591" stroke="black" stroke-width="1.61367"/>
<line x1="16.8303" y1="198.682" x2="16.8303" y2="205.591" stroke="black" stroke-width="1.61367"/>
<line x1="20.5197" y1="198.682" x2="20.5197" y2="205.591" stroke="black" stroke-width="1.61367"/>
<line x1="23.6848" y1="198.682" x2="23.6848" y2="205.591" stroke="black" stroke-width="1.61367"/>
<line x1="13.6594" y1="198.682" x2="13.6594" y2="205.591" stroke="black" stroke-width="1.61367"/>
<path d="M6.18132 189.971C2.48626 193.595 4.20183 198.881 5.52149 201.071M5.52149 201.071H3.54199M5.52149 201.071V197.22" stroke="black" stroke-width="1.61367"/>
<path d="M115.651 154.498H97.8096V165.034H115.651V154.498Z" fill="#4A90E2" stroke="black" stroke-width="0.322733"/>
<path d="M105.146 156.352V158.869H104.614V156.858H104.599L104.023 157.219V156.747L104.646 156.352H105.146ZM106.839 156.352V158.869H106.307V156.858H106.292L105.716 157.219V156.747L106.339 156.352H106.839ZM108.424 158.924C108.213 158.924 108.031 158.872 107.878 158.768C107.727 158.665 107.61 158.516 107.528 158.32C107.447 158.124 107.407 157.889 107.408 157.613C107.408 157.339 107.448 157.105 107.529 156.912C107.611 156.718 107.728 156.571 107.88 156.47C108.032 156.369 108.214 156.318 108.424 156.318C108.635 156.318 108.816 156.369 108.967 156.47C109.12 156.572 109.237 156.719 109.319 156.913C109.401 157.105 109.441 157.339 109.44 157.613C109.44 157.889 109.399 158.125 109.317 158.321C109.236 158.517 109.12 158.666 108.968 158.77C108.817 158.873 108.635 158.924 108.424 158.924ZM108.424 158.483C108.568 158.483 108.683 158.411 108.769 158.266C108.855 158.121 108.898 157.903 108.897 157.613C108.897 157.422 108.878 157.263 108.838 157.136C108.8 157.009 108.745 156.914 108.674 156.85C108.603 156.786 108.52 156.754 108.424 156.754C108.281 156.754 108.166 156.826 108.08 156.969C107.994 157.113 107.951 157.327 107.95 157.613C107.95 157.807 107.969 157.968 108.007 158.097C108.047 158.226 108.102 158.323 108.173 158.387C108.245 158.451 108.328 158.483 108.424 158.483Z" fill="black"/>
<path d="M14.1876 35.7207V18.7687H25.4117V21.7237H17.7717V25.7631H24.6667V28.7181H17.7717V35.7207H14.1876ZM27.8224 35.7207V18.7687H31.4065V32.7657H38.674V35.7207H27.8224ZM55.9654 27.2447C55.9654 29.0933 55.615 30.666 54.9141 31.9628C54.2189 33.2596 53.2697 34.2501 52.0667 34.9344C50.8693 35.6131 49.5228 35.9525 48.0274 35.9525C46.5209 35.9525 45.169 35.6103 43.9715 34.9261C42.7741 34.2418 41.8277 33.2513 41.1324 31.9545C40.4371 30.6577 40.0894 29.0878 40.0894 27.2447C40.0894 25.3961 40.4371 23.8234 41.1324 22.5266C41.8277 21.2299 42.7741 20.2421 43.9715 19.5633C45.169 18.8791 46.5209 18.537 48.0274 18.537C49.5228 18.537 50.8693 18.8791 52.0667 19.5633C53.2697 20.2421 54.2189 21.2299 54.9141 22.5266C55.615 23.8234 55.9654 25.3961 55.9654 27.2447ZM52.3316 27.2447C52.3316 26.0473 52.1523 25.0374 51.7936 24.2152C51.4404 23.393 50.941 22.7694 50.2954 22.3445C49.6498 21.9196 48.8938 21.7072 48.0274 21.7072C47.161 21.7072 46.4051 21.9196 45.7594 22.3445C45.1138 22.7694 44.6116 23.393 44.2529 24.2152C43.8998 25.0374 43.7232 26.0473 43.7232 27.2447C43.7232 28.4422 43.8998 29.452 44.2529 30.2742C44.6116 31.0964 45.1138 31.72 45.7594 32.1449C46.4051 32.5698 47.161 32.7822 48.0274 32.7822C48.8938 32.7822 49.6498 32.5698 50.2954 32.1449C50.941 31.72 51.4404 31.0964 51.7936 30.2742C52.1523 29.452 52.3316 28.4422 52.3316 27.2447ZM74.1983 27.2447C74.1983 29.0933 73.8479 30.666 73.147 31.9628C72.4518 33.2596 71.5026 34.2501 70.2996 34.9344C69.1022 35.6131 67.7557 35.9525 66.2603 35.9525C64.7538 35.9525 63.4019 35.6103 62.2044 34.9261C61.007 34.2418 60.0606 33.2513 59.3653 31.9545C58.67 30.6577 58.3223 29.0878 58.3223 27.2447C58.3223 25.3961 58.67 23.8234 59.3653 22.5266C60.0606 21.2299 61.007 20.2421 62.2044 19.5633C63.4019 18.8791 64.7538 18.537 66.2603 18.537C67.7557 18.537 69.1022 18.8791 70.2996 19.5633C71.5026 20.2421 72.4518 21.2299 73.147 22.5266C73.8479 23.8234 74.1983 25.3961 74.1983 27.2447ZM70.5645 27.2447C70.5645 26.0473 70.3852 25.0374 70.0265 24.2152C69.6733 23.393 69.1739 22.7694 68.5283 22.3445C67.8827 21.9196 67.1267 21.7072 66.2603 21.7072C65.3939 21.7072 64.6379 21.9196 63.9923 22.3445C63.3467 22.7694 62.8445 23.393 62.4858 24.2152C62.1327 25.0374 61.9561 26.0473 61.9561 27.2447C61.9561 28.4422 62.1327 29.452 62.4858 30.2742C62.8445 31.0964 63.3467 31.72 63.9923 32.1449C64.6379 32.5698 65.3939 32.7822 66.2603 32.7822C67.1267 32.7822 67.8827 32.5698 68.5283 32.1449C69.1739 31.72 69.6733 31.0964 70.0265 30.2742C70.3852 29.452 70.5645 28.4422 70.5645 27.2447ZM76.8532 35.7207V18.7687H83.5413C84.8215 18.7687 85.9141 18.9977 86.8191 19.4557C87.7296 19.9082 88.4222 20.5511 88.8967 21.3844C89.3768 22.2121 89.6169 23.1861 89.6169 24.3063C89.6169 25.432 89.3741 26.4004 88.8885 27.2116C88.4029 28.0173 87.6993 28.6353 86.7777 29.0657C85.8617 29.4961 84.7526 29.7114 83.4503 29.7114H78.9722V26.8308H82.8708C83.5551 26.8308 84.1235 26.737 84.576 26.5494C85.0285 26.3618 85.3651 26.0804 85.5858 25.7051C85.8121 25.3299 85.9252 24.8636 85.9252 24.3063C85.9252 23.7434 85.8121 23.2688 85.5858 22.8826C85.3651 22.4963 85.0257 22.2038 84.5677 22.0052C84.1152 21.801 83.5441 21.6989 82.8543 21.6989H80.4373V35.7207H76.8532ZM86.008 28.0062L90.2211 35.7207H86.2645L82.1424 28.0062H86.008ZM104.82 18.7687V35.7207H101.236V22.1707H101.137L97.2548 24.6042V21.4257L101.451 18.7687H104.82Z" fill="#333333"/>
</g>
<rect x="0.582724" y="0.582724" width="245.725" height="207.159" stroke="black" stroke-width="1.16545"/>
<defs>
<clipPath id="clip0_18_824">
<rect width="246.891" height="208.324" fill="white"/>
</clipPath>
</defs>
</svg>
