<svg width="321" height="513" viewBox="0 0 321 513" fill="none" xmlns="http://www.w3.org/2000/svg">
<g clip-path="url(#clip0_11_500)">
<path d="M321 0H0V513H321V0Z" fill="white" stroke="#333333" stroke-width="1.01378"/>
<path d="M321 0H0V21.375H321V0Z" fill="#333333"/>
<path d="M110.841 14.4434V6.24094H114.077C114.699 6.24094 115.229 6.35976 115.667 6.5974C116.105 6.83236 116.438 7.15944 116.668 7.57864C116.9 7.99517 117.016 8.47578 117.016 9.02047C117.016 9.56516 116.899 10.0458 116.664 10.4623C116.429 10.8788 116.089 11.2032 115.643 11.4355C115.199 11.6678 114.663 11.784 114.033 11.784H111.97V10.3942H113.752C114.086 10.3942 114.361 10.3368 114.577 10.222C114.796 10.1045 114.959 9.94298 115.066 9.73738C115.175 9.52912 115.23 9.29015 115.23 9.02047C115.23 8.74813 115.175 8.51049 115.066 8.30757C114.959 8.10197 114.796 7.9431 114.577 7.83096C114.358 7.71615 114.081 7.65874 113.744 7.65874H112.575V14.4434H110.841ZM118.143 14.4434V6.24094H121.379C121.998 6.24094 122.527 6.35175 122.965 6.57337C123.406 6.79231 123.741 7.10337 123.97 7.50655C124.203 7.90706 124.319 8.37832 124.319 8.92035C124.319 9.46504 124.201 9.93363 123.966 10.3261C123.731 10.716 123.391 11.015 122.945 11.2233C122.502 11.4315 121.965 11.5357 121.335 11.5357H119.168V10.1419H121.055C121.386 10.1419 121.661 10.0965 121.88 10.0057C122.099 9.91494 122.261 9.77877 122.368 9.59721C122.478 9.41564 122.532 9.19002 122.532 8.92035C122.532 8.648 122.478 8.41837 122.368 8.23147C122.261 8.04457 122.097 7.90305 121.876 7.80693C121.657 7.70814 121.38 7.65874 121.047 7.65874H119.877V14.4434H118.143ZM122.572 10.7106L124.611 14.4434H122.697L120.702 10.7106H122.572ZM133.082 10.3422C133.082 11.2366 132.912 11.9976 132.573 12.6251C132.237 13.2525 131.778 13.7318 131.195 14.0629C130.616 14.3913 129.965 14.5555 129.241 14.5555C128.512 14.5555 127.858 14.39 127.278 14.0589C126.699 13.7278 126.241 13.2485 125.905 12.621C125.568 11.9936 125.4 11.234 125.4 10.3422C125.4 9.44768 125.568 8.68672 125.905 8.05925C126.241 7.43179 126.699 6.95385 127.278 6.62543C127.858 6.29434 128.512 6.1288 129.241 6.1288C129.965 6.1288 130.616 6.29434 131.195 6.62543C131.778 6.95385 132.237 7.43179 132.573 8.05925C132.912 8.68672 133.082 9.44768 133.082 10.3422ZM131.324 10.3422C131.324 9.76275 131.237 9.27413 131.063 8.87629C130.892 8.47845 130.651 8.17673 130.338 7.97114C130.026 7.76555 129.66 7.66275 129.241 7.66275C128.822 7.66275 128.456 7.76555 128.144 7.97114C127.831 8.17673 127.588 8.47845 127.415 8.87629C127.244 9.27413 127.158 9.76275 127.158 10.3422C127.158 10.9216 127.244 11.4102 127.415 11.808C127.588 12.2059 127.831 12.5076 128.144 12.7132C128.456 12.9188 128.822 13.0216 129.241 13.0216C129.66 13.0216 130.026 12.9188 130.338 12.7132C130.651 12.5076 130.892 12.2059 131.063 11.808C131.237 11.4102 131.324 10.9216 131.324 10.3422ZM139.805 8.89231C139.749 8.6974 139.671 8.52518 139.569 8.37565C139.468 8.22346 139.343 8.0953 139.197 7.99117C139.052 7.88436 138.887 7.80293 138.7 7.74686C138.516 7.69078 138.311 7.66275 138.087 7.66275C137.668 7.66275 137.3 7.76688 136.982 7.97515C136.667 8.18341 136.421 8.48646 136.245 8.8843C136.069 9.27947 135.981 9.76275 135.981 10.3341C135.981 10.9055 136.067 11.3915 136.241 11.792C136.414 12.1925 136.66 12.4982 136.978 12.7092C137.296 12.9174 137.671 13.0216 138.103 13.0216C138.496 13.0216 138.831 12.9521 139.108 12.8133C139.389 12.6718 139.602 12.4729 139.749 12.2165C139.899 11.9602 139.974 11.6572 139.974 11.3074L140.326 11.3594H138.211V10.0538H141.644V11.0871C141.644 11.808 141.492 12.4275 141.187 12.9455C140.883 13.4608 140.464 13.8586 139.93 14.139C139.396 14.4167 138.784 14.5555 138.095 14.5555C137.326 14.5555 136.651 14.386 136.069 14.0469C135.487 13.7051 135.033 13.2205 134.707 12.593C134.384 11.9629 134.222 11.2153 134.222 10.3502C134.222 9.68532 134.318 9.09256 134.511 8.5719C134.706 8.04857 134.978 7.60534 135.328 7.24221C135.677 6.87909 136.085 6.60274 136.549 6.41316C137.014 6.22359 137.517 6.1288 138.059 6.1288C138.524 6.1288 138.956 6.19689 139.357 6.33306C139.757 6.46656 140.112 6.65614 140.422 6.90178C140.735 7.14743 140.99 7.4398 141.187 7.7789C141.385 8.11532 141.512 8.48646 141.568 8.89231H139.805ZM142.946 14.4434V6.24094H146.182C146.802 6.24094 147.331 6.35175 147.768 6.57337C148.209 6.79231 148.544 7.10337 148.774 7.50655C149.006 7.90706 149.122 8.37832 149.122 8.92035C149.122 9.46504 149.005 9.93363 148.77 10.3261C148.535 10.716 148.194 11.015 147.748 11.2233C147.305 11.4315 146.769 11.5357 146.138 11.5357H143.972V10.1419H145.858C146.189 10.1419 146.464 10.0965 146.683 10.0057C146.902 9.91494 147.065 9.77877 147.172 9.59721C147.281 9.41564 147.336 9.19002 147.336 8.92035C147.336 8.648 147.281 8.41837 147.172 8.23147C147.065 8.04457 146.901 7.90305 146.679 7.80693C146.46 7.70814 146.184 7.65874 145.85 7.65874H144.681V14.4434H142.946ZM147.376 10.7106L149.415 14.4434H147.5L145.506 10.7106H147.376ZM151.762 14.4434H149.903L152.735 6.24094H154.97L157.797 14.4434H155.939L153.884 8.11532H153.82L151.762 14.4434ZM151.645 11.2193H156.035V12.573H151.645V11.2193ZM158.784 6.24094H160.923L163.182 11.7519H163.278L165.537 6.24094H167.676V14.4434H165.994V9.10458H165.926L163.803 14.4033H162.657L160.535 9.08455H160.467V14.4434H158.784V6.24094ZM173.554 8.59994C173.522 8.27686 173.385 8.02588 173.142 7.84698C172.899 7.66809 172.569 7.57864 172.152 7.57864C171.869 7.57864 171.63 7.61869 171.436 7.69879C171.241 7.77623 171.091 7.88436 170.987 8.02321C170.886 8.16205 170.835 8.31958 170.835 8.49581C170.829 8.64266 170.86 8.77082 170.927 8.88029C170.996 8.98977 171.091 9.08455 171.211 9.16466C171.331 9.24209 171.47 9.31017 171.628 9.36892C171.785 9.42499 171.954 9.47305 172.132 9.5131L172.869 9.68932C173.227 9.76942 173.556 9.87623 173.855 10.0097C174.154 10.1432 174.413 10.3074 174.632 10.5024C174.851 10.6973 175.02 10.9269 175.14 11.1912C175.263 11.4556 175.326 11.7586 175.328 12.1004C175.326 12.6024 175.198 13.0376 174.944 13.406C174.693 13.7718 174.33 14.0562 173.855 14.2591C173.382 14.4594 172.812 14.5595 172.144 14.5595C171.482 14.5595 170.906 14.458 170.414 14.2551C169.926 14.0522 169.544 13.7518 169.269 13.354C168.996 12.9535 168.854 12.4582 168.84 11.8681H170.518C170.537 12.1431 170.616 12.3727 170.755 12.557C170.896 12.7385 171.084 12.876 171.319 12.9695C171.557 13.0603 171.825 13.1057 172.124 13.1057C172.418 13.1057 172.673 13.0629 172.889 12.9775C173.108 12.8921 173.278 12.7732 173.398 12.621C173.518 12.4689 173.578 12.294 173.578 12.0964C173.578 11.9121 173.524 11.7573 173.414 11.6318C173.307 11.5063 173.15 11.3995 172.941 11.3114C172.736 11.2233 172.484 11.1432 172.184 11.0711L171.291 10.8468C170.6 10.6786 170.054 10.4156 169.653 10.0578C169.253 9.7 169.054 9.21806 169.057 8.61195C169.054 8.11532 169.186 7.68144 169.453 7.3103C169.723 6.93916 170.092 6.64946 170.562 6.4412C171.032 6.23293 171.566 6.1288 172.164 6.1288C172.773 6.1288 173.305 6.23293 173.758 6.4412C174.215 6.64946 174.57 6.93916 174.824 7.3103C175.077 7.68144 175.208 8.11132 175.216 8.59994H173.554ZM179.105 6.24094H181.244L183.503 11.7519H183.599L185.858 6.24094H187.997V14.4434H186.314V9.10458H186.246L184.124 14.4033H182.978L180.855 9.08455H180.787V14.4434H179.105V6.24094ZM189.425 14.4434V6.24094H194.952V7.67076H191.16V9.62524H194.668V11.0551H191.16V13.0135H194.968V14.4434H189.425ZM203.192 6.24094V14.4434H201.694L198.125 9.2808H198.065V14.4434H196.331V6.24094H197.853L201.394 11.3995H201.466V6.24094H203.192ZM209.691 6.24094H211.425V11.5677C211.425 12.1658 211.282 12.6891 210.997 13.1377C210.714 13.5863 210.317 13.936 209.807 14.187C209.297 14.4353 208.703 14.5595 208.025 14.5595C207.344 14.5595 206.749 14.4353 206.239 14.187C205.729 13.936 205.332 13.5863 205.049 13.1377C204.766 12.6891 204.625 12.1658 204.625 11.5677V6.24094H206.359V11.4195C206.359 11.7319 206.427 12.0096 206.563 12.2526C206.702 12.4956 206.897 12.6865 207.148 12.8253C207.399 12.9641 207.691 13.0336 208.025 13.0336C208.361 13.0336 208.654 12.9641 208.902 12.8253C209.153 12.6865 209.347 12.4956 209.483 12.2526C209.622 12.0096 209.691 11.7319 209.691 11.4195V6.24094Z" fill="#FFFCFC"/>
<path d="M153.157 66.8008H16.0527V261.18H153.157V66.8008Z" fill="#FAFAFA" stroke="#666666" stroke-width="0.760336"/>
<path d="M54.7854 171.984V163.782H58.0695C58.673 163.782 59.1763 163.871 59.5794 164.05C59.9826 164.229 60.2857 164.478 60.4886 164.795C60.6915 165.11 60.793 165.473 60.793 165.885C60.793 166.205 60.7289 166.487 60.6007 166.73C60.4726 166.97 60.2964 167.168 60.0721 167.322C59.8505 167.475 59.5968 167.583 59.3111 167.647V167.727C59.6235 167.74 59.9159 167.828 60.1882 167.991C60.4632 168.154 60.6862 168.382 60.8571 168.676C61.028 168.967 61.1134 169.314 61.1134 169.717C61.1134 170.153 61.0053 170.541 60.789 170.883C60.5754 171.222 60.259 171.49 59.8398 171.688C59.4206 171.886 58.9039 171.984 58.2898 171.984H54.7854ZM56.5196 170.567H57.9334C58.4166 170.567 58.7691 170.474 58.9907 170.29C59.2123 170.103 59.3231 169.855 59.3231 169.545C59.3231 169.318 59.2684 169.118 59.1589 168.945C59.0494 168.771 58.8932 168.635 58.6903 168.536C58.4901 168.437 58.2511 168.388 57.9734 168.388H56.5196V170.567ZM56.5196 167.214H57.8052C58.0428 167.214 58.2538 167.173 58.438 167.09C58.6249 167.005 58.7718 166.885 58.8786 166.73C58.988 166.575 59.0428 166.389 59.0428 166.173C59.0428 165.877 58.9373 165.638 58.7264 165.456C58.5181 165.275 58.2217 165.184 57.8372 165.184H56.5196V167.214ZM67.3083 163.782H69.0425V169.109C69.0425 169.707 68.8996 170.23 68.6139 170.679C68.3309 171.127 67.9344 171.477 67.4244 171.728C66.9144 171.976 66.3203 172.101 65.6421 172.101C64.9613 172.101 64.3659 171.976 63.8559 171.728C63.3459 171.477 62.9494 171.127 62.6664 170.679C62.3833 170.23 62.2418 169.707 62.2418 169.109V163.782H63.976V168.961C63.976 169.273 64.0441 169.551 64.1803 169.794C64.3191 170.037 64.514 170.227 64.765 170.366C65.016 170.505 65.3084 170.575 65.6421 170.575C65.9786 170.575 66.2709 170.505 66.5193 170.366C66.7702 170.227 66.9638 170.037 67.1 169.794C67.2388 169.551 67.3083 169.273 67.3083 168.961V163.782ZM74.9189 166.141C74.8869 165.818 74.7494 165.567 74.5064 165.388C74.2634 165.209 73.9337 165.12 73.5171 165.12C73.2341 165.12 72.9952 165.16 72.8002 165.24C72.6053 165.317 72.4558 165.425 72.3517 165.564C72.2502 165.703 72.1995 165.861 72.1995 166.037C72.1941 166.184 72.2248 166.312 72.2916 166.421C72.361 166.531 72.4558 166.626 72.576 166.706C72.6961 166.783 72.8349 166.851 72.9925 166.91C73.15 166.966 73.3182 167.014 73.4971 167.054L74.2341 167.23C74.5918 167.31 74.9203 167.417 75.2193 167.551C75.5184 167.684 75.7774 167.848 75.9963 168.043C76.2152 168.238 76.3848 168.468 76.5049 168.732C76.6278 168.997 76.6905 169.3 76.6932 169.641C76.6905 170.143 76.5623 170.579 76.3087 170.947C76.0577 171.313 75.6946 171.597 75.2193 171.8C74.7467 172 74.1767 172.101 73.5091 172.101C72.847 172.101 72.2702 171.999 71.7789 171.796C71.2903 171.593 70.9085 171.293 70.6335 170.895C70.3611 170.494 70.2183 169.999 70.2049 169.409H71.8831C71.9018 169.684 71.9805 169.914 72.1194 170.098C72.2609 170.28 72.4491 170.417 72.6841 170.511C72.9217 170.601 73.1901 170.647 73.4891 170.647C73.7828 170.647 74.0378 170.604 74.2541 170.519C74.473 170.433 74.6426 170.314 74.7627 170.162C74.8829 170.01 74.943 169.835 74.943 169.637C74.943 169.453 74.8882 169.298 74.7788 169.173C74.6719 169.047 74.5144 168.941 74.3062 168.852C74.1006 168.764 73.8482 168.684 73.5492 168.612L72.6561 168.388C71.9645 168.22 71.4185 167.957 71.018 167.599C70.6175 167.241 70.4185 166.759 70.4212 166.153C70.4185 165.656 70.5507 165.222 70.8177 164.851C71.0874 164.48 71.4572 164.19 71.9271 163.982C72.3971 163.774 72.9311 163.67 73.5292 163.67C74.1379 163.67 74.6693 163.774 75.1232 163.982C75.5798 164.19 75.9349 164.48 76.1885 164.851C76.4422 165.222 76.573 165.652 76.581 166.141H74.9189ZM79.5939 163.782V171.984H77.8597V163.782H79.5939ZM87.8814 163.782V171.984H86.3835L82.815 166.822H82.7549V171.984H81.0207V163.782H82.5426L86.0831 168.941H86.1552V163.782H87.8814ZM89.3142 171.984V163.782H94.8412V165.212H91.0484V167.166H94.5569V168.596H91.0484V170.555H94.8572V171.984H89.3142ZM100.67 166.141C100.638 165.818 100.5 165.567 100.257 165.388C100.014 165.209 99.6844 165.12 99.2678 165.12C98.9848 165.12 98.7459 165.16 98.5509 165.24C98.356 165.317 98.2065 165.425 98.1024 165.564C98.0009 165.703 97.9502 165.861 97.9502 166.037C97.9448 166.184 97.9755 166.312 98.0423 166.421C98.1117 166.531 98.2065 166.626 98.3267 166.706C98.4468 166.783 98.5856 166.851 98.7432 166.91C98.9007 166.966 99.0689 167.014 99.2478 167.054L99.9848 167.23C100.343 167.31 100.671 167.417 100.97 167.551C101.269 167.684 101.528 167.848 101.747 168.043C101.966 168.238 102.135 168.468 102.256 168.732C102.378 168.997 102.441 169.3 102.444 169.641C102.441 170.143 102.313 170.579 102.059 170.947C101.808 171.313 101.445 171.597 100.97 171.8C100.497 172 99.9274 172.101 99.2598 172.101C98.5977 172.101 98.0209 171.999 97.5296 171.796C97.041 171.593 96.6592 171.293 96.3842 170.895C96.1118 170.494 95.969 169.999 95.9556 169.409H97.6338C97.6525 169.684 97.7312 169.914 97.8701 170.098C98.0116 170.28 98.1998 170.417 98.4348 170.511C98.6724 170.601 98.9408 170.647 99.2398 170.647C99.5335 170.647 99.7885 170.604 100.005 170.519C100.224 170.433 100.393 170.314 100.513 170.162C100.634 170.01 100.694 169.835 100.694 169.637C100.694 169.453 100.639 169.298 100.529 169.173C100.423 169.047 100.265 168.941 100.057 168.852C99.8513 168.764 99.5989 168.684 99.2999 168.612L98.4068 168.388C97.7152 168.22 97.1692 167.957 96.7687 167.599C96.3682 167.241 96.1692 166.759 96.1719 166.153C96.1692 165.656 96.3014 165.222 96.5684 164.851C96.8381 164.48 97.2079 164.19 97.6778 163.982C98.1478 163.774 98.6818 163.67 99.2799 163.67C99.8886 163.67 100.42 163.774 100.874 163.982C101.33 164.19 101.686 164.48 101.939 164.851C102.193 165.222 102.324 165.652 102.332 166.141H100.67ZM108.06 166.141C108.028 165.818 107.89 165.567 107.647 165.388C107.405 165.209 107.075 165.12 106.658 165.12C106.375 165.12 106.136 165.16 105.941 165.24C105.746 165.317 105.597 165.425 105.493 165.564C105.391 165.703 105.341 165.861 105.341 166.037C105.335 166.184 105.366 166.312 105.433 166.421C105.502 166.531 105.597 166.626 105.717 166.706C105.837 166.783 105.976 166.851 106.134 166.91C106.291 166.966 106.459 167.014 106.638 167.054L107.375 167.23C107.733 167.31 108.061 167.417 108.36 167.551C108.659 167.684 108.918 167.848 109.137 168.043C109.356 168.238 109.526 168.468 109.646 168.732C109.769 168.997 109.832 169.3 109.834 169.641C109.832 170.143 109.703 170.579 109.45 170.947C109.199 171.313 108.836 171.597 108.36 171.8C107.888 172 107.318 172.101 106.65 172.101C105.988 172.101 105.411 171.999 104.92 171.796C104.431 171.593 104.05 171.293 103.775 170.895C103.502 170.494 103.359 169.999 103.346 169.409H105.024C105.043 169.684 105.122 169.914 105.26 170.098C105.402 170.28 105.59 170.417 105.825 170.511C106.063 170.601 106.331 170.647 106.63 170.647C106.924 170.647 107.179 170.604 107.395 170.519C107.614 170.433 107.784 170.314 107.904 170.162C108.024 170.01 108.084 169.835 108.084 169.637C108.084 169.453 108.029 169.298 107.92 169.173C107.813 169.047 107.655 168.941 107.447 168.852C107.242 168.764 106.989 168.684 106.69 168.612L105.797 168.388C105.106 168.22 104.56 167.957 104.159 167.599C103.759 167.241 103.56 166.759 103.562 166.153C103.56 165.656 103.692 165.222 103.959 164.851C104.228 164.48 104.598 164.19 105.068 163.982C105.538 163.774 106.072 163.67 106.67 163.67C107.279 163.67 107.81 163.774 108.264 163.982C108.721 164.19 109.076 164.48 109.33 164.851C109.583 165.222 109.714 165.652 109.722 166.141H108.06Z" fill="black"/>
<path d="M309.111 66.8008H172.007V261.18H309.111V66.8008Z" fill="#FAFAFA" stroke="#666666" stroke-width="0.760336"/>
<path d="M203.716 174.916V166.714H205.45V170.098H208.97V166.714H210.7V174.916H208.97V171.528H205.45V174.916H203.716ZM219.668 170.815C219.668 171.709 219.498 172.47 219.159 173.098C218.823 173.725 218.363 174.204 217.781 174.536C217.202 174.864 216.55 175.028 215.827 175.028C215.098 175.028 214.444 174.863 213.864 174.532C213.285 174.2 212.827 173.721 212.491 173.094C212.154 172.466 211.986 171.707 211.986 170.815C211.986 169.92 212.154 169.159 212.491 168.532C212.827 167.904 213.285 167.427 213.864 167.098C214.444 166.767 215.098 166.601 215.827 166.601C216.55 166.601 217.202 166.767 217.781 167.098C218.363 167.427 218.823 167.904 219.159 168.532C219.498 169.159 219.668 169.92 219.668 170.815ZM217.91 170.815C217.91 170.235 217.823 169.747 217.649 169.349C217.478 168.951 217.237 168.649 216.924 168.444C216.612 168.238 216.246 168.135 215.827 168.135C215.408 168.135 215.042 168.238 214.729 168.444C214.417 168.649 214.174 168.951 214.001 169.349C213.83 169.747 213.744 170.235 213.744 170.815C213.744 171.394 213.83 171.883 214.001 172.281C214.174 172.679 214.417 172.98 214.729 173.186C215.042 173.391 215.408 173.494 215.827 173.494C216.246 173.494 216.612 173.391 216.924 173.186C217.237 172.98 217.478 172.679 217.649 172.281C217.823 171.883 217.91 171.394 217.91 170.815ZM225.402 169.073C225.37 168.75 225.232 168.499 224.99 168.32C224.747 168.141 224.417 168.051 224 168.051C223.717 168.051 223.478 168.091 223.283 168.171C223.088 168.249 222.939 168.357 222.835 168.496C222.733 168.635 222.683 168.792 222.683 168.968C222.677 169.115 222.708 169.243 222.775 169.353C222.844 169.462 222.939 169.557 223.059 169.637C223.179 169.715 223.318 169.783 223.476 169.842C223.633 169.898 223.801 169.946 223.98 169.986L224.717 170.162C225.075 170.242 225.403 170.349 225.702 170.482C226.001 170.616 226.26 170.78 226.479 170.975C226.698 171.17 226.868 171.4 226.988 171.664C227.111 171.928 227.174 172.231 227.176 172.573C227.174 173.075 227.045 173.51 226.792 173.879C226.541 174.244 226.178 174.529 225.702 174.732C225.23 174.932 224.66 175.032 223.992 175.032C223.33 175.032 222.753 174.931 222.262 174.728C221.773 174.525 221.392 174.224 221.117 173.827C220.844 173.426 220.701 172.931 220.688 172.341H222.366C222.385 172.616 222.464 172.845 222.602 173.03C222.744 173.211 222.932 173.349 223.167 173.442C223.405 173.533 223.673 173.578 223.972 173.578C224.266 173.578 224.521 173.536 224.737 173.45C224.956 173.365 225.126 173.246 225.246 173.094C225.366 172.942 225.426 172.767 225.426 172.569C225.426 172.385 225.371 172.23 225.262 172.104C225.155 171.979 224.998 171.872 224.789 171.784C224.584 171.696 224.331 171.616 224.032 171.544L223.139 171.319C222.448 171.151 221.902 170.888 221.501 170.53C221.101 170.173 220.902 169.691 220.904 169.085C220.902 168.588 221.034 168.154 221.301 167.783C221.571 167.412 221.94 167.122 222.41 166.914C222.88 166.706 223.414 166.601 224.012 166.601C224.621 166.601 225.152 166.706 225.606 166.914C226.063 167.122 226.418 167.412 226.672 167.783C226.925 168.154 227.056 168.584 227.064 169.073H225.402ZM228.343 174.916V166.714H231.579C232.201 166.714 232.731 166.832 233.169 167.07C233.607 167.305 233.941 167.632 234.17 168.051C234.402 168.468 234.519 168.948 234.519 169.493C234.519 170.038 234.401 170.518 234.166 170.935C233.931 171.351 233.591 171.676 233.145 171.908C232.702 172.14 232.165 172.257 231.535 172.257H229.472V170.867H231.254C231.588 170.867 231.863 170.809 232.08 170.695C232.298 170.577 232.461 170.416 232.568 170.21C232.678 170.002 232.732 169.763 232.732 169.493C232.732 169.221 232.678 168.983 232.568 168.78C232.461 168.575 232.298 168.416 232.08 168.304C231.861 168.189 231.583 168.131 231.246 168.131H230.077V174.916H228.343ZM237.379 166.714V174.916H235.645V166.714H237.379ZM238.494 168.143V166.714H245.23V168.143H242.719V174.916H241.005V168.143H238.494ZM246.751 174.916H244.893L247.724 166.714H249.959L252.787 174.916H250.928L248.874 168.588H248.81L246.751 174.916ZM246.635 171.692H251.025V173.046H246.635V171.692ZM253.774 174.916V166.714H255.508V173.486H259.025V174.916H253.774ZM261.907 166.714V174.916H260.173V166.714H261.907ZM263.022 168.143V166.714H269.758V168.143H267.247V174.916H265.533V168.143H263.022ZM270.387 166.714H272.33L274.2 170.246H274.28L276.15 166.714H278.093L275.101 172.016V174.916H273.379V172.016L270.387 166.714Z" fill="black"/>
<path d="M153.157 288.293H16.0527V482.672H153.157V288.293Z" fill="#FAFAFA" stroke="#666666" stroke-width="0.760336"/>
<path d="M49.5111 389.205H47.6527L50.4843 381.003H52.7192L55.5467 389.205H53.6884L51.6338 382.877H51.5697L49.5111 389.205ZM49.3949 385.981H53.7845V387.335H49.3949V385.981ZM63.3857 383.874H61.6315C61.5994 383.647 61.534 383.446 61.4352 383.27C61.3364 383.091 61.2096 382.938 61.0547 382.813C60.8999 382.687 60.721 382.591 60.5181 382.525C60.3178 382.458 60.1002 382.424 59.8652 382.424C59.4407 382.424 59.0709 382.53 58.7558 382.741C58.4407 382.949 58.1964 383.254 58.0229 383.654C57.8493 384.052 57.7626 384.535 57.7626 385.104C57.7626 385.689 57.8493 386.18 58.0229 386.578C58.1991 386.976 58.4448 387.276 58.7598 387.479C59.0749 387.682 59.4394 387.783 59.8532 387.783C60.0855 387.783 60.3004 387.753 60.498 387.691C60.6983 387.63 60.8758 387.54 61.0307 387.423C61.1856 387.303 61.3137 387.157 61.4152 386.986C61.5193 386.815 61.5914 386.62 61.6315 386.402L63.3857 386.41C63.3403 386.786 63.2268 387.149 63.0453 387.499C62.8664 387.846 62.6247 388.157 62.3203 388.432C62.0186 388.704 61.6582 388.921 61.239 389.081C60.8224 389.238 60.3512 389.317 59.8252 389.317C59.0936 389.317 58.4394 389.152 57.8627 388.821C57.2886 388.49 56.8347 388.01 56.501 387.383C56.1699 386.755 56.0043 385.996 56.0043 385.104C56.0043 384.209 56.1725 383.448 56.509 382.821C56.8454 382.194 57.302 381.716 57.8787 381.387C58.4554 381.056 59.1043 380.891 59.8252 380.891C60.3004 380.891 60.741 380.957 61.1469 381.091C61.5554 381.224 61.9172 381.419 62.2322 381.676C62.5473 381.929 62.8036 382.24 63.0012 382.609C63.2015 382.977 63.3296 383.399 63.3857 383.874ZM71.8665 383.874H70.1122C70.0802 383.647 70.0148 383.446 69.916 383.27C69.8172 383.091 69.6904 382.938 69.5355 382.813C69.3806 382.687 69.2017 382.591 68.9988 382.525C68.7986 382.458 68.581 382.424 68.346 382.424C67.9215 382.424 67.5517 382.53 67.2366 382.741C66.9215 382.949 66.6772 383.254 66.5037 383.654C66.3301 384.052 66.2433 384.535 66.2433 385.104C66.2433 385.689 66.3301 386.18 66.5037 386.578C66.6799 386.976 66.9255 387.276 67.2406 387.479C67.5557 387.682 67.9201 387.783 68.334 387.783C68.5663 387.783 68.7812 387.753 68.9788 387.691C69.1791 387.63 69.3566 387.54 69.5115 387.423C69.6663 387.303 69.7945 387.157 69.896 386.986C70.0001 386.815 70.0722 386.62 70.1122 386.402L71.8665 386.41C71.8211 386.786 71.7076 387.149 71.526 387.499C71.3471 387.846 71.1055 388.157 70.8011 388.432C70.4994 388.704 70.1389 388.921 69.7197 389.081C69.3032 389.238 68.8319 389.317 68.3059 389.317C67.5743 389.317 66.9202 389.152 66.3435 388.821C65.7694 388.49 65.3155 388.01 64.9817 387.383C64.6506 386.755 64.4851 385.996 64.4851 385.104C64.4851 384.209 64.6533 383.448 64.9897 382.821C65.3262 382.194 65.7827 381.716 66.3595 381.387C66.9362 381.056 67.585 380.891 68.3059 380.891C68.7812 380.891 69.2218 380.957 69.6276 381.091C70.0361 381.224 70.3979 381.419 70.713 381.676C71.0281 381.929 71.2844 382.24 71.482 382.609C71.6822 382.977 71.8104 383.399 71.8665 383.874ZM80.6476 385.104C80.6476 385.998 80.4781 386.759 80.139 387.387C79.8025 388.014 79.3433 388.494 78.7612 388.825C78.1818 389.153 77.5303 389.317 76.8067 389.317C76.0778 389.317 75.4237 389.152 74.8442 388.821C74.2648 388.49 73.8069 388.01 73.4705 387.383C73.1341 386.755 72.9659 385.996 72.9659 385.104C72.9659 384.209 73.1341 383.448 73.4705 382.821C73.8069 382.194 74.2648 381.716 74.8442 381.387C75.4237 381.056 76.0778 380.891 76.8067 380.891C77.5303 380.891 78.1818 381.056 78.7612 381.387C79.3433 381.716 79.8025 382.194 80.139 382.821C80.4781 383.448 80.6476 384.209 80.6476 385.104ZM78.8894 385.104C78.8894 384.524 78.8026 384.036 78.6291 383.638C78.4582 383.24 78.2165 382.938 77.9041 382.733C77.5917 382.527 77.2259 382.424 76.8067 382.424C76.3875 382.424 76.0217 382.527 75.7093 382.733C75.397 382.938 75.154 383.24 74.9804 383.638C74.8095 384.036 74.7241 384.524 74.7241 385.104C74.7241 385.683 74.8095 386.172 74.9804 386.57C75.154 386.968 75.397 387.269 75.7093 387.475C76.0217 387.68 76.3875 387.783 76.8067 387.783C77.2259 387.783 77.5917 387.68 77.9041 387.475C78.2165 387.269 78.4582 386.968 78.6291 386.57C78.8026 386.172 78.8894 385.683 78.8894 385.104ZM86.9987 381.003H88.7329V386.329C88.7329 386.928 88.59 387.451 88.3043 387.899C88.0213 388.348 87.6248 388.698 87.1148 388.949C86.6049 389.197 86.0108 389.321 85.3326 389.321C84.6517 389.321 84.0563 389.197 83.5463 388.949C83.0363 388.698 82.6398 388.348 82.3568 387.899C82.0738 387.451 81.9323 386.928 81.9323 386.329V381.003H83.6665V386.181C83.6665 386.494 83.7345 386.771 83.8707 387.014C84.0096 387.257 84.2045 387.448 84.4555 387.587C84.7064 387.726 84.9988 387.795 85.3326 387.795C85.669 387.795 85.9614 387.726 86.2097 387.587C86.4607 387.448 86.6542 387.257 86.7904 387.014C86.9293 386.771 86.9987 386.494 86.9987 386.181V381.003ZM97.0204 381.003V389.205H95.5225L91.954 384.043H91.8939V389.205H90.1597V381.003H91.6816L95.2221 386.161H95.2942V381.003H97.0204ZM98.1408 382.432V381.003H104.877V382.432H102.366V389.205H100.652V382.432H98.1408ZM107.721 381.003V389.205H105.987V381.003H107.721ZM116.009 381.003V389.205H114.511L110.942 384.043H110.882V389.205H109.148V381.003H110.67L114.21 386.161H114.282V381.003H116.009ZM122.88 383.654C122.824 383.459 122.745 383.287 122.644 383.137C122.542 382.985 122.418 382.857 122.271 382.753C122.127 382.646 121.962 382.565 121.775 382.509C121.591 382.453 121.386 382.424 121.162 382.424C120.743 382.424 120.374 382.529 120.057 382.737C119.742 382.945 119.496 383.248 119.32 383.646C119.143 384.041 119.055 384.524 119.055 385.096C119.055 385.667 119.142 386.153 119.316 386.554C119.489 386.954 119.735 387.26 120.053 387.471C120.37 387.679 120.746 387.783 121.178 387.783C121.571 387.783 121.906 387.714 122.183 387.575C122.464 387.433 122.677 387.235 122.824 386.978C122.974 386.722 123.048 386.419 123.048 386.069L123.401 386.121H121.286V384.816H124.719V385.849C124.719 386.57 124.566 387.189 124.262 387.707C123.958 388.222 123.538 388.62 123.004 388.901C122.47 389.178 121.859 389.317 121.17 389.317C120.401 389.317 119.726 389.148 119.143 388.809C118.561 388.467 118.108 387.982 117.782 387.355C117.459 386.725 117.297 385.977 117.297 385.112C117.297 384.447 117.393 383.854 117.586 383.334C117.78 382.81 118.053 382.367 118.403 382.004C118.752 381.641 119.16 381.364 119.624 381.175C120.089 380.985 120.592 380.891 121.134 380.891C121.599 380.891 122.031 380.959 122.432 381.095C122.832 381.228 123.187 381.418 123.497 381.664C123.809 381.909 124.064 382.202 124.262 382.541C124.46 382.877 124.586 383.248 124.642 383.654H122.88Z" fill="black"/>
<path d="M309.111 288.293H172.007V482.672H309.111V288.293Z" fill="#FAFAFA" stroke="#666666" stroke-width="0.760336"/>
<path d="M228.871 389.205H227.012L229.844 381.003H232.079L234.906 389.205H233.048L230.993 382.877H230.929L228.871 389.205ZM228.754 385.981H233.144V387.335H228.754V385.981ZM235.893 389.205V381.003H239.178C239.781 381.003 240.284 381.092 240.688 381.271C241.091 381.45 241.394 381.698 241.597 382.016C241.8 382.331 241.901 382.694 241.901 383.105C241.901 383.426 241.837 383.707 241.709 383.95C241.581 384.191 241.404 384.388 241.18 384.543C240.959 384.695 240.705 384.803 240.419 384.868V384.948C240.732 384.961 241.024 385.049 241.296 385.212C241.571 385.375 241.794 385.603 241.965 385.897C242.136 386.188 242.222 386.535 242.222 386.938C242.222 387.373 242.113 387.762 241.897 388.104C241.684 388.443 241.367 388.711 240.948 388.909C240.529 389.106 240.012 389.205 239.398 389.205H235.893ZM237.628 387.787H239.041C239.525 387.787 239.877 387.695 240.099 387.511C240.32 387.324 240.431 387.076 240.431 386.766C240.431 386.539 240.377 386.339 240.267 386.165C240.158 385.992 240.001 385.855 239.798 385.757C239.598 385.658 239.359 385.609 239.082 385.609H237.628V387.787ZM237.628 384.435H238.913C239.151 384.435 239.362 384.394 239.546 384.311C239.733 384.225 239.88 384.105 239.987 383.95C240.096 383.796 240.151 383.61 240.151 383.394C240.151 383.097 240.045 382.858 239.834 382.677C239.626 382.495 239.33 382.404 238.945 382.404H237.628V384.435ZM245.084 381.003V389.205H243.35V381.003H245.084ZM246.199 382.432V381.003H252.935V382.432H250.424V389.205H248.71V382.432H246.199Z" fill="black"/>
<path d="M321 21.377H0V48.0957H321V21.377Z" fill="#F0F0F0" stroke="#333333" stroke-width="0.506891"/>
<path d="M8.4021 47.1059V36.9691H11.5621V38.2427H10.0522V45.8283H11.5621V47.1059H8.4021ZM16.974 46.0726L12.9369 42.0355L16.974 37.9984L17.9032 38.9196L15.4641 41.3587H21.1793V42.7124H15.4641L17.9032 45.1475L16.974 46.0726ZM25.9073 46.1367V37.9343H27.6415V41.3186H31.162V37.9343H32.8922V46.1367H31.162V42.7484H27.6415V46.1367H25.9073ZM41.8596 42.0355C41.8596 42.93 41.69 43.6909 41.3509 44.3184C41.0145 44.9459 40.5553 45.4251 39.9732 45.7562C39.3938 46.0847 38.7423 46.2489 38.0187 46.2489C37.2898 46.2489 36.6356 46.0833 36.0562 45.7522C35.4768 45.4211 35.0189 44.9419 34.6825 44.3144C34.346 43.6869 34.1778 42.9273 34.1778 42.0355C34.1778 41.141 34.346 40.3801 34.6825 39.7526C35.0189 39.1251 35.4768 38.6472 36.0562 38.3188C36.6356 37.9877 37.2898 37.8222 38.0187 37.8222C38.7423 37.8222 39.3938 37.9877 39.9732 38.3188C40.5553 38.6472 41.0145 39.1251 41.3509 39.7526C41.69 40.3801 41.8596 41.141 41.8596 42.0355ZM40.1014 42.0355C40.1014 41.4561 40.0146 40.9675 39.841 40.5696C39.6701 40.1718 39.4285 39.8701 39.1161 39.6645C38.8037 39.4589 38.4379 39.3561 38.0187 39.3561C37.5995 39.3561 37.2337 39.4589 36.9213 39.6645C36.6089 39.8701 36.3659 40.1718 36.1924 40.5696C36.0215 40.9675 35.9361 41.4561 35.9361 42.0355C35.9361 42.6149 36.0215 43.1035 36.1924 43.5014C36.3659 43.8992 36.6089 44.2009 36.9213 44.4065C37.2337 44.6121 37.5995 44.7149 38.0187 44.7149C38.4379 44.7149 38.8037 44.6121 39.1161 44.4065C39.4285 44.2009 39.6701 43.8992 39.841 43.5014C40.0146 43.1035 40.1014 42.6149 40.1014 42.0355ZM43.1442 37.9343H45.2829L47.5418 43.4453H47.6379L49.8968 37.9343H52.0355V46.1367H50.3534V40.7979H50.2853L48.1626 46.0967H47.0171L44.8944 40.7779H44.8264V46.1367H43.1442V37.9343ZM53.4643 46.1367V37.9343H58.9913V39.3641H55.1985V41.3186H58.707V42.7484H55.1985V44.7069H59.0074V46.1367H53.4643ZM63.0775 36.9691V47.1059H59.9175V45.8283H61.4274V38.2427H59.9175V36.9691H63.0775Z" fill="black"/>
<path d="M145.138 46.1367V37.9343H146.872V44.7069H150.388V46.1367H145.138ZM158.755 42.0355C158.755 42.93 158.585 43.6909 158.246 44.3184C157.91 44.9459 157.451 45.4251 156.869 45.7562C156.289 46.0847 155.638 46.2489 154.914 46.2489C154.185 46.2489 153.531 46.0833 152.952 45.7522C152.372 45.4211 151.914 44.9419 151.578 44.3144C151.241 43.6869 151.073 42.9273 151.073 42.0355C151.073 41.141 151.241 40.3801 151.578 39.7526C151.914 39.1251 152.372 38.6472 152.952 38.3188C153.531 37.9877 154.185 37.8222 154.914 37.8222C155.638 37.8222 156.289 37.9877 156.869 38.3188C157.451 38.6472 157.91 39.1251 158.246 39.7526C158.585 40.3801 158.755 41.141 158.755 42.0355ZM156.997 42.0355C156.997 41.4561 156.91 40.9675 156.736 40.5696C156.566 40.1718 156.324 39.8701 156.012 39.6645C155.699 39.4589 155.333 39.3561 154.914 39.3561C154.495 39.3561 154.129 39.4589 153.817 39.6645C153.504 39.8701 153.261 40.1718 153.088 40.5696C152.917 40.9675 152.831 41.4561 152.831 42.0355C152.831 42.6149 152.917 43.1035 153.088 43.5014C153.261 43.8992 153.504 44.2009 153.817 44.4065C154.129 44.6121 154.495 44.7149 154.914 44.7149C155.333 44.7149 155.699 44.6121 156.012 44.4065C156.324 44.2009 156.566 43.8992 156.736 43.5014C156.91 43.1035 156.997 42.6149 156.997 42.0355ZM165.479 40.5857C165.422 40.3908 165.344 40.2185 165.242 40.069C165.141 39.9168 165.017 39.7887 164.87 39.6845C164.726 39.5777 164.56 39.4963 164.373 39.4402C164.189 39.3841 163.985 39.3561 163.76 39.3561C163.341 39.3561 162.973 39.4602 162.655 39.6685C162.34 39.8768 162.094 40.1798 161.918 40.5777C161.742 40.9728 161.654 41.4561 161.654 42.0275C161.654 42.5989 161.74 43.0848 161.914 43.4854C162.088 43.8859 162.333 44.1916 162.651 44.4025C162.969 44.6108 163.344 44.7149 163.776 44.7149C164.169 44.7149 164.504 44.6455 164.782 44.5066C165.062 44.3651 165.276 44.1662 165.422 43.9099C165.572 43.6536 165.647 43.3505 165.647 43.0007L165.999 43.0528H163.885V41.7471H167.317V42.7805C167.317 43.5014 167.165 44.1208 166.86 44.6388C166.556 45.1541 166.137 45.552 165.603 45.8323C165.069 46.11 164.457 46.2489 163.768 46.2489C162.999 46.2489 162.324 46.0793 161.742 45.7402C161.16 45.3984 160.706 44.9138 160.38 44.2864C160.057 43.6562 159.895 42.9086 159.895 42.0435C159.895 41.3787 159.992 40.7859 160.184 40.2653C160.379 39.7419 160.651 39.2987 161.001 38.9356C161.351 38.5724 161.758 38.2961 162.222 38.1065C162.687 37.9169 163.19 37.8222 163.732 37.8222C164.197 37.8222 164.629 37.8902 165.03 38.0264C165.43 38.1599 165.786 38.3495 166.095 38.5951C166.408 38.8408 166.663 39.1332 166.86 39.4723C167.058 39.8087 167.185 40.1798 167.241 40.5857H165.479ZM176.157 42.0355C176.157 42.93 175.988 43.6909 175.648 44.3184C175.312 44.9459 174.853 45.4251 174.271 45.7562C173.691 46.0847 173.04 46.2489 172.316 46.2489C171.587 46.2489 170.933 46.0833 170.354 45.7522C169.774 45.4211 169.316 44.9419 168.98 44.3144C168.644 43.6869 168.475 42.9273 168.475 42.0355C168.475 41.141 168.644 40.3801 168.98 39.7526C169.316 39.1251 169.774 38.6472 170.354 38.3188C170.933 37.9877 171.587 37.8222 172.316 37.8222C173.04 37.8222 173.691 37.9877 174.271 38.3188C174.853 38.6472 175.312 39.1251 175.648 39.7526C175.988 40.3801 176.157 41.141 176.157 42.0355ZM174.399 42.0355C174.399 41.4561 174.312 40.9675 174.139 40.5696C173.968 40.1718 173.726 39.8701 173.414 39.6645C173.101 39.4589 172.735 39.3561 172.316 39.3561C171.897 39.3561 171.531 39.4589 171.219 39.6645C170.906 39.8701 170.663 40.1718 170.49 40.5696C170.319 40.9675 170.234 41.4561 170.234 42.0355C170.234 42.6149 170.319 43.1035 170.49 43.5014C170.663 43.8992 170.906 44.2009 171.219 44.4065C171.531 44.6121 171.897 44.7149 172.316 44.7149C172.735 44.7149 173.101 44.6121 173.414 44.4065C173.726 44.2009 173.968 43.8992 174.139 43.5014C174.312 43.1035 174.399 42.6149 174.399 42.0355Z" fill="black"/>
</g>
<defs>
<clipPath id="clip0_11_500">
<rect width="321" height="513" fill="white"/>
</clipPath>
</defs>
</svg>
